<?xml version="1.0" standalone="no"?>
<!DOCTYPE svg PUBLIC "-//W3C//DTD SVG 1.1//EN" "http://www.w3.org/Graphics/SVG/1.1/DTD/svg11.dtd" >
<svg xmlns="http://www.w3.org/2000/svg" xmlns:xlink="http://www.w3.org/1999/xlink" version="1.1">
<metadata>
Created by FontForge 20170731 at Wed Dec  1 10:21:25 2021
 By Aleksey,,,
Copyright 2020 Adobe Systems Incorporated. All rights reserved.
</metadata>
<defs>
<font id="HomeworkRegular" horiz-adv-x="774" >
  <font-face 
    font-family="Homework"
    font-weight="400"
    font-stretch="normal"
    units-per-em="2048"
    panose-1="0 0 0 0 0 0 0 0 0 0"
    ascent="1638"
    descent="-410"
    x-height="895"
    cap-height="1728.5"
    bbox="-618.4 -713.86 5296 2115.75"
    underline-thickness="0"
    underline-position="0"
    unicode-range="U+000A-F04D"
  />
<missing-glyph horiz-adv-x="1079" 
d="M102 1434h875v-1434h-875v1434zM160 1393l379 -633l381 633h-760zM514 717l-369 614v-1231zM541 674l-379 -631h758zM565 717l371 -621v1239z" />
    <glyph glyph-name=".notdef" horiz-adv-x="1079" 
d="M102 1434h875v-1434h-875v1434zM160 1393l379 -633l381 633h-760zM514 717l-369 614v-1231zM541 674l-379 -631h758zM565 717l371 -621v1239z" />
    <glyph glyph-name=".null" horiz-adv-x="0" 
 />
    <glyph glyph-name=".null" horiz-adv-x="0" 
 />
    <glyph glyph-name="nonmarkingreturn" horiz-adv-x="682" 
 />
    <glyph glyph-name="LF" unicode="&#xa;" horiz-adv-x="0" 
 />
    <glyph glyph-name="controlCR" unicode="&#xd;" horiz-adv-x="0" 
 />
    <glyph glyph-name="space" unicode=" " horiz-adv-x="561" 
 />
    <glyph glyph-name="exclam" unicode="!" horiz-adv-x="454" 
d="M260 186l-6 7q2 -12 -6.5 -19.5t-19 -5.5t-13.5 14q-41 144 -70 312q-80 479 -24 1105q3 19 22 19q8 8 15 8q73 4 110 2q46 0 56 -33q1 -19 1.5 -23t-3.5 -23t-5 -23q-3 -14 -9 -40.5t-9 -39.5q-52 -265 -59 -633q-6 -289 20 -620v-7zM330 84l4 -6q14 -14 14.5 -38
t-10.5 -42t-29 -27t-41 -6q-19 3 -32 19q-15 18 -15 43q0 26 8 45q5 11 16 18.5t23 7.5q6 0 8 -2q4 2 13 2q24 3 41 -14z" />
    <glyph glyph-name="quotedbl" unicode="&#x22;" horiz-adv-x="335" 
d="M102 1528v2q0 20 20.5 20t20.5 -20q0 -82 7 -197q0 -9 -6.5 -15.5t-14.5 -6.5q-9 0 -14.5 6t-5.5 14q-7 116 -7 197zM227 1530v2q0 -98 6 -197q0 -9 -6 -15.5t-14 -6.5q-9 0 -14.5 6t-5.5 14q-7 116 -7 197q0 20 20.5 20t20.5 -20z" />
    <glyph glyph-name="quotedbl" unicode="&#x201d;" horiz-adv-x="335" 
d="M102 1528v2q0 20 20.5 20t20.5 -20q0 -82 7 -197q0 -9 -6.5 -15.5t-14.5 -6.5q-9 0 -14.5 6t-5.5 14q-7 116 -7 197zM227 1530v2q0 -98 6 -197q0 -9 -6 -15.5t-14 -6.5q-9 0 -14.5 6t-5.5 14q-7 116 -7 197q0 20 20.5 20t20.5 -20z" />
    <glyph glyph-name="quotedbl" unicode="&#x201c;" horiz-adv-x="335" 
d="M102 1528v2q0 20 20.5 20t20.5 -20q0 -82 7 -197q0 -9 -6.5 -15.5t-14.5 -6.5q-9 0 -14.5 6t-5.5 14q-7 116 -7 197zM227 1530v2q0 -98 6 -197q0 -9 -6 -15.5t-14 -6.5q-9 0 -14.5 6t-5.5 14q-7 116 -7 197q0 20 20.5 20t20.5 -20z" />
    <glyph glyph-name="numbersign" unicode="#" horiz-adv-x="1300" 
d="M1178 526h-19q13 1 18 -9t0 -20.5t-18 -11.5q-57 -2 -172 -2h-67q-1 -40 -3.5 -119.5t-3.5 -119.5q-5 -158 -2 -203q0 -9 -6 -15t-14 -6q-12 -1 -34.5 -3t-33.5 -3q-40 -5 -53 0q-22 10 -22 45v56q1 60 3 181t3 181h-203q-1 -40 -3 -119.5t-3 -119.5q-5 -158 -2 -203
q0 -9 -6.5 -15t-14.5 -6l-33 -3t-34 -3q-41 -5 -54 0q-22 10 -22 45v56q1 60 3 181t3 181h-270q-20 0 -20 20.5t20 20.5h172h104q1 59 3 178t3 178h-276q-20 0 -20 20.5t20 20.5h172h110q5 395 5 473v0v7q4 7 12 10q59 14 133 0q31 -7 33 -29q1 -10 1 -22t-0.5 -26t-0.5 -22
q-1 -64 -11 -387h197q4 316 4 473v0v7q4 7 12 10q60 14 134 0q30 -7 32 -29q2 0 1 -34l-1 -35q-2 -133 -10 -394q151 0 227 4q13 1 18 -9t0 -20.5t-18 -11.5q-57 -2 -172 -2h-55l-6 -264v-86q160 0 240 4zM526 1382v2v-6v4zM526 1372zM752 526l-7 -6q1 59 3.5 178t3.5 179
h-197q-1 -44 -3 -132.5t-3 -132.5v-86h203zM895 1374v-4v4v0z" />
    <glyph glyph-name="dollar" unicode="$" horiz-adv-x="958" 
d="M825 707l-2 -9q11 7 21 0t10 -17.5t-10 -18.5q-90 -54 -230 -101q36 -140 -26 -295q-43 -107 -127 -168q-4 -4 -6 -4q-38 -26 -74 -37q-2 -1 -6 -2t-6 -2q-4 -111 0 -166q1 -13 -9 -18t-20.5 0t-11.5 18q-4 51 0 158q-65 -7 -122.5 17t-82.5 79q-30 75 -4.5 153.5
t86.5 131.5q50 45 141 86q2 65 10 190q-1 1 -88 82q-73 69 -116 138.5t-46 150.5q-3 87 40.5 158.5t121.5 105.5q66 29 129 29q2 21 6.5 62t6.5 61q1 13 11.5 18t20.5 0t9 -18q-2 -21 -6.5 -64t-6.5 -65q77 -13 127 -66q54 -51 64 -143q1 -13 -9 -18t-20.5 0t-11.5 18
q-6 65 -44 106.5t-102 42.5h-6l-12 -141q-3 -49 -9 -147.5t-9 -147.5q77 -69 124.5 -125.5t73.5 -128.5q141 50 221 97zM326 102v-4q8 242 14 363q-117 -55 -162 -133q-24 -40 -30.5 -84.5t10.5 -87.5q16 -35 52.5 -53.5t78.5 -20.5q25 0 37 2v18zM463 551l-2 -2
q-25 52 -72 102l-6 -129q71 26 80 29zM360 885v2q12 199 27 399q-52 -12 -91.5 -49.5t-51.5 -89.5q-30 -121 116 -262zM428 123h2q55 81 70.5 183t-15.5 196l-6 12q-14 -4 -29.5 -10t-35.5 -13.5t-31 -11.5q-1 -16 -3 -48.5t-3 -49.5q-8 -191 -10 -289q30 11 61 31z" />
    <glyph glyph-name="percent" unicode="%" horiz-adv-x="1153" 
d="M1026 1434l6 2q-12 -26 -34 -77.5t-33 -76.5q-114 -260 -394 -889q-89 -199 -180 -399q-10 -22 -30.5 -67t-30.5 -68q-19 -40 -56 -45q-29 -3 -57.5 5.5t-42.5 30.5q-2 4 -2 11v6q77 217 143 379q214 533 609 1302q2 8 8.5 13t15.5 2q30 -7 72 -29q10 -5 16 -9t11 -11.5
t4 -16.5t-5 -19.5t-11.5 -25.5t-8.5 -18zM324 928q-91 -7 -148 39q-53 43 -65 143q-11 89 24 152q26 47 72 77.5t100 38.5q4 2 10 2h19v0q67 -2 118 -39.5t70 -101.5q12 -38 4 -104q-10 -86 -63 -142q-53 -59 -141 -65zM227 1186h-4q-6 -59 7.5 -117.5t48.5 -99.5
q40 -3 77 6q67 18 101 88q26 51 26 125q0 36 -10 59q-19 44 -56 68t-85 24v0h-13q-83 -58 -92 -153zM1047 338q12 -38 4 -105q-9 -84 -64 -141q-53 -59 -141 -65q-91 -7 -148 39q-53 43 -65 143q-11 88 24 151q26 47 72 78t100 39q4 2 11 2h18v0q67 -2 118.5 -39.5
t70.5 -101.5zM985 162l-4 6q27 53 27 125q0 34 -11 59q-19 44 -56 68t-85 24v0h-12q-83 -58 -92 -153v-19v-12q0 -40 6 -78q1 -7 4 -21.5t4 -21.5q16 -43 41 -71q41 -3 78 6q66 17 100 88z" />
    <glyph glyph-name="ampersand" unicode="&#x26;" horiz-adv-x="1456" 
d="M1350 592l6 -14q8 -11 1.5 -21t-18 -10t-20.5 10q-52 73 -135 115q-17 -82 -74 -228q-59 -149 -131 -274q-76 -130 -185.5 -215.5t-246.5 -101.5q-174 -20 -295 84q-113 99 -137 274q-28 207 69 379q50 90 126.5 153.5t172.5 90.5q-68 32 -115.5 98t-68.5 147
q-22 85 4.5 165t85 133.5t139 83t162.5 20.5h6h6q66 -11 120 -48t83 -96q27 -53 26 -115t-34 -112q-8 -10 -19 -10t-18 9.5t0 20.5q31 51 28.5 107.5t-34.5 105.5q-53 82 -156 99q-86 -13 -151 -71.5t-88 -143.5q-24 -89 -4 -201q23 -124 96 -166l6 -6q8 -5 10 -14t-6 -17
l-12 -6q-257 -225 -273 -485q-9 -136 55.5 -252.5t184.5 -175.5q67 6 125 30q113 43 193.5 134t148.5 221q120 234 156 413q-82 28 -168 19q-13 -1 -18 9t0 20.5t18 11.5q109 12 211.5 -34.5t167.5 -135.5zM563 1423zM412 1192l4 -4v12q-4 -4 -4 -8v0zM442 -115z" />
    <glyph glyph-name="quotesingle" unicode="'" horiz-adv-x="251" 
d="M143 1528v2q0 -82 7 -197q0 -9 -6.5 -15.5t-14.5 -6.5q-9 0 -14.5 6t-5.5 14q-7 116 -7 197q0 20 20.5 20t20.5 -20z" />
    <glyph glyph-name="quotesingle" unicode="&#x2019;" horiz-adv-x="251" 
d="M143 1528v2q0 -82 7 -197q0 -9 -6.5 -15.5t-14.5 -6.5q-9 0 -14.5 6t-5.5 14q-7 116 -7 197q0 20 20.5 20t20.5 -20z" />
    <glyph glyph-name="quotesingle" unicode="&#x2018;" horiz-adv-x="251" 
d="M143 1528v2q0 -82 7 -197q0 -9 -6.5 -15.5t-14.5 -6.5q-9 0 -14.5 6t-5.5 14q-7 116 -7 197q0 20 20.5 20t20.5 -20z" />
    <glyph glyph-name="parenleft" unicode="(" horiz-adv-x="602" 
d="M498 1581l-4 4q-64 -114 -111 -237q-116 -301 -119 -617q-6 -418 187 -835v-7v-6v-6q-8 -15 -21 -12h-6q-5 3 -8 8q-200 231 -275 508q-52 209 -37.5 417.5t89.5 409.5q62 164 145 281q18 24 27.5 36.5t27.5 33t36.5 34t37.5 21.5q2 2 6 2q15 3 23 -12q8 -12 2 -23z" />
    <glyph glyph-name="parenright" unicode=")" horiz-adv-x="624" 
d="M518 776l-4 2q19 -245 -56.5 -477t-232.5 -426q-5 -8 -14 -8q-14 -3 -21 14v6v7v4q109 248 148 499q47 307 -13.5 613.5t-220.5 572.5q-8 11 0 23t23 6q24 -8 46.5 -24t45 -42t33.5 -40.5t33 -45.5q101 -146 160 -323t73 -361z" />
    <glyph glyph-name="asterisk" unicode="*" horiz-adv-x="534" 
d="M418 1399l14 -2q20 -8 14 -27q-2 -8 -9.5 -12.5t-14.5 -1.5v0h-6h-25h-55q2 -2 6 -6.5t6 -6.5q6 -6 18.5 -18t18.5 -18q17 -17 21 -27q3 -7 -2 -15t-13 -10q-18 -6 -26 15l2 -4v0q-1 1 -3.5 3t-3.5 3q-4 6 -16 14q-19 19 -55 51q0 -38 -4 -116q0 -20 -20.5 -20t-20.5 20
v110q-12 -11 -36.5 -33t-37.5 -34q-9 -8 -20.5 -4.5t-14 13t5.5 19.5l62 62h-74q-20 0 -20 20.5t20 20.5q61 0 92 2l-67 67q-9 9 -5 20.5t13.5 14t19.5 -5.5l49 -49q2 -2 6.5 -6t6.5 -6v98q0 20 20.5 20t20.5 -20v-98l73 73q8 8 19.5 4.5t14 -13t-4.5 -19.5l-80 -80
q46 4 68 4q37 0 43 -2z" />
    <glyph glyph-name="plus" unicode="+" horiz-adv-x="770" 
d="M647 641l6 8q13 -1 18 -11.5t0 -20.5t-18 -9q-68 4 -196 8q-26 -194 -29 -227q0 -4 -1 -11.5t-1.5 -13.5t-2 -14t-3.5 -14.5t-4.5 -13t-6.5 -10.5t-9 -6.5t-12 -1.5t-15 5q-12 6 -19 18.5t-9 21t-5 26.5q-2 18 -6 52.5t-6 51.5q-10 113 -11 135q-95 0 -190 -6
q-13 -1 -18 9t0 20.5t18 11.5q91 6 184 6q-6 148 2 277v0v4q14 31 103 8q69 -19 63 -92q-3 -35 -13 -99.5t-13 -84.5v-19q130 -4 194 -8z" />
    <glyph glyph-name="comma" unicode="," horiz-adv-x="335" 
d="M158 100v-2q27 3 48.5 -14.5t26.5 -44.5q7 -43 -22 -111q-19 -45 -59 -88q-8 -9 -19.5 -5.5t-14 13.5t4.5 21q32 37 49 78q2 5 12 35q-21 -3 -37 2q-31 10 -41 39q-9 27 7.5 50.5t44.5 26.5z" />
    <glyph glyph-name="hyphen" unicode="-" horiz-adv-x="843" 
d="M479 659h6q-68 1 -192 -0.5t-164 -1.5q-20 0 -20 20.5t20 20.5h92q168 4 504 -4q20 0 20 -20.5t-20 -20.5z" />
    <glyph glyph-name="period" unicode="." horiz-adv-x="325" 
d="M201 66q16 -13 22 -31q4 -19 -2 -33q-7 -20 -24 -29q-16 -8 -41 -8q-27 0 -41 17q-16 16 -13 38q4 28 17 41q15 11 28 11q31 10 54 -6z" />
    <glyph glyph-name="slash" unicode="/" horiz-adv-x="1030" 
d="M889 1554q7 11 17.5 11.5t18 -9.5t1.5 -22q-11 -20 -79.5 -150.5t-103.5 -199.5q-317 -622 -602 -1258q-7 -18 -25 -9q-18 11 -12 30q26 61 164 358q287 615 621 1249z" />
    <glyph glyph-name="zero" unicode="0" horiz-adv-x="1013" 
d="M905 698l-4 2q-13 -262 -98 -454q-109 -247 -293 -269q-103 -12 -189 38.5t-131 144.5q-39 81 -61 215q-26 141 -29 260q-3 122 13 258q17 120 32 172q22 71 54.5 137t79.5 129t112 101.5t139 40.5h5h6q37 0 71 -9q64 -18 115.5 -65.5t84.5 -113.5t53 -129.5t32 -133.5
q20 -116 8 -324zM205 240v6v-6zM250 141v-6v6zM596 47h6q71 37 139 156q53 96 80 200q49 177 49 437q0 134 -22 227q-12 51 -27.5 97t-41.5 96.5t-58 86.5t-78.5 60t-99.5 25h-4h-7q-5 0 -30 -5q-93 -107 -146 -258q-75 -224 -61 -548q15 -380 129 -598q93 -19 172 24z" />
    <glyph glyph-name="one" unicode="1" horiz-adv-x="894" 
d="M772 35v-2q13 -1 18 -11.5t0 -20.5t-18 -9q-313 20 -651 14q-20 0 -20 20.5t20 20.5q82 2 246 2v12q0 65 4 197q4 116 13 347t13 347q2 52 7 158t7.5 188.5t2.5 157.5q-11 -11 -27 -31q-36 -43 -70 -79q-30 -33 -47.5 -50.5t-47.5 -41t-58 -37.5q-19 -7 -29.5 11t8.5 25
q64 29 158 136q13 14 70 81q19 22 43 37q4 15 18 15q25 3 62 0h6q53 -7 71 -37q13 -22 13 -96q2 -66 2 -197q-2 -301 -29 -836l-12 -264v-31q0 -12 -2 -16q76 -2 229 -10z" />
    <glyph glyph-name="two" unicode="2" horiz-adv-x="980" 
d="M573 895v4q75 195 86 320q6 81 -24 151t-98 103q-58 -3 -107 -21q-108 -36 -172 -132.5t-59 -211.5q1 -13 -9 -18t-20.5 0t-11.5 18q-6 135 74 245.5t210 145.5q130 34 234 -16q97 -44 139 -162q21 -58 23 -121.5t-15 -132.5t-34.5 -119t-47.5 -121q-88 -208 -222.5 -401
t-315.5 -399q330 56 657 22q13 -1 18 -11.5t0 -20.5t-18 -9q-352 37 -706 -31h-13h-18q-12 0 -18.5 10.5t-0.5 20.5q48 89 181 316q68 118 108 190t92 179.5t88 201.5z" />
    <glyph glyph-name="three" unicode="3" horiz-adv-x="987" 
d="M772 141l2 2q-66 -72 -164.5 -109t-195.5 -28q-117 10 -189 82q-75 75 -121 197q-4 12 5 19.5t20.5 5t15.5 -14.5q48 -133 131 -199q80 -64 218 -49q20 2 55 10q134 131 156 383q21 224 -99 363q-10 7 -10 16v0q-3 6 0 15q37 78 54 117t36 107t19 126q0 95 -37.5 175
t-114.5 122q-143 3 -242 -82q-58 -50 -79 -118.5t1 -141.5q4 -13 -4.5 -21t-20 -6t-15.5 14q-29 88 1 175t105 143q60 46 140.5 64.5t157.5 8t143 -57t96 -122.5q18 -45 17.5 -100.5t-13 -104.5t-33.5 -98q-53 -125 -160 -209q158 -71 211 -213q42 -112 17.5 -247
t-103.5 -224z" />
    <glyph glyph-name="four" unicode="4" horiz-adv-x="985" 
d="M446 1200l7 -6q-43 -145 -78 -272q-34 -130 -49 -188t-35 -165t-27 -192q32 0 86 16q91 28 326 103h6q3 76 9 227t9 227q1 44 6.5 165t7.5 205.5t1 164.5q-5 10 0 22t18 13q111 11 139 -35q13 -22 13 -96q2 -66 2 -197q-2 -301 -29 -836l-12 -264v-31q-2 -23 -12 -34.5
t-33 -14.5q-49 -7 -92 -4q-25 3 -35 27q-4 4 -4 10v16q0 65 4 197q1 34 3 101.5t3 101.5q-33 -10 -98.5 -31t-98.5 -31q-13 -4 -58 -19.5t-74.5 -23.5t-59.5 -12q-80 -11 -131 29q-47 36 -54 108q-3 36 11 146q12 92 30 178q22 105 52.5 219.5t73 260t61.5 216.5q3 12 12 15
q27 9 57 14.5t65.5 6t54 -17.5t9.5 -55q-6 -25 -23.5 -73.5t-19.5 -55.5q-7 -22 -21.5 -67t-21.5 -68zM713 45v0v0zM797 49v-2q6 3 6 8zM225 383zM449 1315h6q2 8 6 24.5t6 24.5l-6 -12q-2 -6 -6 -18.5t-6 -18.5z" />
    <glyph glyph-name="five" unicode="5" horiz-adv-x="1046" 
d="M768 844l-4 2q87 -47 119 -144t18 -206q-27 -222 -162 -357q-70 -70 -163 -106.5t-187 -24.5q-93 13 -168 66q-71 52 -115 149q-2 4 -2 13q-5 11 2.5 20.5t17.5 9t17 -11.5q67 -133 187 -166q128 -34 233 64q83 79 125 201.5t19 230.5q-22 104 -99 172q-78 68 -219 61
q-18 -1 -38.5 -3t-45.5 -5t-39 -4q-70 -8 -100 16q-54 40 -45 148q1 11 6 49q32 233 141 479q6 14 21 10q6 3 12 0q48 -13 68 -16h12q127 -25 242 -31q86 -3 155 2q87 7 135 39q11 7 21 0t10 -18t-10 -19q-40 -25 -95 -37t-105 -10.5t-103 2.5q-84 3 -180 19
q-139 -278 -189 -588h6q128 41 260 41q155 0 242 -47z" />
    <glyph glyph-name="six" unicode="6" horiz-adv-x="1011" 
d="M557 -8l-6 -4q-107 7 -201 75.5t-151 167.5q-106 188 -103 471q3 294 103 504q52 111 135 194.5t190 110.5q99 26 198 -9t148 -122q7 -11 0 -20.5t-17.5 -9.5t-18.5 10q-23 39 -62 67q-60 46 -135 52q-156 -47 -260 -281q-69 -158 -96 -369q-13 -111 -13 -202
q96 135 228 176q66 23 137 12.5t127 -53.5q67 -51 105.5 -135.5t41.5 -173.5q6 -176 -90 -318q-47 -69 -114.5 -109t-145.5 -34zM442 735v-2q-101 -53 -176 -186q0 -21 4 -53q23 -263 117 -410q127 -83 236 -51q66 19 115.5 73t80.5 125q68 154 33 287q-21 84 -66 150
t-114 92q-109 39 -230 -25z" />
    <glyph glyph-name="seven" unicode="7" horiz-adv-x="1062" 
d="M844 1528l6 8q24 5 55 2.5t47 -25.5q25 -37 4 -88q-7 -18 -18 -34.5t-29 -40t-24 -31.5q-42 -59 -72 -107q-122 -186 -238 -421q48 0 142 4q13 1 18 -9t0 -20.5t-18 -11.5q-79 -6 -160 -6q-182 -382 -262 -719q0 -15 -14 -21q-15 -6 -70 -6q-63 0 -76 2q-12 2 -18 8.5
t-6 16.5t1.5 18.5t5.5 22t5 18.5q60 246 199 559q18 42 45 98q-35 0 -105 -4q-13 -1 -18 9t0 20.5t18 11.5q82 4 123 4q168 354 395 701q-8 -1 -24.5 -3t-24.5 -3q-47 -4 -141 -12.5t-141 -12.5q-17 -1 -62.5 -6t-70.5 -6.5t-61.5 2t-64.5 14.5q-12 5 -14 17t5.5 20.5
t19.5 3.5q49 -18 151 -10q27 2 83 6t83 6q55 4 163.5 12.5t162.5 12.5zM229 100h-6h6zM240 334l6 12z" />
    <glyph glyph-name="eight" unicode="8" horiz-adv-x="903" 
d="M354 1489l-6 -4q70 37 153.5 29.5t149.5 -58.5q53 -41 77.5 -102t23 -123t-22.5 -127q-41 -124 -158 -291l-6 -6q97 -111 156 -199q54 -77 69 -163.5t-14 -176.5q-26 -74 -77 -137t-117 -92q-67 -30 -143.5 -34t-150 23.5t-118.5 84.5q-48 61 -61.5 145.5t-0.5 161.5
t44 155q63 153 161 281q-8 11 -24.5 34t-24.5 34q-62 86 -82 135q-49 119 0.5 246t165.5 184h6zM729 274zM385 47l-4 2q141 -11 225 57q2 2 6 6.5t6 6.5q31 193 -55 364q-19 36 -45.5 78t-46.5 69.5t-55 74.5t-51 69q-5 7 -15.5 21.5t-15.5 21.5q-155 -211 -187 -393
q-26 -162 33 -260q31 -53 85.5 -82.5t119.5 -34.5zM641 1407q-44 44 -108.5 61t-126.5 0q-26 -6 -46 -18l-12 -6q-76 -47 -94 -131q-22 -112 70 -230q30 -40 94 -112q7 -3 10 -13q12 -14 37 -42.5t37 -43.5l30 -30q5 7 15.5 21.5t15.5 21.5q133 195 142 338q7 113 -64 184z
" />
    <glyph glyph-name="nine" unicode="9" horiz-adv-x="1024" 
d="M877 1376v-4q45 -30 45 -102q0 -51 -9 -149t-10 -109q-18 -258 -26 -779q-5 -181 -7 -198q-5 -45 -75 -45q-21 0 -41 3t-40 15t-18 33v6q-9 141 -12 283q-4 244 21 780q-40 -131 -101 -236q-56 -91 -137.5 -144t-177.5 -42q-96 13 -148 86q-50 71 -39 182
q22 213 187.5 361t380.5 156q20 0 20 -20.5t-20 -20.5q-43 -2 -111 -17q-90 -42 -159 -117t-101 -168q-33 -100 -20 -205.5t69 -195.5h6q149 24 248 238q91 196 115 405q0 6 8 14q7 11 18 11q92 8 134 -21z" />
    <glyph glyph-name="colon" unicode=":" horiz-adv-x="323" 
d="M141 844l-2 -4q-24 7 -33 28q-8 20 -4 50q9 54 45 59q12 3 19 -4h6q25 -6 39 -31q19 -32 -2 -68q-11 -18 -29.5 -26t-38.5 -4zM174 467l-2 -4q25 -6 39 -31q19 -32 -2 -67q-11 -18 -29.5 -26.5t-38.5 -4.5q-23 7 -32 28q-8 22 -5 50q9 53 46 59q11 3 18 -4h6zM174 408z
" />
    <glyph glyph-name="semicolon" unicode=";" horiz-adv-x="331" 
d="M141 844l-2 -4q-24 7 -33 28q-8 20 -4 50q9 54 45 59q12 3 19 -4h6q25 -6 39 -31q19 -32 -2 -68q-11 -18 -29.5 -26t-38.5 -4zM188 479l2 2q28 -14 35 -50.5t-4 -63.5q-24 -69 -84 -97q-18 -7 -28 9q-5 6 -3 14.5t9 11.5q34 15 53 51q-23 -3 -39 13q-13 10 -20 32
q-8 21 -2.5 45t24.5 35q7 3 14 0q15 3 31 0q8 0 12 -2z" />
    <glyph glyph-name="less" unicode="&#x3c;" horiz-adv-x="739" 
d="M600 936v2q9 8 20.5 3.5t14 -14.5t-5.5 -20q-132 -112 -469 -354q66 -39 136.5 -85t160 -106.5t133.5 -89.5q10 -8 10 -18.5t-10 -17.5t-21 0q-41 27 -140 94t-172 114t-144 88q-10 6 -9.5 17.5t9.5 17.5q124 89 174.5 125.5t145.5 109t167 134.5z" />
    <glyph glyph-name="equal" unicode="=" horiz-adv-x="792" 
d="M123 662q-13 0 -18 10t0 20t18 10q78 2 273.5 0.5t273.5 -0.5q13 0 18 -10t0 -20t-18 -10q-78 -1 -273.5 0.5t-273.5 -0.5zM670 516q20 0 20 -20.5t-20 -20.5q-78 -1 -273.5 0.5t-273.5 -0.5q-20 0 -20 20.5t20 20.5q78 2 273.5 0.5t273.5 -0.5z" />
    <glyph glyph-name="greater" unicode="&#x3e;" horiz-adv-x="735" 
d="M623 645l-2 2q10 -6 9.5 -17.5t-9.5 -17.5q-15 -11 -94 -69t-107.5 -79.5t-88.5 -67t-105 -82.5t-89 -76q-9 -8 -20.5 -4.5t-13.5 13t6 19.5q142 125 464 359q-66 39 -133 81t-168.5 108t-130.5 85q-10 8 -10 19t10 18t21 0q46 -29 143 -92.5t172 -111t146 -87.5z" />
    <glyph glyph-name="question" unicode="?" horiz-adv-x="917" 
d="M750 1505l2 -10q45 -52 59.5 -120t0 -138.5t-39 -132t-59.5 -123.5q-16 -28 -109.5 -184t-134.5 -244q-88 -184 -70 -465q0 -13 -10 -16q-12 -8 -22 0q-83 56 -112 152t-17 208q6 55 21 108.5t43.5 113t47.5 95.5t61 106t56 95q92 159 137 291q11 32 17 50t15 53.5
t10 60.5t-1.5 54t-17.5 52t-39 39q-23 8 -56 15q-167 30 -262 -52q-94 -82 -119.5 -214.5t27.5 -245.5q7 -18 -10 -29q-19 -9 -27 8q-30 66 -36.5 143t8.5 149t55.5 137.5t101.5 107.5q100 70 269 43q136 -21 211 -107zM358 133zM678 1505zM434 -4l-2 4q8 -4 12 -8
q20 -26 9 -58q-7 -25 -29 -40t-49 -17q-31 -3 -51 14q-18 18 -21 39q-7 56 37 80q43 24 84 -2q8 -8 10 -12z" />
    <glyph glyph-name="at" unicode="@" horiz-adv-x="1376" 
d="M1233 1087l-2 -2q43 -107 43 -258q0 -146 -35 -266q-68 -227 -205 -293q-64 -31 -121 -12q-81 29 -116 158q-40 136 -43 284q-28 -82 -64 -153q-18 -36 -38.5 -65.5t-50.5 -57.5t-64.5 -27t-67.5 37q-35 37 -49 111q-17 76 -14 164q3 105 39 199.5t106 160.5
q33 31 74.5 41.5t83.5 -2.5q59 -21 90 -76q2 7 6 21.5t6 21.5q4 12 15.5 14.5t20.5 -5t5 -19.5q-28 -84 -41 -145q-30 -148 -14 -308q5 -68 26 -157q22 -95 54 -127q29 -29 66.5 -30.5t69.5 14.5t60 44q126 126 148 367q29 284 -88 457q-64 95 -164.5 144.5t-214.5 43.5
q-141 -7 -263 -76.5t-204 -187.5q-145 -208 -148 -488q-2 -119 40 -225t126 -182q114 -105 277 -127q265 -36 397 65q16 13 30 -3q13 -14 -1 -25q-49 -37 -107 -58q-163 -55 -385 -10q-93 20 -175.5 77.5t-139.5 137.5q-139 197 -88 502q24 141 88.5 267.5t165.5 217.5
q107 96 254 137.5t282 6.5q114 -28 200 -111t130 -197zM768 883l-2 -2q4 24 16 80q-25 86 -94 104q-38 -36 -74 -141q-26 -75 -39 -158q-25 -145 -8 -326q25 14 58 68q32 51 65 137q35 87 78 238z" />
    <glyph glyph-name="A" unicode="A" horiz-adv-x="1734" 
d="M1767 676v14q3 13 14.5 15.5t20.5 -5t6 -20.5q-20 -80 -45 -191q-78 -332 -155 -514q-63 -148 -148 -217q-58 -47 -124.5 -69t-127.5 -2q-43 14 -75.5 45.5t-50.5 68t-30 86.5t-16 89t-6 87q-5 128 14 338q8 90 19 185t29 230t24 185q-233 27 -409 -28q-3 -1 -9.5 -3
t-9.5 -3l-18 -123q-7 -50 -19.5 -150.5t-19.5 -150.5q-2 -10 -12 -82.5t-13 -91.5t-13 -80t-16 -90.5t-16.5 -79t-22 -89t-24.5 -79.5q-56 -169 -133 -246q-45 -46 -104.5 -70.5t-120.5 -17.5q-63 7 -110.5 44.5t-74 93t-39.5 114.5t-14 119q-2 180 75 358.5t202 318
t282 238.5q88 56 176 92q5 32 29 166q40 208 94 352q63 172 148 250q40 38 91.5 58t94.5 0q7 4 16 -2q136 -79 158 -287q13 -116 6 -275q-4 -80 -8 -122v-7v-18q-1 -17 -3 -51.5t-3 -52.5q112 -26 229 -78q11 -6 11.5 -16t-9.5 -18t-22 -3q-99 44 -215 72q-5 -55 -18 -181.5
t-21 -221t-12 -181.5q-12 -295 16 -445q10 -60 29 -108q10 -25 16 -35t14 -22q13 -13 19 -17q4 -4 8 -4l6 -6q3 -2 10.5 -5t10.5 -5l6 -6q30 12 67 38q88 65 152 216q44 107 88 260q22 77 55 224t51 212zM1174 129v43v-43zM1298 -276h-6h6zM580 516l4 6q10 72 28.5 215
t28.5 215q-197 -81 -373 -260q-207 -210 -282 -473q-43 -154 -29 -295t92 -213q48 -44 114 -48t122 30q103 58 166 221q18 47 33.5 101t25.5 92.5t22 107t16.5 95t16.5 108t15 98.5zM967 1057q67 0 149 -10q3 25 9.5 74t9.5 73q22 207 22 338q0 154 -31 217q-17 35 -39 43
q-31 11 -79 -12q-93 -44 -166 -207q-58 -131 -107 -348q-22 -111 -39 -209q2 1 6.5 3t6.5 3q118 35 258 35z" />
    <glyph glyph-name="B" unicode="B" horiz-adv-x="1480" 
d="M1540 690l-8 17q13 3 20.5 -6t5 -20.5t-15.5 -14.5q-135 -32 -301 -129q-73 -42 -137 -86q18 -82 18 -168q-2 -189 -80 -369t-217 -301q-43 -38 -91.5 -59.5t-105 -19.5t-100.5 38q-36 29 -48.5 70.5t-1.5 91.5t24 85t35 83q123 258 403 479q-27 126 -90 205
q-79 100 -217 129h-6q-11 -3 -19 5.5t-6 18.5v0q0 7 6 13q70 66 107 110q39 49 84 133q141 279 114 527q-10 99 -51 174q-36 65 -69 76q-61 6 -123 0q-149 -12 -285 -68q-145 -58 -259 -164.5t-144 -241.5q-8 -36 -9 -74t5.5 -78t14.5 -72.5t21 -74.5q39 -129 41 -139
q9 201 39 397q3 21 23 129q4 21 6.5 29t10 21.5t20.5 21.5q30 18 73 25q54 11 76 -21q20 -27 12 -84l-12 -123q-16 -147 -22 -215q-18 -205 -23 -331q-7 -211 25 -523q25 -232 34 -331q0 -5 2 -19t2.5 -21.5t-1 -18.5t-5.5 -19q-12 -27 -43 -37q-63 -21 -106 16
q-11 4 -14 15q-3 18 -9.5 54.5t-9.5 55.5q-75 439 -78 793q-8 8 -8 18q-4 57 -19.5 119.5t-39.5 136.5t-35 117q-48 196 33 348q72 129 200 220t283 136q79 23 156 33.5t161 7t157.5 -37.5t121.5 -97q86 -114 43 -309q-34 -152 -113 -291q-116 -206 -278 -317
q88 3 168.5 -30t134.5 -99q55 -67 80 -150q54 37 139 86q165 93 301 125zM193 -195l6 -6zM762 866v4v-4v0zM872 -268q-1 -2 -3 -6.5t-3 -6.5q1 2 3 6.5t3 6.5zM569 -401h-2q53 -31 119 -11l6 6q173 127 234 383q45 182 18 361q-246 -199 -362 -428l-17.5 -35t-17.5 -38.5
t-17 -45t-12 -43.5t-5.5 -45t5.5 -39.5t17 -37t34 -27.5z" />
    <glyph glyph-name="C" unicode="C" horiz-adv-x="915" 
d="M940 686l-4 4q2 13 13 15.5t20.5 -5t7.5 -20.5q-4 -22 -12.5 -65t-12.5 -64q-58 -260 -137 -490q-35 -100 -53.5 -149t-61.5 -126t-94 -128q-76 -76 -171.5 -102.5t-196.5 12.5q-168 75 -236 336q-119 460 -8 954q54 248 151 438q119 236 271 353q81 61 176 73q6 3 12 0
q102 7 164 -61q110 -115 41 -352q-4 -13 -15.5 -15.5t-20.5 5t-5 20.5q14 47 19.5 95.5t1 100t-31.5 92.5t-75 60q-38 14 -76 14q-35 -26 -86 -94q-47 -60 -108 -170q-132 -241 -195 -514.5t-57 -556.5q7 -275 78 -485q63 -176 157 -273q87 13 158 77t119 153
q33 60 64 139.5t47 127.5t46 146q68 227 111 455zM338 -408z" />
    <glyph glyph-name="D" unicode="D" horiz-adv-x="1454" 
d="M1032 35l-12 6q-111 -259 -238 -373q-22 -20 -46 -36t-52.5 -28t-58.5 -11t-56 18q-31 20 -46 55.5t-13.5 71.5t8.5 72q25 97 90 185.5t158 180.5q81 78 178 156q70 325 64 610q-4 258 -54 426q-30 101 -88.5 182.5t-142.5 112.5q-59 6 -117 0q-236 -19 -416 -147
q-104 -74 -166.5 -176t-54.5 -216q4 -49 16 -99t34.5 -118t29.5 -94q9 83 21 160q11 66 20 104q6 28 33 43q19 10 41 16t46 2t36 -22q14 -21 10 -63l-12 -99q-3 -29 -9.5 -86.5t-9.5 -85.5q-13 -147 -16 -264q-5 -173 20 -424q25 -225 29 -270q0 -1 1.5 -14t1.5 -17.5
t-1.5 -13.5t-5.5 -15q-11 -17 -37 -24q-48 -16 -84 12q-11 4 -14 15v6q-82 462 -74 809q0 23 4 73q-4 8 -4 13q-2 38 -12 84.5t-17 70.5t-26 82q-45 144 -47 228q-3 121 69 233q116 180 348 272q196 77 375 60q7 3 13 0q167 -20 276 -123q146 -138 188 -422
q37 -257 -18 -567q-6 -35 -18 -101q179 115 331 197q11 6 21 -1.5t10 -18t-10 -17.5q-96 -52 -223 -129q-86 -53 -142 -90q-51 -207 -131 -391zM811 -238zM848 1640zM639 -360l6 2h1l3 2q32 6 58 20q24 25 44.5 62t30.5 62t27 73q46 121 78 229q30 103 49 184
q-128 -103 -217 -206q-155 -176 -164 -308q-2 -20 2 -49q5 -19 14 -35q14 -25 45 -34q6 -2 7 -2h6h10z" />
    <glyph glyph-name="E" unicode="E" horiz-adv-x="1153" 
d="M266 1620v2q70 76 166.5 113.5t196.5 27.5h8q8 0 12 -2q81 -13 144.5 -64.5t97.5 -129.5q32 -70 30.5 -154t-40.5 -151q-8 -10 -19 -10t-18 9.5t0 20.5q38 70 35 149.5t-43 149.5q-66 115 -201 137q-112 -22 -189.5 -110.5t-103.5 -206.5q-25 -124 2 -275
q32 -171 117 -225l6 -6q10 -5 12 -15.5t-6 -19.5q-127 -124 -209 -262q-81 -137 -115.5 -293t-9.5 -305q24 -135 97.5 -248.5t187.5 -177.5q95 9 178 53q72 37 132.5 92t108 124t81.5 133.5t71 148.5q60 132 119 309q49 150 66 252q3 18 21 15q18 -4 20 -21v-6
q-21 -130 -86 -318q-65 -184 -150 -360q-201 -404 -506 -461q-101 -19 -197.5 6.5t-170.5 93.5q-143 132 -174 371q-39 282 79 526q61 126 158.5 216t222.5 126q-90 41 -149.5 134.5t-85.5 205.5q-25 109 2 216t102 190z" />
    <glyph glyph-name="F" unicode="F" horiz-adv-x="782" 
d="M-33 463l-2 4v6q-11 155 -8 332q3 179 27 354q24 183 77 309q22 53 54 103t75.5 98.5t93.5 78t108.5 40.5t119.5 -14q72 -28 104.5 -91.5t30.5 -146.5q-3 -156 -74 -328q-63 -156 -165 -301q-106 -153 -228 -227h-6v-12q-7 -217 4 -351q134 -17 322 89q200 110 321 286
q8 10 19 10t18 -9.5t0 -20.5q-127 -185 -336 -301q-165 -92 -286 -97q78 -75 149 -168q149 -192 123 -323q-9 -43 -38.5 -76.5t-70.5 -48.5q-56 -18 -107 -3t-93 56q-62 59 -111 180q-37 90 -65 218q-41 179 -56 354zM246 1395l12 30zM303 147q-63 72 -123 127
q18 -159 56 -317q19 -85 45 -158q23 -68 51 -100q47 -3 88 27q56 47 45 133q-15 121 -162 288zM555 1294l-4 2q63 183 45 312q-6 46 -31 82q-4 -4 -10 -4q-16 0 -31 -3q-8 -4 -16 -4q-55 -13 -94.5 -60t-75.5 -116q-61 -124 -102 -286q-50 -204 -64 -482q114 76 221 242
q108 160 162 317z" />
    <glyph glyph-name="G" unicode="G" horiz-adv-x="1146" 
d="M123 244l14 6q-121 62 -155 248q-64 335 43 692q55 180 135 311q94 156 209 232q62 42 131 45h10q72 0 115 -49t43 -120t-27 -143q-5 -12 -17 -14t-20.5 5.5t-3.5 19.5q12 34 18.5 69t5 73t-21 68t-57.5 42q-18 6 -37 6q-27 -19 -56.5 -52t-43.5 -54t-43 -64
q-215 -329 -240 -738q-14 -201 25 -354q32 -132 96 -209q123 11 209 156q56 94 129 282q47 121 94 293q0 9 -1.5 35t-1 40.5t5.5 34t17 32.5q32 34 117 51q6 2 14 -2q15 -4 15 -19q4 -61 0 -245q-3 -133 -13 -314q-4 -94 -8 -141q3 2 9.5 6t9.5 6q175 118 368 221
q12 6 22 -1t10 -17.5t-11 -17.5q-199 -108 -387 -234q-4 -3 -12.5 -9t-12.5 -9q-24 -284 -100 -482q-84 -221 -201 -278q-45 -23 -94 -14.5t-82 47.5q-71 85 -33 235q23 84 76 157.5t133 149.5q56 55 117 105q18 144 27 297q4 71 8 209q-50 -148 -88 -238q-26 -63 -38 -88.5
t-38 -76.5t-54 -85.5t-61 -62.5q-59 -49 -128 -62t-140 19zM729 1087v3l6 18q-6 -9 -6 -21zM350 -123h-2q-7 -54 8 -105.5t58 -72.5l12 -6q105 125 164 348q33 131 49 242q-71 -61 -117 -109q-153 -157 -172 -297z" />
    <glyph glyph-name="H" unicode="H" horiz-adv-x="1374" 
d="M678 565l-4 4q-2 29 -2 86v50v43q3 186 20 350q17 179 60 309q54 166 149 264q52 54 118.5 78.5t131.5 -0.5q125 -48 125 -233q-3 -157 -64 -332q-54 -156 -143 -305q-95 -161 -203 -238q-7 -221 0 -369q10 -182 31 -319q13 -84 33 -158q21 -75 43 -102q29 4 57.5 30.5
t42.5 49t33 59.5q15 27 29 57t24.5 53.5t24.5 61t21 55.5t21.5 62.5t18 56.5t19.5 63t18 58q82 266 115 401q3 13 14.5 15.5t20.5 -5t6 -20.5q-37 -154 -142 -479q-58 -180 -86 -250q-23 -59 -38.5 -94.5t-44 -84.5t-60.5 -83q-35 -36 -79 -45.5t-91 12.5q-51 26 -82 94
q-51 105 -80 273q-49 232 -59 495q-245 -121 -516 -139q4 -60 16 -196q31 -282 35 -332q0 -5 2 -19t2.5 -21.5t-1 -18.5t-5.5 -19q-12 -27 -43 -37q-63 -22 -107 16q-11 4 -14 15q-3 18 -9 55t-9 55q-84 504 -76 891q6 236 41 477q6 43 22 129q4 21 6.5 29t10 21.5
t20.5 21.5q29 18 74 25q54 11 76 -21q20 -27 12 -84l-12 -123q-20 -183 -23 -215q-17 -186 -22 -331q-3 -144 6 -285q272 18 516 143zM166 -209zM1196 1257q54 183 39 312q-6 42 -27 76h-8q-35 3 -64.5 -12.5t-52.5 -47t-37 -57t-30 -62.5q-57 -129 -88 -274
q-48 -211 -58 -500q93 73 187 242q94 167 139 323z" />
    <glyph glyph-name="I" unicode="I" horiz-adv-x="978" 
d="M-35 1055l-2 2q0 -20 -20.5 -20t-20.5 20q0 43 10 98q44 252 195 438q74 92 160 123q35 14 80 12.5t79 -22.5q26 -16 43.5 -50.5t23.5 -61.5t11 -68q15 -120 4 -328q-6 -127 -19 -267t-32.5 -317.5t-27.5 -265.5q-21 -258 -21 -368q0 -56 0.5 -80.5t8 -70.5t22.5 -73
t46 -34.5t58 6.5q33 16 70 71q62 86 129 226q151 315 244 682q3 13 14.5 15.5t20.5 -5.5t6 -21q-18 -68 -52 -178q-115 -372 -254 -620q-71 -124 -123 -174q-54 -51 -122 -41h-9q-48 9 -92.5 39t-68.5 71q-46 77 -54 223q-7 134 2 301.5t19 263.5t33 300q28 251 34 374
q9 178 7 246q0 85 -7 119q-12 51 -41 57q-2 0 -6 4q-107 -31 -202 -186q-146 -226 -146 -440z" />
    <glyph glyph-name="J" unicode="J" horiz-adv-x="917" 
d="M-29 1118l4 10q0 -20 -20.5 -20t-20.5 20q0 46 7 111q28 228 180 389q100 109 198 141h7q109 32 168 -55q52 -74 77 -250q19 -134 29 -295q22 -316 8 -598v-36q156 80 365 170q12 5 22 -3t9.5 -18t-11.5 -16q-12 -5 -33.5 -15.5t-33.5 -15.5q-187 -81 -322 -152
q-20 -265 -88 -465q-21 -63 -41.5 -110t-53.5 -101.5t-78.5 -91t-100.5 -51.5q-46 -13 -99.5 -6t-91.5 35q-86 61 -71 205q12 115 79.5 209t176.5 184q96 78 196 141v19q27 280 4 622q-16 239 -37 369q-32 183 -86 274q-31 -13 -98 -63q-76 -61 -133 -146
q-111 -171 -111 -391zM410 1622v-6v6v6v-6zM135 -291l4 4q31 -7 54 -4q2 3 6 9.5t6 9.5l6 7v-1l6 12q34 49 47 72q125 220 166 569q-101 -66 -188 -141q-103 -89 -163 -181.5t-59 -203.5q0 -59 29.5 -99.5t85.5 -52.5z" />
    <glyph glyph-name="K" unicode="K" horiz-adv-x="1146" 
d="M219 -221l-2 14q-12 -27 -43 -37q-62 -21 -106 17q-13 4 -15 14l-18 111q-84 504 -76 890q6 237 41 478q3 22 23 129q0 2 1 6q9 43 27 59l8 6q29 18 74 25q54 11 76 -21q20 -27 12 -84q-2 -20 -6 -60.5t-6 -61.5q-20 -183 -23 -215q-17 -186 -22 -332v-68q88 73 164 195
q37 59 109 196.5t118 206.5q31 46 54.5 78t61.5 72t73 64.5t81.5 40.5t94.5 14q13 -1 18 -11.5t0 -20.5t-18 -9q-122 5 -232 -121q-48 -54 -98 -131.5t-73 -119.5t-77 -145q-101 -191 -188 -282q79 16 147 -10q20 -8 39 -21t34 -24.5t32 -32t27.5 -32.5t25.5 -39t22 -38
t21.5 -42.5t18 -39t18 -42t16.5 -38.5q12 -28 47 -109.5t56 -125.5q26 -52 54.5 -88.5t68.5 -56.5q31 14 61 40q103 101 168 326q40 141 66 381q1 13 11.5 18t20 0t8.5 -18q-31 -285 -79 -432q-74 -231 -189 -322q-77 -64 -164 -49q-41 7 -72 33.5t-67 71.5
q-111 143 -211 342q-60 113 -96 157q-91 110 -168 90h-6q2 -155 24 -387q31 -288 35 -331q0 -5 2 -19t2.5 -21.5t-1 -18.5t-5.5 -19zM61 1380h-2q0 -12 2 0zM172 -102zM68 1421q-3 -7 -9 -41v0v6q4 21 9 35z" />
    <glyph glyph-name="L" unicode="L" horiz-adv-x="1261" 
d="M260 1640l-6 -8q21 84 162 80q9 5 20.5 0t12.5 -16q8 -86 10 -129q28 -463 -60 -983q-46 -258 -92 -418q38 10 115 29.5t115 29.5q287 74 442 154q261 136 321 315q4 12 15.5 14.5t20.5 -5t5 -19.5q-13 -44 -43 -92q-101 -155 -329 -262q-153 -73 -414 -142
q-43 -12 -129 -33t-129 -32q-42 -134 -88 -234q-62 -143 -152 -213q-7 -10 -16 -10l-12 -12q-45 -29 -95 -36t-100 15q-91 47 -57 174q29 101 112.5 174t196.5 117q24 11 55 21q94 392 115 805q11 218 8 467q0 43 -4 129q0 9 -2 29t-2.5 32.5t0.5 29t4 29.5zM-162 -330h-4
q44 -26 105 -12q33 7 73 35q66 195 109 368h-6q-55 -20 -102 -45.5t-92 -60.5t-75.5 -83t-40.5 -103q-14 -68 33 -99z" />
    <glyph glyph-name="M" unicode="M" horiz-adv-x="2082" 
d="M20 1382l-12 -12q4 20 6.5 28.5t10 21.5t20.5 20q27 16 74 24q55 11 76 -20q20 -27 12 -84l-12 -123q-20 -183 -23 -215q-17 -186 -22 -332q-8 -218 24 -522q2 -17 6 -49.5t6 -48.5q25 300 113 630q66 244 123 381q64 153 133 238q69 81 135 88q66 6 117 -59
q51 -66 74 -185q28 -134 32 -362q3 -200 -32 -469q143 483 221 702q97 273 172 404q20 35 30 51t34 45.5t46 44.5q43 35 94 48t103 -3q74 -28 105 -137q21 -78 25.5 -179.5t-1.5 -181.5q-4 -130 -29 -442q-22 -286 -24 -381q0 -17 -2 -106.5t-1 -122.5t3 -102t10 -121.5
t21 -104.5q28 7 47 18q64 36 116 142q167 342 263 772q3 13 14 15.5t20 -5t6 -20.5q-17 -78 -49 -197q-55 -193 -129 -381q-47 -116 -80 -182q-49 -103 -98 -146q-40 -36 -90.5 -51t-102.5 -1t-85 59q-22 31 -35.5 76.5t-17 76t-7.5 84.5q-10 166 13 471q6 87 20 261t20 261
q21 286 5 422q-4 41 -11 64q-2 5 -6 15.5t-6 15.5v6q-2 8 -10 20q-13 20 -27 27q-11 8 -26 4q-34 -8 -72 -64q-38 -48 -86 -147q-78 -161 -170 -438q-54 -161 -141.5 -460t-120.5 -403q-3 -8 -11 -12q-8 -17 -24 -14q-13 2 -41 -1.5t-48 1t-32 24.5q-10 17 -10 70q0 28 4 86
q6 58 23.5 164.5t21.5 132.5q23 165 31 307q10 161 4 303q-4 168 -53 260q-77 0 -164 -143q-67 -108 -127 -285q-62 -187 -105 -374q-86 -382 -92 -744q4 -38 -4 -55q-12 -27 -43 -37q-63 -21 -106 16q-12 4 -15 15q-3 19 -9 55.5t-9 54.5q-84 504 -76 891q6 236 41 477
q6 43 22 129zM709 72q5 -9 8 -11q2 -2 6 -2q-3 2 -14 13zM147 -229v-2q16 6 19 18q-6 -10 -19 -16z" />
    <glyph glyph-name="N" unicode="N" horiz-adv-x="1437" 
d="M55 -225l-8 -11l-18 111q-84 504 -76 891q6 236 41 477q6 43 22 129q4 21 6.5 29t10 21.5t20.5 21.5q27 16 74 24q55 11 76 -20q20 -27 12 -84l-12 -123q-20 -183 -23 -215q-17 -186 -22 -332q-8 -218 24 -522v-18q11 36 62.5 210t72.5 243.5t62 197t78 229.5
q97 273 172 404q20 35 30 51t34 45.5t46 44.5q43 35 94 48t103 -3q73 -28 104 -137q33 -124 25 -361q-4 -130 -29 -442q-22 -286 -24 -381q0 -23 -2 -107t-1.5 -121t3 -103.5t10 -120t20.5 -105.5q29 7 48 18q64 36 116 142q165 339 262 772q3 13 14.5 15.5t20.5 -5t6 -20.5
q-17 -78 -49 -197q-56 -193 -129 -381q-47 -116 -80 -182q-49 -103 -98 -146q-62 -56 -142.5 -58t-136.5 65q-22 31 -35 77t-16.5 75t-7.5 85q-11 173 12 471q6 87 20.5 261t20.5 261q20 281 4 422q-8 79 -30 117q-14 20 -27 27q-12 8 -27 4q-33 -7 -71 -64
q-38 -48 -86 -147q-78 -161 -170 -438q-54 -160 -141 -456t-121 -403q17 -142 22 -202q0 -5 2 -19t2.5 -21.5t-1 -18.5t-5.5 -19q-12 -27 -43 -37q-63 -21 -106 16q-12 4 -15 15zM172 1405l-4 2v6v4q1 -2 2 -6t2 -6z" />
    <glyph glyph-name="O" unicode="O" horiz-adv-x="1255" 
d="M76 1386h-4q73 165 192 226q88 46 195 43q127 -3 221 -76q112 -88 160 -268q85 -323 24 -715q245 19 441 121q12 6 22 -1.5t9.5 -18t-11.5 -17.5q-54 -29 -115 -51q-178 -64 -352 -76q-78 -442 -305 -723q-73 -88 -168.5 -133.5t-189.5 -7.5q-58 24 -111 84
q-139 165 -135 514q3 242 71 454q18 58 56 160q-52 115 -51.5 242t51.5 243zM631 27q130 233 182 522q-87 -3 -170 6q-252 24 -412 145q-79 -242 -79 -481q0 -225 90 -500q68 -12 135 19q79 37 138.5 111.5t115.5 177.5zM565 1595l-8 -4q-93 34 -199 8q-90 -21 -159 -89.5
t-104 -155.5t-40 -180q-6 -112 33 -218q46 108 98 211q2 7 11 11q4 4 10 4q117 4 166 -13q36 -12 41 -39q5 -7 0 -23t-8 -22.5t-12.5 -21t-12.5 -19.5q-82 -144 -139 -303q29 -22 51 -34q198 -124 502 -113h24q14 88 19 154q16 189 -4 358q-23 209 -86 326q-67 121 -183 163
z" />
    <glyph glyph-name="P" unicode="P" horiz-adv-x="1286" 
d="M1198 623l-4 12q-129 -8 -197 -14q-80 -131 -184 -240q-107 -114 -213 -148q-42 -17 -94.5 -9.5t-77.5 48.5q-21 40 -18.5 77.5t26.5 75t54 65.5t63 49q99 63 266 96q3 1 9.5 2t9.5 2q157 329 176 625q12 197 -33 307q-33 81 -94 125q-48 34 -131 67q-39 0 -117 -4
q-285 -21 -471 -151q-130 -89 -172 -199q-39 -103 -8 -238q8 -37 29.5 -106.5t25.5 -81.5q8 131 31 283q6 43 22 129q4 20 6.5 28.5t10 21.5t20.5 21q29 18 74 25q54 11 76 -21q20 -27 12 -84q-2 -20 -6 -60.5t-6 -61.5q-20 -183 -23 -215q-17 -186 -22 -332
q-8 -218 24 -522q31 -282 35 -332q0 -5 2 -19t2.5 -21.5t-1 -18.5t-5.5 -19q-12 -27 -43 -37q-63 -22 -107 16q-11 4 -14 15q-3 18 -9 54.5t-9 55.5q-78 458 -78 836v2q3 75 -8 141q-9 55 -36.5 142t-44 163t-9.5 146q14 132 114 233t240 160q124 52 262 70q162 21 278 6
q152 -20 244 -115q90 -93 119 -233q25 -125 0 -307q-21 -145 -74 -281q-44 -113 -94 -199q143 14 313 17q20 0 20 -20.5t-20 -20.5zM152 1423l4 -4v6q-4 0 -4 -2v0zM524 258l2 2q33 -3 70 10l6 6q36 27 67.5 62t60.5 83t44.5 77.5t44.5 87.5v6q-7 -2 -21.5 -6t-21.5 -6
q-129 -31 -217 -93q-72 -53 -92 -110q-16 -38 -1 -76.5t58 -42.5z" />
    <glyph glyph-name="Q" unicode="Q" horiz-adv-x="1255" 
d="M154 -291v4q-37 22 -70 60q-139 165 -135 514q3 242 71 454q18 58 56 160q-52 115 -51.5 242t51.5 243q73 165 192 226q88 46 195 43q127 -3 221 -76q112 -88 160 -268q85 -323 24 -715q245 19 441 121q12 6 22 -1.5t9.5 -18t-11.5 -17.5q-54 -29 -115 -51
q-178 -64 -352 -76q-78 -442 -305 -723q-77 -94 -170 -135q84 -13 158 -33q38 -11 75.5 -25.5t93.5 -38t74 -30.5q121 -46 254 -55q140 -7 218 51q14 12 25 -6q11 -19 -5 -31q-90 -68 -246 -57q-141 10 -252 53q-25 10 -78 32t-93 37.5t-79 26.5q-256 75 -538 39
q-18 -3 -20 15q-2 19 15 25q3 1 5 1q88 10 160 10zM20 588zM637 31q130 233 182 522q-87 -3 -170 6q-249 24 -411 146q-80 -245 -80 -482q0 -224 90 -499q70 -12 135 18q79 37 138.5 111.5t115.5 177.5zM68 1180l-9 -6q-6 -112 33 -218q47 108 98 211q2 7 11 11q4 4 10 4
q117 4 166 -13q36 -12 41 -39q5 -7 0 -23t-8 -22.5t-12.5 -21t-12.5 -19.5q-82 -144 -139 -303q29 -22 51 -34q198 -124 502 -113h24q14 88 19 154q16 189 -4 358q-23 209 -86 326q-67 121 -183 163q-92 34 -198 11q-90 -21 -159 -89.5t-104 -156t-40 -180.5z" />
    <glyph glyph-name="R" unicode="R" horiz-adv-x="1429" 
d="M90 1577v4q145 131 381 184q118 26 199 31v0q139 10 239 -20q82 -23 143 -76t95 -121t50 -149.5t13.5 -162t-20.5 -157.5q-51 -228 -248 -397q-135 -118 -334 -199q-119 -50 -284 -90q153 0 223 -27q36 -14 73 -37.5t61.5 -44t61.5 -53.5q43 -39 76.5 -66.5t85.5 -60.5
t96 -48.5t97 -15.5t100 23q35 37 64 88q35 57 88 164q72 158 112 346q3 13 14.5 15.5t20.5 -5t6 -20.5q-46 -221 -141 -408q-72 -141 -133 -208q-44 -47 -82 -72q-78 -49 -170.5 -65.5t-181.5 8.5q-41 12 -78 34.5t-73 57.5t-56.5 58.5t-57.5 68.5q-75 94 -129 137
q-66 54 -151 82q4 -67 16 -185q31 -288 35 -331q0 -5 2 -19t2.5 -21.5t-1 -18.5t-5.5 -19q-12 -27 -43 -37q-63 -21 -106 16q-12 4 -15 15q-3 18 -9 54.5t-9 55.5q-78 458 -78 836v2q3 49 -4 111q-7 64 -44.5 181.5t-45.5 174.5q-17 121 16 209q33 93 129 178zM16 1092v10
q4 -15 11.5 -40.5t13.5 -46t10 -38.5q8 134 31 289q6 43 22 129q4 20 6.5 28.5t10 21.5t20.5 21q29 18 74 25q54 11 76 -21q20 -27 12 -84q-2 -20 -6 -60.5t-6 -61.5q-20 -183 -23 -215q-17 -186 -22 -332q-3 -117 4 -264q198 42 348 102q132 92 195 168
q103 127 163.5 283.5t61.5 314.5q0 194 -94 309q-45 55 -106.5 88.5t-129.5 36.5q-155 -6 -307 -57q-229 -76 -338 -230q-99 -142 -27 -376zM248 -158v2q1 -2 2 -3zM889 -27h6h-6zM569 354v4q-1 0 -3 1t-3 1z" />
    <glyph glyph-name="S" unicode="S" horiz-adv-x="1044" 
d="M223 834l2 2q-57 53 -98 96.5t-83.5 100.5t-68 119.5t-32.5 129.5q-15 138 49 259.5t188 180.5q81 38 167 47t171 -18t146 -90q2 -2 2 -6q81 -78 94 -219q1 -13 -9 -18t-20.5 0t-11.5 18q-7 62 -25 108q-29 72 -93 110t-144 36q-92 -2 -172.5 -53t-120.5 -134
q-24 -50 -26 -105t12.5 -103.5t43 -98.5t61 -89.5t71.5 -78.5q32 -31 99 -91.5t106 -97.5t86.5 -96.5t76.5 -119.5q22 -43 33 -82q242 81 373 159q11 7 20.5 0t9.5 -17.5t-10 -18.5q-65 -38 -119 -62q-99 -47 -264 -104q50 -194 -16 -416q-39 -128 -116.5 -228.5
t-190.5 -150.5q-73 -32 -153.5 -37.5t-158.5 24.5t-122 97q-64 101 -21 252q35 129 137 217q82 72 186.5 121t245.5 96q-33 66 -88 135.5t-99.5 114t-117.5 111.5zM563 -129zM692 137h-2v-12l6 18q0 -2 -4 -6zM188 -287l-2 -2q143 -20 275 70q38 55 67 127q0 2 4 6
q45 115 52 237t-27 238q-5 18 -16 45q-9 -3 -28 -9t-28 -9q-62 -22 -102 -38t-99 -44t-99 -56t-81 -68.5t-67 -86.5q-35 -61 -47 -127t4 -135q18 -62 72 -100t122 -48z" />
    <glyph glyph-name="T" unicode="T" horiz-adv-x="1691" 
d="M1729 696h2q4 12 15.5 14.5t20.5 -5t5 -19.5q-13 -44 -43 -92q-101 -154 -330 -262q-153 -73 -414 -142q-43 -12 -129 -32.5t-129 -32.5q-42 -134 -88 -234q-75 -165 -182 -233q-45 -29 -95.5 -35.5t-99.5 15.5q-91 47 -57 174q29 101 112.5 173t196.5 117q39 16 66 25
q1 4 3 12.5t3 12.5q102 448 112 962q6 259 -12 514q-4 40 -4 62q-53 0 -80 -2q-215 -14 -373 -68q-191 -67 -274 -193q-8 -10 -19 -10t-18 10t0 21q88 134 281 205q108 40 237.5 60t245.5 20.5t246 -0.5q286 -5 381 0q106 3 190 14q28 4 92 16q7 2 21.5 6.5t21.5 6.5
q3 1 9.5 3t9.5 3l18 6q0 11 10 16q8 4 16 2t13 -10q6 -12 5 -22t-12.5 -18.5t-23.5 -14.5t-29 -11t-29 -8t-23 -5q-3 -1 -5 -1q-88 -18 -213 -28q-59 -4 -129.5 -5.5t-118.5 -1t-132.5 2.5t-122.5 2q8 -78 10 -117q28 -463 -60 -983q-46 -258 -92 -418q38 10 115 29.5
t115 29.5q287 74 442 154q262 136 322 315zM715 1688zM274 -322l-2 3q46 -27 105 -13q35 8 74 35q64 164 118 373l-18 -6q-272 -99 -309 -293q-14 -69 32 -99z" />
    <glyph glyph-name="U" unicode="U" horiz-adv-x="1210" 
d="M887 -272l6 -4q22 19 55 75q51 88 117 267q112 301 184 632q3 13 14.5 15.5t20.5 -5t6 -20.5q-3 -17 -16 -67q-90 -385 -209 -672q-67 -163 -123 -232q-34 -38 -65 -47q-48 -13 -93 10t-77 66q-53 74 -84 221q-18 81 -27 170q-12 117 -8 305q3 233 26 523q-2 -9 -6 -28
t-6 -28q-44 -171 -92 -315q-65 -186 -123 -297q-38 -71 -90.5 -121t-116.5 -45q-33 3 -61 23.5t-48 55t-31.5 62t-23.5 64.5q-38 116 -49 319q-12 172 -6 344q15 352 100 684q3 19 23 15q2 2 8 2q103 8 137 -41q8 -13 11.5 -28.5t1.5 -35.5t-4 -33t-8 -35.5t-7 -29.5
q-84 -415 -102 -674q-12 -172 -6 -344q0 -7 1.5 -43t2 -47.5t3 -43t6 -48.5t9 -42t14 -45t19.5 -38q44 -8 92 33q11 9 21.5 20t18.5 20.5t17.5 24.5t15.5 23.5t15 27t12.5 25.5t12.5 28t11 25.5t11.5 27.5t10.5 26q107 259 167 541.5t111 660.5q-4 15 10 20q77 33 119 23
q24 -5 42.5 -20t25.5 -38q6 -8 4 -30t-3 -31t-6.5 -31l-7.5 -30q-9 -43 -26 -142q-78 -464 -78 -958q0 -422 53 -707q41 -7 68 17zM100 238v-7v7z" />
    <glyph glyph-name="V" unicode="V" horiz-adv-x="1392" 
d="M1456 711l14 -6q20 0 20 -20.5t-20 -20.5q-63 0 -149 59q-132 88 -217 238q-56 -204 -92 -318q-91 -290 -191 -518q-85 -198 -172 -311q-25 -33 -43 -53.5t-48.5 -42.5t-61.5 -29q-39 -9 -77.5 8.5t-66.5 50.5q-39 44 -76 127q-29 60 -73 168q-122 321 -187 786
q-57 405 -51 838q0 6 4 10q0 14 13 17q88 27 141 16q34 -7 58.5 -33t33.5 -61q8 -27 8 -84v-98q0 -65 4 -191q17 -558 101 -997q52 -275 139 -514h6q10 2 12 2q9 3 11 4q65 30 137 139q84 127 162 320q93 221 176 495q40 128 92 324q-65 135 -80 289q-21 204 31 364
q24 80 71 127q77 77 134 33q11 -9 19 -20.5t11.5 -26.5t5.5 -27t0.5 -31.5t-2.5 -28.5t-4 -30.5t-4 -26.5q-19 -125 -57 -282q-45 -190 -86 -338q42 -79 88 -133q55 -64 117 -109q90 -65 149 -65zM145 1597v2v-6l-1 8q0 -1 1 -4zM8 1657zM1059 1174l-2 -5q11 -44 30 -94
q37 141 72 285q43 190 55 266q0 3 2 14.5t3.5 22t3.5 26.5t2.5 28.5t0 28t-4 24.5t-9 18t-14.5 9.5t-22 -1.5q-60 -18 -99 -110q-27 -65 -37 -154q-26 -190 19 -358z" />
    <glyph glyph-name="W" unicode="W" horiz-adv-x="2127" 
d="M2191 711l19 -4q20 0 20 -20.5t-20 -20.5q-64 0 -150 59q-132 88 -217 238q-56 -204 -92 -318q-93 -298 -190 -518q-85 -198 -172 -311q-25 -33 -43.5 -53.5t-49 -42.5t-61.5 -29q-39 -9 -77 8.5t-66 50.5q-39 44 -76 127q-35 71 -74 168q-121 317 -186 786
q-38 281 -47 555q-43 -277 -93 -483q-44 -171 -92 -315q-65 -186 -123 -297q-92 -175 -206 -166q-33 3 -61 23.5t-48 55t-31.5 62t-23.5 64.5q-38 116 -49 319q-13 182 -7 344q15 348 101 684q3 19 22 15q2 2 8 2q104 8 138 -41q8 -13 11.5 -28.5t1.5 -35.5t-4 -33t-8 -35.5
t-7 -29.5q-85 -423 -103 -674q-12 -172 -6 -344q0 -7 1.5 -43t2 -47.5t3 -43t6 -48.5t9 -42t14 -45t19.5 -38q44 -8 92 33q32 27 60.5 70.5t42 73t36.5 86.5q5 11 7 17q107 260 167 544.5t111 664.5v12q0 5 5 10q0 14 12 17q88 27 141 16q34 -7 58.5 -33t33.5 -61
q8 -27 8 -84v-98q0 -34 5 -191q17 -564 100 -997q52 -275 139 -514h6q11 2 13 2q6 2 10 4q65 30 137 139q84 127 162 320q93 221 176 495q40 128 92 324q-65 135 -80 289q-21 204 31 364q23 78 72 127q77 77 133 33q11 -9 19 -20.5t11.5 -26.5t5.5 -27t0.5 -31.5t-2.5 -28.5
t-4 -30.5t-4 -26.5q-19 -125 -57 -282q-45 -190 -86 -338q42 -79 88 -133q55 -64 117 -109q90 -65 149 -65zM934 1116v-18v18zM1798 1174l-2 -5q9 -37 31 -94q27 103 71 285q46 204 56 266q0 3 2 14.5t3.5 22t3.5 27t2 28.5t-0.5 27.5t-4 24.5t-9 18.5t-14.5 9.5t-22 -2
q-59 -18 -98 -110q-27 -65 -37 -154q-26 -192 18 -358z" />
    <glyph glyph-name="X" unicode="X" horiz-adv-x="1196" 
d="M1229 707h-2q2 13 13 15.5t20.5 -5.5t7.5 -21q-71 -389 -232 -712q-58 -118 -102 -168q-58 -67 -133.5 -98.5t-149.5 -4.5q-119 46 -231 207q-82 118 -146 293q-27 83 -57 184q-76 -124 -227.5 -371.5t-227.5 -371.5q-8 -10 -18.5 -10t-17.5 9.5t0 20.5q47 78 141 233.5
t141 233.5q32 52 96 157t95 157q-58 223 -103 497q-54 345 -78 789q0 10 7.5 15t17.5 3q132 63 199 13q17 -13 28 -31.5t16 -43.5t6.5 -44t1.5 -48.5t1 -41.5q22 -381 76 -834q109 178 325.5 534.5t325.5 534.5q8 10 19 10t18 -9.5t0 -20.5q-47 -78 -141.5 -233.5
t-141.5 -233.5q-67 -109 -199.5 -326t-199.5 -326l6 -36t6 -37q27 -202 55 -322q1 -3 3.5 -9t3.5 -9q77 -308 233 -498q18 -6 39 -6q62 0 118.5 40.5t96.5 100.5q42 66 98 193q133 297 193 631z" />
    <glyph glyph-name="Y" unicode="Y" horiz-adv-x="1167" 
d="M1219 702l10 -6q12 6 22 -1.5t9.5 -18t-11.5 -17.5q-19 -10 -55.5 -30.5t-54.5 -30.5q-183 -106 -299 -188q-16 -179 -54 -328q-32 -131 -84 -238q-60 -124 -137 -178q-56 -40 -121.5 -28t-99.5 73q-22 39 -27 85.5t5 92t27.5 87t41.5 79.5q86 136 256 271q23 199 35 598
q4 113 8 331q-43 -240 -90 -411q-47 -169 -94 -287q-65 -164 -125 -260q-37 -61 -89 -102t-112 -37q-31 2 -56.5 18t-44.5 44t-31.5 52t-24.5 56q-39 99 -54 280q-12 157 -6 314q12 307 100 618q6 18 25 14q2 2 8 2q95 8 131 -32q9 -10 14 -21.5t4.5 -27.5t-1.5 -24.5
t-5.5 -28.5t-5.5 -25q-2 -10 -13 -60.5t-14 -63.5t-13 -59t-13.5 -63.5t-11.5 -59t-11.5 -64t-10 -59.5t-10 -64t-7 -60t-6.5 -64q-12 -153 -6 -307q0 -3 1 -29.5t1.5 -33t2 -30.5t3.5 -33.5t5 -30t7 -32.5t9 -28.5t12 -30t16 -26.5q44 -8 96 28q10 7 19.5 16t17.5 17
t17 20.5t14.5 19.5t14.5 22.5t12 21.5l12 24l11 22t11.5 24t10.5 22q108 230 169.5 484.5t114.5 597.5q0 4 4 8q6 68 133 98q7 2 15 -2q14 -4 14 -18v-25q3 -132 -6 -528q-9 -411 -16 -527q-1 -9 -3.5 -27.5t-3.5 -27.5q176 118 388 233zM104 1507zM387 -47v-2
q-19 -44 -26.5 -93.5t7 -100.5t58.5 -74q2 -1 6 -3.5t6 -3.5q134 161 183 451q8 43 20 133q-66 -57 -117 -110q-98 -102 -137 -197z" />
    <glyph glyph-name="Z" unicode="Z" horiz-adv-x="1720" 
d="M1763 698h-18q6 11 16 11.5t18 -9.5t3 -22q-30 -68 -68 -133q-154 -265 -407 -439q-212 -142 -476 -194q-186 -37 -380 -25q-17 1 -50 3.5t-49 3.5q-5 -5 -15 -15.5t-15 -15.5q-135 -128 -248 -197q-73 -47 -131 -24q-30 12 -44 39.5t-8 60.5q12 62 70 107t129 69
q50 15 98 21q55 64 68 81q280 356 467 707q-127 30 -264 14q-145 -16 -197 -92q-8 -10 -19 -10t-18 10t0 21q54 81 183 106q127 23 266 4q22 -4 74 -16q4 8 12 24.5t12 24.5q235 471 238 846q-2 2 -6.5 6t-6.5 6q-93 96 -268 103q-145 6 -291 -33q-290 -75 -499 -293
q-13 -14 -28 1t-1 28q56 59 110 102q244 191 553 229q72 12 151 6.5t147.5 -24.5t128.5 -66.5t94 -119.5q35 -72 45 -156t-3.5 -172t-34 -160.5t-52.5 -159.5q-43 -118 -109 -251q10 -5 12 -5q148 -39 283 5q13 4 20.5 -5t5.5 -20.5t-14 -15.5q-126 -41 -258 -13
q-5 1 -67 17q-77 -146 -183 -303q-174 -264 -333 -431q7 -1 21.5 -3t21.5 -3q203 -15 399 25q295 62 516 235q129 101 232 232t167 278zM-72 -281v2q0 -36 33 -43q8 9 24.5 28t24.5 28l6 6q1 1 3.5 3t3.5 3q20 24 60.5 71t61.5 70h-8q-74 -17 -127 -53q-82 -59 -82 -115z
" />
    <glyph glyph-name="bracketleft" unicode="[" horiz-adv-x="444" 
d="M322 -88l6 -4q20 0 20 -20.5t-20 -20.5q-98 -3 -197 6q-11 0 -18 10q-2 2 -2 8q-2 88 -2 265q-1 236 1 709t1 710q0 6 4 14v0q8 4 14 4q33 0 98.5 2t98.5 2q20 0 20 -20.5t-20 -20.5h-93q5 -63 5 -229v-774q0 -53 -0.5 -156.5t-0.5 -167.5t1 -153t4 -164h80z" />
    <glyph glyph-name="backslash" unicode="\" horiz-adv-x="999" 
d="M895 -123l4 -4q5 -12 -3 -22t-18 -9.5t-16 11.5q-18 43 -54.5 129t-55.5 129q-265 620 -340 790q-205 475 -306 676q-6 12 1.5 22t18 9.5t17.5 -11.5q73 -151 152 -329q85 -191 354 -815q82 -190 246 -576z" />
    <glyph glyph-name="bracketright" unicode="]" horiz-adv-x="448" 
d="M344 449l8 10q4 -369 -2 -553q0 -6 -2 -8q-1 -1 -3 -3.5t-3 -3.5q-8 -4 -12 -4q-99 -9 -197 -6q-20 0 -20 20.5t20 20.5h80q4 100 4 301q0 267 -4 799v344q0 164 2 197h-92q-20 0 -20 20.5t20 20.5q33 0 98 -2.5t98 -2.5q9 0 15 -6v0q4 -8 4 -14v-387q1 -124 3 -371.5
t3 -371.5z" />
    <glyph glyph-name="asciicircum" unicode="^" horiz-adv-x="522" 
d="M346 1466v4q40 -73 70 -149q8 -20 -8 -29q-6 -3 -15 -1t-12 9q-26 64 -62 132q-13 26 -34 61q-3 5 -9.5 15.5t-9.5 15.5l-12 18q0 2 -2 4l-6 -12q-3 -6 -9.5 -18.5t-9.5 -18.5l-15 -33t-15 -34q-10 -23 -31 -71t-31 -71q-3 -7 -11.5 -9t-14.5 3q-17 10 -9 29q13 26 37 79
t37 80q6 14 18.5 40.5t18.5 39.5q19 47 47 43q7 -1 13 -5t11.5 -11t8.5 -11.5t8 -14t6 -11.5q38 -68 41 -74z" />
    <glyph glyph-name="underscore" unicode="_" horiz-adv-x="1161" 
d="M1038 -96q20 0 20 -20.5t-20 -20.5q-32 1 -148.5 5t-161 5.5t-144.5 3t-161.5 0t-144.5 -5t-157 -10.5q-13 -1 -18 9t0 20.5t18 11.5q74 7 157 10.5t144.5 5t161.5 0t144.5 -3t161 -5.5t148.5 -5z" />
    <glyph glyph-name="grave" unicode="`" horiz-adv-x="460" 
d="M348 1358h-2q10 -8 10 -19t-9.5 -18t-20.5 0q-141 81 -222 219q-7 11 0 21t18 10t19 -10q74 -127 207 -203z" />
    <glyph glyph-name="a" unicode="a" 
d="M793 670l-2 -11q4 12 15.5 14.5t20 -5t4.5 -19.5q-98 -289 -196 -475q-20 -38 -29.5 -55.5t-30.5 -49.5t-43.5 -51.5t-48.5 -31.5q-62 -28 -114.5 8.5t-71.5 103.5q-14 49 -18 154q-3 74 4 166v18q-16 -45 -43 -102q-9 -20 -19.5 -38t-25.5 -39.5t-30 -35.5t-34 -25.5
t-37.5 -10t-40.5 11.5q-11 0 -16 8q-8 8 -12 14q-35 38 -50 109q-17 76 -14 164q7 229 141 360q32 32 72 44t82 -1q54 -18 86 -70v6q9 43 18 58q14 22 43 33.5t58 11.5q31 1 40 -20.5t7 -57.5q-2 -33 -13 -95.5t-12 -70.5q-62 -381 -12 -657q42 21 82 86q39 62 96 186
q76 171 144 365zM324 743v-2q-22 84 -88 105q-35 -35 -72 -139q-26 -75 -39 -158q-25 -145 -8 -326q22 12 57 70q30 52 59 133q25 66 74 238q0 2 4 6q2 13 6.5 37t6.5 36zM403 16z" />
    <glyph glyph-name="b" unicode="b" horiz-adv-x="921" 
d="M958 690l-6 -6q13 2 21 -7.5t5.5 -20.5t-15.5 -13q-154 -24 -318 -137v-25q-10 -156 -53 -284q-53 -151 -133 -228q-40 -40 -92 -61q-37 -15 -69.5 6.5t-41.5 62.5q-15 64 41 187q40 88 100 166q28 35 52 59q29 263 -54 424q-100 -36 -168 -180q-70 -146 -73 -320
q1 -6 3 -18.5t3 -18.5q3 -34 -8 -63t-41 -37q-26 -8 -48 3t-26 36q-88 306 -78 657q4 169 21 296t67 239q24 53 59.5 101.5t85 89.5t104.5 51.5t118 -11.5q106 -44 102 -194q-3 -125 -61 -268q-52 -125 -133 -238q-85 -122 -181 -180q-2 -43 -2 -129q0 -90 2 -135
q24 113 84 215q43 71 106.5 117t135.5 42q188 -12 188 -307q159 105 303 129zM225 1573q-28 -20 -41 -33q13 13 41 33zM217 1288l4 2q-68 -201 -82 -483q90 60 168 182q84 129 127 250q49 142 39 248q-3 40 -24 67h-7q-85 5 -149 -98q-43 -73 -76 -168zM328 -53l4 -2
q48 75 72 163.5t40 206.5l-24 -30q-53 -74 -88 -158q-33 -83 -33 -118q0 -37 23 -56z" />
    <glyph glyph-name="c" unicode="c" horiz-adv-x="608" 
d="M623 682l4 -4q4 13 15.5 15.5t20.5 -5t5 -20.5q-67 -227 -146 -385q-70 -140 -145 -215q-39 -40 -86.5 -66t-103 -32t-105.5 24q-67 39 -94 156q-26 110 -23 231q5 149 58.5 284t158.5 216q26 20 54.5 33.5t62.5 18t61 -10.5q84 -42 31 -203q-4 -12 -15.5 -14.5t-20.5 5
t-5 19.5q41 126 -10 154l-6 -6q-29 -25 -62 -93q-27 -57 -43 -102q-37 -103 -55 -215q-36 -198 -12 -455h12q114 2 217 144q78 105 131 232.5t101 293.5z" />
    <glyph glyph-name="d" unicode="d" horiz-adv-x="925" 
d="M944 674l6 4q4 13 15.5 15.5t20.5 -5t5 -20.5q-35 -120 -88 -252q-60 -153 -92 -219q-21 -44 -37 -72t-44.5 -68t-62.5 -62t-71 -24q-4 -2 -12 -2q-17 0 -25 2q-50 10 -81 47t-54 95q-27 69 -47 157q-37 137 -49 287q-40 -129 -84 -217q-13 -28 -27.5 -51.5t-37 -50.5
t-45 -40t-51.5 -10t-56 29q-38 36 -56 109q-16 68 -16 157q2 103 34.5 196.5t98.5 162.5q65 69 139 55q9 0 13 -2h6q44 -14 73 -55v30q6 170 23.5 296.5t65.5 238.5q24 54 59 102.5t84.5 90t104.5 52.5t118 -10q109 -45 105 -192q-3 -129 -60 -270q-50 -121 -131 -238
q-88 -124 -186 -182q-7 -174 0 -287q9 -131 30 -256q14 -77 29 -127q15 -49 37 -78q24 3 47 21t35.5 34t30.5 44q46 68 90 176q97 233 143 389zM561 1210l-2 2q-43 -167 -53 -395q88 61 166 182q91 137 131 254q50 144 37 248q-3 36 -23 66h-6q-58 4 -97 -35t-73 -105
q-53 -106 -80 -217zM322 680l-5 4v2v68q-23 85 -84 108q-6 -7 -12.5 -15.5t-11 -15t-10 -18.5t-8 -17t-8 -19.5t-6.5 -17.5t-7 -19t-6 -17q-26 -75 -39 -158q-24 -144 -8 -323q30 16 61 71q36 57 66 136q36 87 78 231z" />
    <glyph glyph-name="e" unicode="e" horiz-adv-x="608" 
d="M623 682h2q4 13 15.5 15.5t20.5 -5t5 -20.5q-78 -261 -168 -424q-80 -145 -166 -211q-75 -57 -150 -60q-61 -3 -108.5 28t-69.5 87q-37 93 -41 227q-7 173 43 312q30 83 79 155.5t114 110.5q41 24 91.5 30.5t97 -13.5t63.5 -68q13 -38 6 -81.5t-29 -76.5
q-63 -95 -217 -55q-24 -79 -39 -162q-36 -198 -12 -455v-4q51 -1 104 30t94 75q68 75 131 209q70 146 134 356zM229 686l-2 2l-6 -12q143 -37 182 61q20 43 6.5 88.5t-61.5 59.5q-4 2 -12 2q0 -4 -2 -6q-29 -25 -62 -93q-27 -57 -43 -102zM68 59h6v2h-6v-2z" />
    <glyph glyph-name="f" unicode="f" horiz-adv-x="632" 
d="M662 676l-3 -10q13 14 28 -1t1 -28q-113 -113 -278 -172q-110 -38 -207 -41q58 -50 116 -121q124 -156 76 -266q-18 -44 -54.5 -72.5t-80.5 -27.5q-41 1 -80 24.5t-65 58.5q-31 44 -58 132q-5 14 -14 49v6q-8 23 -10 37q-34 118 -49 241q-9 53 -15 105v6q-11 129 -8 278
q4 168 20.5 295.5t65.5 239.5q19 42 45.5 82t62 77.5t76.5 60t87.5 30t95.5 -13.5q108 -44 104 -193q-3 -132 -59 -270q-50 -121 -131 -238q-87 -123 -187 -182q-7 -173 2 -283q113 -13 250 33q157 55 269 164zM195 1188v4q-41 -160 -52 -389q88 61 166 182q91 137 131 254
q50 144 37 248q-3 36 -22 65h-6q-58 4 -97 -34.5t-73 -104.5q-53 -102 -84 -225zM250 324h4q-31 33 -84 79q-3 3 -9 9.5t-9 9.5q13 -126 32 -225q12 -67 33 -127q19 -54 43 -82q2 -2 2 -6q13 0 19 2q36 7 61 41t27 71q4 96 -119 228z" />
    <glyph glyph-name="g" unicode="g" 
d="M803 686l6 4q16 13 30 -3q11 -14 -1 -25q-214 -172 -344 -289q-1 -18 -3.5 -49t-3.5 -45q-7 -104 -10.5 -149t-14 -131.5t-28.5 -153.5t-45 -130q-78 -179 -178 -209q-4 -2 -12 -2q-66 -13 -121.5 31.5t-69.5 112.5q-28 127 70 307q65 123 194 262q8 8 25 24.5t25 24.5
q10 150 10 271q-40 -110 -86 -197q-15 -28 -30.5 -52t-39.5 -50t-47.5 -38.5t-52.5 -7t-56 34.5q-35 37 -49 111q-17 76 -14 164q3 105 39 199.5t106 160.5q31 30 72.5 39.5t83.5 -4.5q39 -14 68 -47q-2 22 3 34.5t25 20.5q36 15 95 15h6q15 4 18 -15q31 -199 21 -477
q91 82 309 258zM254 440l-6 -2q50 114 84 234v80q-9 38 -33.5 68t-58.5 40q-35 -35 -72 -139q-26 -75 -39 -158q-25 -145 -8 -325q30 15 61 67q39 58 72 135zM283 -86l2 2q18 142 30 289q-4 -5 -12 -14.5t-12 -14.5q-117 -127 -180 -250q-100 -191 -52 -303
q13 -31 38.5 -53.5t56.5 -26.5q15 -3 30 0q71 152 99 371z" />
    <glyph glyph-name="h" unicode="h" horiz-adv-x="843" 
d="M860 678l-8 -4q3 13 14.5 15.5t20.5 -5t6 -20.5q-30 -125 -90 -283q-63 -164 -125 -285q-33 -75 -66 -112q-32 -49 -84.5 -67.5t-107.5 3.5q-33 14 -55.5 38t-33 58.5t-16 65t-3 75t5 69t8.5 65.5q5 38 13 78.5t18.5 93t15.5 78.5q12 61 18 123q4 46 4 67q0 33 -10 45
q-4 -4 -12.5 -12t-12.5 -12q-45 -52 -96 -152q-77 -148 -104 -311v-19q3 -34 -8 -63t-41 -37q-26 -8 -48 3t-26 36q-88 306 -78 657q4 169 21 296t67 239q24 53 59.5 101.5t85 89.5t104.5 51.5t118 -11.5q106 -44 102 -194q-3 -126 -61 -269q-51 -123 -133 -237
q-85 -122 -181 -180q-2 -43 -2 -129q0 -90 6 -179q0 -6 5 -36q35 127 98 239q127 230 262 223q37 -1 61 -24t29 -58q3 -21 -6 -86q-6 -39 -18.5 -116.5t-18.5 -116.5q-34 -230 -39 -287q-8 -87 -2 -131q4 -41 23 -57q6 -6 20 0q13 4 23 14q14 15 28 37t20.5 35t21.5 44.5
t18 37.5q138 290 190 516zM215 1288l4 2q-68 -201 -82 -483q90 60 168 182q84 129 127 250q49 142 39 248q-3 39 -25 67h-6q-85 5 -149 -98q-43 -73 -76 -168z" />
    <glyph glyph-name="i" unicode="i" horiz-adv-x="464" 
d="M483 670h-10q4 12 15.5 14t20.5 -5.5t5 -19.5q-120 -350 -233 -540q-15 -26 -31.5 -47.5t-39.5 -43.5t-46.5 -33.5t-52.5 -11.5t-58 17q-24 14 -41.5 37.5t-26.5 45.5t-15 55.5t-7.5 54t-3.5 55.5q-8 232 47 510q8 40 21 86q14 47 28 61q20 18 56.5 27t60.5 -2
q23 -12 23 -53q0 -21 -9 -86q-24 -145 -36 -254.5t-11.5 -246t21.5 -255.5q40 19 90 100q30 53 57 105q82 163 176 430zM72 1024l-2 6q-22 22 -25 51q-3 21 12 47q15 27 33 37q28 22 64 25q41 4 65 -23q19 -22 20.5 -54t-12.5 -56q-15 -24 -41.5 -38.5t-56.5 -14.5
q-34 0 -57 20zM156 1085h6h-6v0z" />
    <glyph glyph-name="j" unicode="j" horiz-adv-x="602" 
d="M631 686l4 4q16 13 30 -3q11 -14 -1 -25q-224 -180 -345 -289q-1 -17 -6 -94q-7 -104 -10.5 -149t-14 -131.5t-28.5 -153.5t-45 -130q-78 -179 -178 -209q-4 -2 -12 -2q-66 -13 -121.5 31.5t-69.5 112.5q-28 127 70 307q65 123 194 262l49 49q13 172 13 320q0 168 -6 252
q-1 16 -1 28t6.5 22t22.5 17q36 15 94 15h7q15 4 18 -15q31 -199 21 -477q91 82 309 258zM117 -86l2 2q21 166 31 289q-4 -5 -12.5 -14.5t-12.5 -14.5q-117 -127 -180 -250q-99 -190 -51 -303q13 -31 38 -53.5t56 -26.5q15 -3 30 0q71 152 99 371zM141 1028l-2 6
q-21 21 -24 51q-3 22 12 48q15 25 33 36q28 22 63 25q42 4 66 -23q19 -22 20.5 -54t-12.5 -56q-15 -24 -41.5 -38.5t-56.5 -14.5q-35 0 -58 20zM168 1067l4 -4q-4 4 -8 12q2 -4 6 -8l2 -4l2 -2h6zM164 1073z" />
    <glyph glyph-name="k" unicode="k" horiz-adv-x="956" 
d="M973 676l-8 6q3 13 14.5 15.5t20.5 -5t6 -20.5q-14 -68 -64 -201q-62 -160 -70 -178q-81 -193 -165 -293q-32 -39 -75 -63t-92.5 -21.5t-86.5 41.5q-36 38 -62 119q-24 75 -51 166q-66 237 -107 329q-46 -124 -75 -270v-18q3 -34 -8 -63.5t-41 -37.5q-26 -8 -48 3t-26 36
q-88 306 -78 658q4 168 21 295t67 239q24 53 59.5 101.5t85 89.5t104.5 52t118 -11q106 -44 102 -195q-3 -125 -61 -268q-51 -122 -134 -238q-86 -123 -180 -180q-2 -43 -2 -129q0 -89 6 -178q1 -7 3.5 -21.5t3.5 -21.5q37 140 88 252q91 202 194 305q27 27 61.5 48.5t74 35
t79.5 6t68 -38.5t33.5 -78t-5.5 -89.5t-32 -80.5q-38 -70 -102.5 -128.5t-141.5 -98.5q23 -31 35 -96q4 -24 8 -50.5t8.5 -59t7.5 -50.5q15 -106 35 -183t60 -143q1 1 4 3t4 3q44 27 100 113q68 106 139 283q86 219 105 309zM248 1479l-2 -4q-25 -40 -37 -76q7 20 22 49
q3 8 17 31zM213 1296l4 2q-68 -201 -82 -483q90 60 168 182q84 129 127 250q49 142 39 248q-3 40 -25 68h-6q-84 5 -149 -99q-43 -73 -76 -168zM260 631v-2q115 26 209 127q56 59 84 125q40 90 33 141q-99 -14 -197 -158q-78 -113 -129 -233z" />
    <glyph glyph-name="l" unicode="l" horiz-adv-x="575" 
d="M592 674h8q4 13 15.5 15.5t20.5 -5t5 -20.5q-35 -120 -88 -252q-60 -153 -92 -219q-21 -44 -37 -72t-44.5 -68t-62.5 -62t-71 -24q-4 -2 -13 -2q-16 0 -24 2q-50 10 -81 47t-54 95q-27 69 -47 157q-68 273 -58 604q4 112 9.5 185t25 172.5t53.5 177.5q19 42 45.5 82
t62 77.5t76.5 60t87.5 29.5t95.5 -14q108 -44 104 -192q-3 -132 -59 -270q-52 -125 -133 -238q-88 -124 -186 -182q-7 -174 0 -287q9 -131 30 -256q14 -77 29 -127q15 -49 37 -78q24 3 47 21t34.5 33.5t30.5 44.5q48 72 91 176q97 233 143 389zM211 1206l-2 2
q-43 -167 -53 -395q88 61 166 182q91 137 131 254q49 142 36 248q-3 37 -22 66h-6q-58 4 -97 -35t-73 -105q-53 -106 -80 -217z" />
    <glyph glyph-name="m" unicode="m" horiz-adv-x="1247" 
d="M1264 678l-7 -2q3 13 14.5 15.5t20.5 -5t6 -20.5q-30 -125 -90 -283q-63 -164 -125 -285q-34 -78 -65 -112q-32 -49 -85 -67.5t-108 3.5q-33 14 -55.5 38t-33 58.5t-16 65t-3 75t5 69t8.5 65.5q5 38 13 78.5t18.5 93t15.5 78.5q14 72 19 123q4 46 4 67q0 33 -10 45
q-4 -4 -12.5 -12t-12.5 -12q-45 -52 -96 -152q-89 -170 -113 -358q3 -11 -7.5 -20.5t-23.5 -2.5q-25 13 -41.5 40.5t-23 52t-13.5 59.5q-1 8 -2 12q-17 98 -20 211q-1 76 6 227.5t6 227.5q-35 -17 -67.5 -62t-51.5 -86q-49 -95 -100 -266q-39 -130 -61 -275v-12q0 -10 1 -46
t0.5 -54.5t-5.5 -46t-15 -47.5q-19 -38 -58.5 -49.5t-74.5 10.5q-21 0 -24 20q-16 229 -5 426q3 53 9 105q5 67 14 88q15 34 54 56t77 19q18 0 21 -16q5 -27 7 -59.5t2 -55t-0.5 -61.5t-0.5 -57v-13q15 66 43 150q22 64 35.5 98.5t39 87t52.5 90.5q19 27 44 49.5t54.5 37.5
t61.5 10.5t59 -31.5q41 -44 45 -127q2 -55 -2 -166q-4 -161 2 -242q28 72 57 121q127 230 262 223q37 -1 61.5 -24t29.5 -58q2 -6 1 -21.5t-1.5 -21.5t-3 -21.5t-3.5 -21.5q-6 -39 -18 -116.5t-18 -116.5q-34 -230 -39 -287q-8 -87 -2 -131q4 -42 22 -57q6 -6 21 0
q12 4 22 14q14 15 28 37t20.5 35t21.5 44.5t18 37.5q140 294 191 516zM14 154zM47 762l-6 -6zM551 434v6v6v-12zM772 27l4 -2q5 -14 17 -29q-1 1 -3.5 3t-3.5 3q-5 6 -14 25z" />
    <glyph glyph-name="n" unicode="n" horiz-adv-x="845" 
d="M860 678h-8q3 13 14.5 15.5t20.5 -5t6 -20.5q-30 -125 -90 -283q-63 -164 -125 -285q-33 -75 -66 -112q-32 -49 -84.5 -67.5t-107.5 3.5q-33 14 -55.5 38t-33 58.5t-16 65t-3 75t5 69t8.5 65.5q5 38 13 78.5t18.5 93t15.5 78.5q12 61 18 123q4 46 4 67q0 33 -10 45
q-4 -4 -12.5 -12t-12.5 -12q-45 -52 -96 -152q-86 -167 -110 -356q0 -55 -19 -92q-19 -38 -58.5 -49.5t-74.5 10.5q-22 0 -25 20q-16 221 -4 426q3 53 9 105q5 67 14 88q15 34 54 56t77 19q17 0 20 -16q5 -27 7.5 -60t2.5 -54t-0.5 -62.5t-0.5 -56.5v-148q36 115 92 213
q127 230 262 223q37 -1 61 -24t29 -58q3 -21 -6 -86q-6 -39 -18.5 -116.5t-18.5 -116.5q-34 -230 -39 -287q-8 -87 -2 -131q4 -41 23 -57q6 -6 20 0q13 4 23 14q14 15 28 37t20.5 35t21.5 44.5t18 37.5q138 290 190 516zM104 270v-6v12v-6zM477 -4v6v-6z" />
    <glyph glyph-name="o" unicode="o" horiz-adv-x="569" 
d="M598 688h4q11 8 20.5 1.5t10.5 -18t-8 -20.5q-108 -77 -248 -114q-16 -147 -92 -267q-15 -23 -31.5 -43t-39.5 -40.5t-46 -30.5t-51 -13t-54 13q-45 23 -73 100q-28 79 -25 160q5 95 53 198q-31 49 -25.5 104.5t42.5 102.5q58 74 145 74q58 1 99 -28.5t61 -78.5
t28.5 -100.5t6.5 -107.5q118 33 223 108zM293 379v2q32 76 41 149h-6q-96 -14 -174 5q-1 -3 -3.5 -9.5t-3.5 -9.5q-54 -176 -6 -326q44 13 92 82q36 52 60 107zM336 571h2v43q-4 148 -59 203q-50 50 -127 33q-39 -9 -69 -39t-42 -70q-11 -41 4 -79q4 8 12.5 24.5t12.5 24.5
q4 6 12 10q21 14 58 2.5t48 -31.5q19 -30 -4 -78q-3 -7 -9 -21.5t-9 -21.5q76 -17 170 0z" />
    <glyph glyph-name="p" unicode="p" horiz-adv-x="913" 
d="M950 690v2q13 2 21 -7.5t5.5 -20.5t-15.5 -13q-154 -24 -318 -137v-25q-10 -156 -53 -284q-53 -151 -133 -228q-40 -40 -92 -61q-37 -15 -69.5 7t-41.5 63q-15 64 41 186q40 88 100 166q32 40 51 59q30 265 -53 424q-100 -36 -168 -180q-32 -68 -49 -133
q-18 -144 -24 -289q-8 -250 14 -532q0 -7 2 -28t2 -31t-3.5 -26t-12.5 -28q-20 -29 -54.5 -33t-60.5 21q-18 18 -31 78q-35 172 -35 499q0 365 54 668q3 10 14 14h2q40 20 84.5 20.5t81.5 -26.5q23 -20 10 -76q-4 -13 -8 -43q1 2 3 6.5t3 6.5q43 71 106.5 117t135.5 42
q188 -12 188 -307q159 105 303 129zM319 -47l5 -2q47 75 71 163.5t41 207.5q-4 -5 -12 -15.5t-12 -15.5q-53 -74 -88 -158l-6 -16q-7 -16 -8.5 -20t-7 -20t-6.5 -23t-4 -21t-2 -22t2.5 -19t7 -19t13.5 -14z" />
    <glyph glyph-name="q" unicode="q" horiz-adv-x="778" 
d="M838 664l8 -5q-179 -308 -383 -473q56 -33 88 -116q47 -112 53 -232q4 -121 -24 -176q-19 -37 -54.5 -54t-74.5 -7q-78 21 -117 127q-33 85 -47 217q-21 210 2 473v31q-20 -54 -49 -115q-17 -36 -37 -65.5t-49 -57.5t-63.5 -27t-67.5 37q-35 38 -50 109q-17 76 -14 164
q7 229 141 360q32 32 72 42.5t82 -3.5q53 -20 86 -74q2 9 6 27.5t6 27.5q3 11 15 15q21 17 45.5 30t52.5 12.5t41 -24.5q3 -7 5 -14.5t2.5 -13t-1 -15t-2 -13.5t-3.5 -15t-3 -13q-21 -100 -23 -116q-41 -240 -47 -478q190 152 367 455q8 10 19 10t18 -9.5t0 -20.5zM322 670
l-3 2q2 13 6.5 37t6.5 36q-10 38 -33.5 68.5t-56.5 40.5q-7 -7 -13.5 -15.5t-13 -20t-10.5 -19t-10 -22t-8 -20l-8 -22t-7 -18.5q-26 -75 -39 -158q-25 -145 -8 -326q24 12 59 70q35 60 64 133q27 71 74 234zM518 45v-2q-32 82 -78 109q0 -54 4 -160q6 -123 23 -228
q11 -76 27 -120q40 10 55 57q20 59 12 170q-10 94 -43 174z" />
    <glyph glyph-name="r" unicode="r" horiz-adv-x="667" 
d="M684 670l4 2q7 18 27 14q19 -4 15 -21q0 -1 -1 -3q-95 -250 -156 -386q-48 -109 -94 -192q-52 -99 -106 -135q-77 -50 -142 -17q-55 26 -59 123q-4 76 8 219.5t13 165.5q0 4 2 30t1.5 36.5t-2.5 30t-9 33t-19 24.5q-24 21 -64 35h-6l-18 6q-3 1 -9.5 3t-9.5 3
q-53 19 -71 43q-29 36 -39 88q-13 59 -1.5 122.5t46.5 113.5q28 39 66 59.5t75 -0.5q66 -38 53 -152q-12 -85 -67 -163q21 -7 57 -15q9 -2 39.5 -8t50.5 -12.5t37 -16.5q50 -28 60 -63q3 -11 5 -23.5t2 -26.5v-24t-2 -27.5t-3 -24.5t-3.5 -26.5t-3.5 -23.5q-5 -34 -14 -82
t-15.5 -84t-13.5 -82t-10 -84t-2.5 -82t6.5 -84q2 1 6.5 3t6.5 3q21 9 40.5 28t30.5 35t27 42q49 88 100.5 201.5t79.5 183.5t82 211zM86 766l2 -2q68 89 68 174q0 37 -17 69.5t-51 20.5q-32 -12 -61 -59q-1 -1 -3.5 -3t-3.5 -3q-17 -108 19 -160q18 -24 47 -37z" />
    <glyph glyph-name="s" unicode="s" horiz-adv-x="628" 
d="M662 682l-3 2q12 6 22 -1.5t10 -18t-11 -17.5q-256 -137 -363 -217q28 -44 43 -80q75 -177 27 -342q-23 -77 -71 -141t-115 -98q-82 -42 -146 -15q-66 28 -96 99q-23 51 -14 112q19 143 137 293q38 50 80 92q-14 21 -30.5 43.5t-37 49.5t-31.5 42q-58 79 -77 127
q-22 54 -19 118.5t29 115.5q41 78 131 104q88 24 156 -12q46 -24 64.5 -78.5t-9.5 -99.5q-8 -10 -19 -10t-18 9.5t0 20.5q16 27 7.5 61t-34.5 52q-31 22 -73 25t-90 -17q0 -1 -5 -6q-62 -64 9 -199q16 -33 80 -110q74 -87 100 -121q115 84 367 217zM240 41l-4 -4
q31 133 -54 278q-75 -75 -125 -159q-43 -70 -65 -152q-21 -85 4 -133v0q9 -19 31 -31q36 -22 74.5 -1t70.5 61q49 61 68 141z" />
    <glyph glyph-name="t" unicode="t" horiz-adv-x="573" 
d="M1151 1360l4 -4q9 8 20.5 3.5t14 -14t-5.5 -18.5q-142 -111 -344 -143q-156 -23 -369 -2q-52 -125 -133 -238q-88 -124 -186 -182q-7 -174 0 -287q9 -131 30 -256q14 -77 29 -127q15 -49 37 -78q24 3 47 21t34.5 33.5t30.5 44.5q48 72 91 176q97 233 143 389
q4 13 15.5 15.5t20.5 -5t5 -20.5q-35 -120 -88 -252q-60 -153 -92 -219q-21 -44 -37 -72t-44.5 -68t-62.5 -62t-71 -24q-4 -2 -13 -2q-16 0 -24 2q-50 10 -81 47t-54 95q-29 75 -48 157q-67 269 -57 604q8 231 35 361q-379 15 -582 -162q-9 -9 -20.5 -4.5t-13.5 14t6 19.5
q131 114 333 155q135 25 289 19q19 70 45 133q19 42 45.5 82t62 77.5t76.5 60t87.5 30t95.5 -13.5q108 -44 104 -193q-3 -114 -45 -229q82 -10 174 -8t175.5 13.5t168 45t152.5 86.5zM319 989l-2 2q66 98 107 197q-36 4 -107.5 13t-107.5 13q0 -2 -1 -6t-1 -6
q-43 -167 -53 -395q86 60 165 182zM446 1247q50 144 37 248q-3 37 -22 66h-6q-58 4 -97 -35t-73 -105q-43 -85 -66 -166q37 -4 110.5 -13t110.5 -13z" />
    <glyph glyph-name="u" unicode="u" horiz-adv-x="796" 
d="M813 670l-4 -11q4 12 15.5 14.5t20.5 -5t5 -19.5q-96 -284 -197 -475q-21 -40 -29.5 -56t-29.5 -48.5t-43.5 -52t-48.5 -31.5q-62 -28 -115 8.5t-72 103.5q-14 49 -18 154q-3 74 4 166q4 56 8 86q-5 -13 -15 -37t-15 -37q-38 -97 -68 -149q-14 -28 -22.5 -43t-26.5 -36
t-37 -30q-45 -22 -87 3.5t-56 72.5q-19 63 -19 168q0 86 10 188q9 92 15 119q11 45 41 61q22 13 54 16t54 -9q20 -13 21.5 -46.5t-4.5 -54.5q-3 -33 -11.5 -98t-11.5 -98q-9 -132 0 -265q14 14 33 47q46 81 102 240q58 162 84 260q2 9 6 27.5t6 27.5q8 41 19 58
q14 22 42.5 33.5t57.5 11.5q31 1 40 -20.5t7 -57.5q-2 -24 -6 -52t-9.5 -62t-8.5 -52q-62 -381 -12 -657q41 20 81 86q43 68 97 186q72 161 143 365zM346 135h2q4 -26 8 -37q-8 23 -10 37z" />
    <glyph glyph-name="v" unicode="v" 
d="M803 684v-4q11 14 25 1q16 -14 3 -30q-34 -43 -83 -67q-119 -62 -224 -45q-6 0 -18 4q-5 -21 -15.5 -62t-15.5 -61q-39 -162 -115 -299q-20 -35 -35 -58t-41 -52.5t-56.5 -40.5t-63.5 -3q-91 21 -141 172q-43 123 -54 316q-8 134 -2 288q3 27 28.5 42.5t55 15.5t53.5 -6
q48 -19 48 -78q0 -25 -5 -148q-2 -100 -2.5 -189t14.5 -188t48 -182q27 7 55 43q35 40 80 123q73 148 125 381q-67 30 -107 98q-81 138 -36 338q20 90 67 127q41 29 82.5 13.5t61.5 -60.5q17 -37 24 -78t3 -97.5t-6.5 -80.5t-12.5 -90q-4 -24 -29 -141q44 -11 96 -2
q131 22 193 100zM496 705l2 6q8 48 12 76.5t8 72t2.5 81.5t-8.5 73q-14 79 -57 86q-25 5 -49 -23q-36 -40 -48 -133q-27 -197 64 -301q25 -28 55 -43q3 17 9.5 52t9.5 53z" />
    <glyph glyph-name="w" unicode="w" horiz-adv-x="1148" 
d="M1180 684v-6q11 14 25 1q16 -14 3 -30q-34 -43 -84 -67q-119 -61 -223 -45q-6 0 -18 4q-5 -21 -15.5 -62t-15.5 -61q-39 -162 -115 -299q-20 -35 -35 -58t-41 -52.5t-56.5 -40.5t-63.5 -3q-92 21 -142 172q-42 120 -53 316q-4 90 -4 135q-12 -37 -59 -160
q-38 -97 -68 -149q-14 -28 -22.5 -43t-26.5 -36t-37 -30q-45 -22 -87 3.5t-56 72.5q-19 63 -19 168q0 86 10 188q9 92 15 119q11 45 41 61q22 13 54 16t54 -10q20 -13 21.5 -46t-4.5 -54q-3 -33 -11.5 -98t-11.5 -98q-9 -133 0 -265q14 14 33 47q46 81 102 240
q60 160 74 219v4v6q3 27 28.5 42.5t55 15.5t53.5 -6q47 -19 47 -78q0 -50 -4 -148q-2 -100 -2.5 -189t14.5 -188t48 -182q27 7 55 43q35 40 80 123q73 148 125 381q-67 30 -107 98q-82 139 -37 338q20 89 68 127q41 29 82 13.5t61 -60.5q22 -48 26 -117t-0.5 -108.5
t-16.5 -120.5q-4 -23 -29 -141q44 -11 96 -2q131 22 193 100zM86 201v4h6v0q-4 -4 -6 -4zM539 12zM872 707l2 6q9 51 12.5 76.5t8 71t3 83t-8.5 72.5q-14 79 -58 86q-25 5 -49 -23q-34 -39 -47 -133q-27 -197 64 -301q25 -28 55 -43z" />
    <glyph glyph-name="x" unicode="x" horiz-adv-x="888" 
d="M907 678l6 12q4 12 15.5 14.5t20.5 -5t5 -19.5q-80 -241 -155 -399q-82 -175 -205 -218q-72 -26 -139 -0.5t-107 91.5q-25 40 -63 139q-122 -214 -164 -289q-7 -10 -17.5 -10t-18 10t-1.5 21q46 83 182 319q-40 108 -47 129q-47 144 -59 184q-2 5 -6 21.5t-7.5 27t-11 22
t-16.5 15.5q-12 5 -25 -6.5t-19 -23.5t-12 -27q0 -4 -2 -6q-10 -13 -24 -2q-15 7 -12 22q15 68 56.5 129.5t98.5 81.5q41 14 67 -5t46 -62q33 -74 72 -219q3 -13 9 -37.5t9 -36.5q37 64 111.5 193.5t111.5 193.5q8 10 19 10t18 -9.5t0 -20.5q-41 -70 -123 -212t-123 -212
q9 -33 47 -154q55 -163 113 -252q75 20 122.5 79t88.5 150q71 156 139 361z" />
    <glyph glyph-name="y" unicode="y" horiz-adv-x="849" 
d="M879 686l12 -8q9 8 20.5 3.5t14 -14t-5.5 -18.5q-224 -180 -345 -289q-1 -17 -6 -94q-7 -104 -10.5 -149t-14 -131t-28.5 -153t-45 -130q-78 -179 -178 -209q-4 -2 -12 -2q-66 -13 -121.5 31t-69.5 112q-28 128 70 308q65 123 194 262l49 49q13 172 13 319q0 111 -2 166
q-3 -10 -10.5 -30.5t-10.5 -30.5q-54 -155 -100 -258q-59 -134 -92 -180q-44 -68 -82 -78q-32 -9 -65 4.5t-50 42.5q-15 25 -23.5 62t-10.5 61t-3 67q-3 106 10 228q0 4 2 26t3 31.5t4.5 26.5t8.5 29.5t13 23.5q18 26 62 33q48 5 63 -2q27 -12 27 -54q1 -39 -9.5 -111.5
t-11.5 -86.5q-16 -163 -4 -314q5 5 37 50q23 38 39 71q35 72 82 195q78 202 108 325q0 1 1 3.5t1 3.5q3 19 27 28q36 15 94 15h6q16 4 19 -15q31 -194 20 -477q83 74 310 258zM373 -98l2 2q21 166 31 289q-4 -5 -12.5 -14.5t-12.5 -14.5q-117 -127 -180 -250
q-99 -190 -51 -303q13 -31 38 -53.5t56 -26.5q15 -3 30 0q71 152 99 371zM457 852l2 -2v6h-2v-2v-2z" />
    <glyph glyph-name="z" unicode="z" horiz-adv-x="722" 
d="M758 688l-2 8q11 8 20.5 1.5t10 -18t-8.5 -20.5q-143 -108 -256 -221q43 -83 47 -207q4 -142 -39.5 -282t-128.5 -256q-106 -147 -211 -129q-64 11 -93.5 70.5t-24.5 129.5q8 129 94 277q65 115 168 246q11 15 57 67q-10 41 -35 66q-35 35 -127 31h-6q-9 -6 -18 0
q-10 3 -14 13t4 21q1 1 3 3.5t3 3.5q57 114 82 219q24 100 18 143q-10 53 -53 68q-31 -16 -60 -45q-89 -86 -120 -207q-3 -13 -14.5 -15.5t-20.5 5t-6 20.5q35 129 129 223q106 102 204 72q45 -13 75 -53.5t36 -90.5q10 -98 -76 -215q-24 -36 -61 -73q78 3 129 -39
q22 -15 37 -37q116 116 258 221zM377 33v4q21 132 18 266q-5 -6 -15 -18.5t-15 -18.5q-84 -108 -148 -213q-80 -136 -98 -246q-4 -39 -3.5 -82.5t24 -79.5t67.5 -40q131 164 170 428z" />
    <glyph glyph-name="braceleft" unicode="{" horiz-adv-x="655" 
d="M539 1620l4 4q10 -1 13.5 -9t0.5 -16q4 -12 -4 -20q-12 -13 -22 -27t-18 -34t-13 -30.5t-12 -37t-9 -33t-9 -38t-7 -33.5q-45 -201 -64 -269q-61 -219 -149 -307q30 -8 55.5 -37t40.5 -65q45 -100 62 -244q4 -38 10.5 -127t13.5 -137q6 -44 9.5 -65.5t13.5 -61t27 -66
t42 -43.5q14 -11 6 -28q0 -19 -18 -19q-72 5 -120 26t-73 74q-17 36 -28 86t-14 80.5t-7 89.5q-3 49 -5 147.5t-5 147.5q-4 90 -24 129q-15 29 -42.5 41t-56.5 -4q-9 -6 -19.5 0t-12.5 15.5t6 17.5q81 63 127 211q33 104 67 279q3 16 14.5 84.5t22 111t27.5 82.5
q25 59 69 96t101 29zM467 -72h-6h6z" />
    <glyph glyph-name="verticalbar" unicode="|" horiz-adv-x="268" 
d="M166 1729l2 -5q0 -148 -4 -448q-2 -109 -10 -500t-8 -499.5t1 -499.5q0 -20 -20.5 -20t-20.5 20q-2 143 -2 430q1 238 11 746.5t10 775.5q0 20 20.5 20t20.5 -20z" />
    <glyph glyph-name="braceright" unicode="}" horiz-adv-x="657" 
d="M547 717v-4q13 -10 1 -26t-26 -7q-29 16 -56 3t-42 -42q-19 -36 -23 -131q-3 -48 -5 -144.5t-5 -144.5q-4 -60 -7 -91.5t-14.5 -82t-29.5 -86.5q-25 -52 -72.5 -72.5t-117.5 -25.5q-19 0 -19 18q-9 17 6 29q19 14 34.5 37t23.5 43t15.5 54.5t9.5 49.5t7 51q7 48 14 138
t11 127q17 146 61 243q15 36 41 65.5t56 37.5q-89 89 -150 307q-16 56 -63 268q0 2 -6.5 29.5t-7.5 32.5t-7.5 29.5t-9.5 33t-10.5 28t-14 30.5t-16 25t-19.5 26q-8 8 -4 20q-3 8 1 16t14 9q58 8 102.5 -30t69.5 -99q17 -39 27.5 -81t21 -108.5t14.5 -85.5q32 -165 68 -278
q46 -148 127 -211zM354 641v0v0z" />
    <glyph glyph-name="nonbreakingspace" unicode="&#xa0;" horiz-adv-x="561" 
 />
    <glyph glyph-name="exclamdown" unicode="&#xa1;" horiz-adv-x="446" 
d="M299 961l2 -3q77 -479 14 -1108q-3 -18 -22 -18q-8 -8 -14 -8q-75 -4 -113 -2q-37 4 -47 28q-8 19 6 64q3 14 9 40.5t9 39.5q56 271 66 635q9 303 -16 626v7q-1 7 2 13t8 8.5t11 3t10.5 -3.5t6.5 -11q44 -154 68 -311zM160 1354h-4q-24 -3 -41 14q-30 35 -4 82
q10 20 28 29t41 6q19 -3 33 -17q14 -17 14 -43t-8 -45q-5 -11 -16 -18.5t-23 -7.5q-6 0 -8 2q-4 -2 -12 -2z" />
    <glyph glyph-name="cent" unicode="&#xa2;" horiz-adv-x="921" 
d="M778 705l2 -9q3 13 14.5 15.5t20.5 -5t6 -20.5q-40 -160 -108 -315q-19 -41 -31.5 -66.5t-33.5 -59.5t-45.5 -59.5t-53.5 -44.5q-88 -59 -189 -47q-8 -43 -24.5 -129t-24.5 -129q-2 -13 -13 -15.5t-20.5 5t-7.5 20.5q8 43 24.5 129t24.5 129q-2 1 -6 2.5t-6 2.5
q-108 41 -155 165q-46 133 -45.5 272.5t43.5 272.5q43 132 120 241t185 161q46 22 94 28q6 29 18.5 88.5t18.5 89.5q3 13 14.5 15.5t20.5 -5t6 -20.5q-6 -28 -18.5 -83.5t-18.5 -82.5q54 -7 88 -34q27 -23 38 -57.5t7.5 -68t-16.5 -67.5q-7 -18 -27 -14q-19 4 -15 21
q0 1 1 3q12 38 14 73t-18.5 63.5t-61.5 37.5q-6 2 -18 2q-5 -23 -15.5 -70.5t-15.5 -70.5q-107 -516 -178 -885q18 -25 43 -43q105 15 178 111q50 67 108 215q44 112 76 238zM342 223h2q100 521 193 959q-49 -39 -99 -111q-175 -242 -172 -536q0 -185 76 -312z" />
    <glyph glyph-name="sterling" unicode="&#xa3;" horiz-adv-x="1046" 
d="M942 1167l4 -4q5 -12 -3 -22t-18 -9.5t-16 11.5q-38 90 -113 151t-167 68q-1 0 -2 -1t-2 -1q-104 -58 -138 -260q-9 -50 -12 -113t-3 -99t3 -120t4 -104q99 0 148 -2q20 0 20 -20.5t-20 -20.5q-49 2 -148 2v-62q-4 -324 -127 -520q46 -2 115.5 -9.5t119 -13t113.5 -5
t117 9.5q13 2 20.5 -7.5t5 -20.5t-15.5 -13q-79 -12 -175.5 -7t-176 17t-176 12t-174.5 -22q-17 -5 -24 13t10 25q31 14 55.5 47.5t37.5 62.5t28 71q3 8 4 12q48 127 57 254q4 53 0 160h-105q-20 0 -20 20.5t20 20.5h105v30q-1 40 -4 120t-4 120q-4 123 11.5 212.5
t74.5 156.5q56 64 142 88.5t171 3.5q86 -21 154 -84t104 -148zM203 37z" />
    <glyph glyph-name="currency" unicode="&#xa4;" horiz-adv-x="854" 
d="M745 1001l-12 13q-59 -47 -110 -111q33 -52 47 -102q16 -60 4 -164q-13 -114 -72 -199q64 -51 103 -114q10 -17 -9 -29q-17 -10 -28 8q-11 19 -21 31v0l-6 6l-12 12q-24 28 -49 47q-75 -81 -185 -90q-105 -7 -176 39q-45 -72 -69 -106q-11 -19 -27 -9q-6 3 -8 12t2 15
q32 41 73 111q-67 69 -79 225q-11 131 34 223q20 44 60 84q-52 47 -92 115q-4 8 -2 16t10 13q17 10 29 -9l18 -30q2 -2 6 -6.5t6 -6.5v0l6 -6q14 -18 47 -51q3 0 3 -4q68 55 149 67q6 3 8 3q8 2 27 2h4q110 0 186 -82q46 54 107 106q14 14 28 0q6 -5 6 -15t-6 -14zM197 432
l2 4v-6zM637 723h-8q0 58 -15 102q-25 71 -80 114t-128 44h-5h-18q-126 -95 -139 -262q-7 -106 12 -191l6 -24q22 -79 70 -139q58 -6 117 10q91 26 149 143q39 79 39 203z" />
    <glyph glyph-name="yen" unicode="&#xa5;" horiz-adv-x="950" 
d="M829 483h7q12 -4 14 -15.5t-5.5 -20.5t-19.5 -5q-40 14 -86 17q-13 -82 -30 -152q-31 -126 -86 -211q-74 -112 -160 -102q-15 3 -19 18q-4 10 5 19q99 114 135 327q6 33 14 99q-27 -2 -68 -13q-13 -3 -20.5 6t-5 20.5t15.5 14.5q44 12 86 15q1 8 3 24.5t3 24.5
q-46 -4 -73 -8q-13 -2 -21 7.5t-5.5 20.5t15.5 13q59 8 86 10q12 136 19 348q1 27 3 80t3 80q-28 -139 -57 -238q-31 -109 -70 -207q-60 -141 -90 -188q-27 -43 -65 -72t-81 -28q-71 2 -116 116q-29 68 -41 201q-9 117 -6 234q9 233 73 456q6 15 21 15h6q75 4 102 -31
q7 -9 10 -19t1.5 -23.5t-2.5 -20.5t-5.5 -24t-5.5 -20q-50 -233 -57 -284q-23 -161 -23 -295q0 -60 7 -142q8 -85 34 -124q35 -5 74 30q13 11 24 24t22.5 33.5t16 29t17.5 36.5t14 31q75 163 118 343t81 425v6v6q11 51 102 70q7 2 15 -2v0q10 -3 10 -17q3 0 2 -107l-2 -108
q-4 -360 -12 -540q-1 -12 -3 -37t-3 -37q50 -4 79 -8q21 -4 21 -21q0 -8 -7 -14.5t-14 -5.5q-30 4 -86 8q-1 -8 -3 -24.5t-3 -24.5q41 -3 92 -19zM678 1356z" />
    <glyph glyph-name="section" unicode="&#xa7;" horiz-adv-x="1097" 
d="M745 1694l-4 2q-140 21 -219 -66q-55 -60 -76 -145t-6 -168q18 -100 84 -178q13 -16 29.5 -32.5t30 -28.5t35.5 -29.5t32 -25.5t36.5 -27t33.5 -25q9 -7 40 -29.5t45 -34t38 -30.5t42 -37t34 -37q78 -93 53 -213q-21 -99 -98.5 -174.5t-178.5 -104.5q78 -141 70 -288
q-7 -130 -53 -222q-39 -82 -111.5 -129.5t-165.5 -56.5q-98 -14 -192 31t-146 131q-7 11 0 20.5t18 9.5t19 -10q41 -69 120 -109t159 -34h6h24q75 13 123 67q54 60 75.5 145.5t6.5 168.5q-18 100 -84 178q-13 16 -30 33t-28.5 27.5t-36 30t-31.5 25t-37 28t-33 24.5
q-9 7 -40 29.5t-45 34t-38 30.5t-42 37t-34 37q-78 93 -53 213q30 139 162 227q8 8 14 10q49 28 100 43q-78 139 -69 289q7 129 53 221q41 82 113.5 130t164.5 57q98 13 191.5 -32.5t146.5 -131.5q7 -11 0 -21t-18 -10t-19 10q-34 57 -89.5 94t-121.5 46zM811 494zM438 969
l-2 4q-4 6 -12 18.5t-12 18.5q-2 -1 -6.5 -3t-6.5 -3q-109 -102 -77 -218q17 -64 81 -139q33 -37 118 -122.5t126 -137.5q4 -6 12.5 -18.5t12.5 -18.5q8 0 12 2q109 102 78 217q-17 64 -82 140q-31 35 -116.5 121.5t-125.5 138.5z" />
    <glyph glyph-name="copyright" unicode="&#xa9;" horiz-adv-x="1261" 
d="M1143 954l-4 4q26 -101 10 -299q-23 -253 -148 -426q-79 -110 -170 -161q-83 -46 -194 -56q-111 -8 -215 24t-172 107q-59 67 -94 177q-40 120 -52 254q-12 129 13 262q19 102 49 164q70 152 205 252.5t295 103.5h6h6q51 0 92 -8q140 -28 237.5 -139t135.5 -259zM330 131
zM1112 784h2q0 124 -31 213q-44 131 -131 215q-114 111 -278 111h-6h-6q-30 0 -44 -2q-118 -91 -184 -215q-106 -195 -92 -485q15 -354 170 -558q112 -15 223 17q99 30 175.5 111.5t125.5 187.5q72 161 76 405zM1012 717v4q4 13 15.5 15.5t20.5 -5t5 -20.5
q-41 -135 -109 -260q-35 -65 -71.5 -109.5t-86.5 -69.5q-55 -27 -118 -30h-6q-79 -5 -146 31t-98 108q-45 108 -42 225t48 225q44 105 120.5 189t174.5 119q43 19 102.5 16t96.5 -33q36 -29 39.5 -74t-17.5 -83q-6 -11 -16 -11.5t-18 9.5t-3 22q24 57 2 90q-22 35 -86 39
h-12q-49 -26 -113 -98q-161 -185 -164 -412q-2 -98 33 -185.5t109 -137.5q101 10 164 79q40 42 98 160q50 101 78 197z" />
    <glyph glyph-name="softhyphen" unicode="&#xad;" horiz-adv-x="0" 
 />
    <glyph glyph-name="registered" unicode="&#xae;" horiz-adv-x="753" 
d="M643 1264l4 2q14 -58 2 -158q-13 -130 -78 -217q-73 -98 -188 -107q-58 -5 -112 12t-89 56q-61 68 -73 215q-11 133 30 223q37 79 106.5 131.5t153.5 55.5h2q90 -1 154.5 -61t87.5 -152zM150 1087v19v-19zM580 989l2 -4q32 76 32 191q0 61 -14 102q-24 69 -75.5 112
t-121.5 44h-2h-18q-118 -98 -131 -260q-15 -217 80 -347q49 -6 100 11q97 27 148 151zM449 1352l2 -9q28 -6 49 -34q30 -42 10 -115q-18 -80 -92 -131q14 -8 24 -29q2 -4 5.5 -12t5.5 -12v-2v-7q2 -4 6 -8v0l2 -2v0h6h2h2h6q7 3 14.5 -1.5t10.5 -12.5q3 -7 -2 -15.5
t-13 -11.5q-28 -10 -51 6q-17 12 -28 41q-1 2 -3.5 6.5t-3.5 6.5v6v0l-6 12l-2 2v0h-6v0v0v0q-2 -15 -6 -45.5t-6 -46.5q-3 -18 -21 -15q-18 4 -20 21v6q6 44 12 90q-10 6 -9.5 20.5t13.5 18.5q20 168 23 197q-16 -19 -19 -45q-1 -7 -9.5 -11.5t-16.5 -2.5q-19 6 -15 24
q4 32 25 59t51 41q36 16 60 11zM387 1030v0v0zM387 1030zM387 1030zM393 1094v-4q36 25 58.5 63t23.5 80q0 36 -12 53q-15 21 -47 10v-6q-2 -25 -23 -196z" />
    <glyph glyph-name="mu" unicode="&#xb5;" horiz-adv-x="960" 
d="M848 109l10 6q11 -7 11.5 -17.5t-9.5 -18.5t-22 -3q-97 44 -162 168q-51 97 -76 211q-8 -51 -14 -80q-24 -113 -105 -166q-81 -52 -221 4q-3 -317 0 -633q0 -6 -2 -8v-6q-12 -25 -68 -25q-46 0 -71 25q-9 9 -2 24q-2 96 -2 289q-3 462 14 1039v6v6q5 13 23 24
q17 11 41 11q48 0 69 -21q6 -6 6 -16v-8q-1 -51 -3 -154t-3 -154q-1 -60 -3 -180.5t-3 -181.5q43 -18 75.5 -26.5t72.5 -3t71 33.5q55 51 74 160q14 89 10 303v6q-3 98 8 184q8 62 41 80q32 18 94 6q10 2 17.5 -3t7.5 -15l-6 -141v-123v-31q4 -100 8 -148q9 -111 33 -219
t45 -148q14 -26 31 -44q4 -4 4 -6z" />
    <glyph glyph-name="paragraph" unicode="&#xb6;" horiz-adv-x="1120" 
d="M1014 459h4q0 -397 2 -596q0 -20 -20.5 -20t-20.5 20q-2 92 -2 276q-2 262 -2 787v762q-131 26 -250 20q-1 -60 -3 -178t-3 -178q-8 -550 -10 -830q-4 -434 -4 -651q0 -20 -20.5 -20t-20.5 20v313q1 88 3 264.5t3 264.5q-106 -17 -211.5 11t-186.5 97q-73 63 -116.5 152
t-49.5 186q-6 95 25.5 186t93.5 166q67 82 159 137t194 77.5t207 22t210 -23.5q10 -3 13 -10q6 -6 6 -14v-406v-835zM494 760v2q4 -2 12 -2h-12z" />
    <glyph glyph-name="questiondown" unicode="&#xbf;" horiz-adv-x="917" 
d="M776 375v4q38 -94 40 -192.5t-42.5 -193.5t-124.5 -151q-100 -70 -268 -43q-103 17 -172 72q-19 14 -37 35q-45 52 -60 120t-1 138.5t37.5 132t58.5 123.5q16 28 109.5 184t134.5 244q88 185 67 465q0 13 10 16q12 8 23 0q83 -56 112 -152t17 -208q-6 -55 -21 -108.5
t-43.5 -113t-47.5 -95.5t-61 -106t-56 -95q-94 -164 -138 -291q-13 -37 -20.5 -61t-16 -66t-6.5 -71t16.5 -60t43.5 -49q25 -8 55 -15q170 -27 262 53q94 84 119.5 217t-27.5 246q-7 18 10 29q19 9 27 -8zM176 -31zM485 1405v-2q-8 4 -12 8q-18 24 -8 59q7 25 28 39.5
t48 16.5q30 3 51 -15q17 -17 20 -38q5 -24 -3.5 -46t-28.5 -34q-19 -12 -42 -12t-42 12q-10 10 -11 12z" />
    <glyph glyph-name="Agrave" unicode="&#xc0;" horiz-adv-x="1726" 
d="M1761 623l2 14q3 13 14.5 15.5t20.5 -5t6 -20.5q-20 -81 -45 -191q-78 -332 -155 -514q-63 -148 -148 -217q-58 -47 -124.5 -69.5t-127.5 -2.5q-53 17 -89.5 58.5t-54 100t-24.5 107.5t-10 111q-5 128 14 338q8 90 19 185t29 230t24 185q-233 27 -410 -28q-3 -1 -9 -3.5
t-9 -3.5q-3 -21 -9 -61.5t-9 -60.5q-7 -50 -19.5 -151t-19.5 -151q-2 -17 -10.5 -73.5t-11.5 -77.5t-11 -72t-13 -77.5t-14 -71t-16.5 -76t-18 -70t-22.5 -73.5q-56 -169 -133 -246q-45 -46 -104.5 -70.5t-120.5 -17.5q-63 7 -110.5 44.5t-74 92.5t-39.5 114t-14 119
q-2 180 75 358.5t202 318.5t282 239q88 56 176 92q5 33 29 166q40 208 94 352q63 172 148 250q40 38 91.5 57.5t94.5 -0.5q7 4 16 -2q136 -79 158 -286q16 -141 -4 -422l-6 -105q112 -26 229 -78q19 -8 9 -26t-29 -10q-94 41 -215 71q-6 -60 -19 -182.5t-21 -218t-12 -182.5
q-12 -290 17 -445q10 -64 28 -108q8 -20 17 -35q12 -20 14 -23q10 -10 19 -16q4 -4 8 -4l6 -6q3 -2 10 -5.5t10 -5.5q1 -1 3.5 -3t3.5 -3q26 11 67 39q88 66 152 215q44 107 88 260q22 76 55 224t51 213zM584 463l4 6q10 71 28.5 214.5t28.5 215.5q-197 -81 -373 -260
q-207 -210 -282 -473q-43 -154 -29 -295t92 -213q48 -44 114 -48t122 30q103 58 166 221q18 47 33.5 101t25.5 92.5t22 107t16.5 95t16.5 108t15 98.5zM1139 1143q22 207 22 338q0 154 -31 217q-18 35 -38 43q-32 11 -80 -12q-93 -44 -166 -207q-58 -131 -107 -348
q-22 -111 -39 -209q2 1 6.5 3t6.5 3q118 35 258 35q59 0 149 -11q3 24 9.5 73.5t9.5 74.5zM1202 1454v49v-49zM926 1968q-10 8 -10 19t9.5 18t20.5 0q163 -105 346 -139q13 -2 15.5 -13t-5 -20.5t-20.5 -7.5q-186 34 -356 143z" />
    <glyph glyph-name="Aacute" unicode="&#xc1;" horiz-adv-x="1726" 
d="M1761 623l2 14q3 13 14.5 15.5t20.5 -5t6 -20.5q-20 -81 -45 -191q-78 -332 -155 -514q-63 -148 -148 -217q-58 -47 -124.5 -69.5t-127.5 -2.5q-53 17 -89.5 58.5t-54 100t-24.5 107.5t-10 111q-5 128 14 338q8 90 19 185t29 230t24 185q-233 27 -410 -28q-3 -1 -9 -3.5
t-9 -3.5q-3 -21 -9 -61.5t-9 -60.5q-7 -50 -19.5 -151t-19.5 -151q-2 -17 -10.5 -73.5t-11.5 -77.5t-11 -72t-13 -77.5t-14 -71t-16.5 -76t-18 -70t-22.5 -73.5q-56 -169 -133 -246q-45 -46 -104.5 -70.5t-120.5 -17.5q-63 7 -110.5 44.5t-74 92.5t-39.5 114t-14 119
q-2 180 75 358.5t202 318.5t282 239q88 56 176 92q5 33 29 166q40 208 94 352q63 172 148 250q40 38 91.5 57.5t94.5 -0.5q7 4 16 -2q136 -79 158 -286q16 -141 -4 -422l-6 -105q112 -26 229 -78q19 -8 9 -26t-29 -10q-94 41 -215 71q-6 -60 -19 -182.5t-21 -218t-12 -182.5
q-12 -290 17 -445q10 -64 28 -108q8 -20 17 -35q12 -20 14 -23q10 -10 19 -16q4 -4 8 -4l6 -6q3 -2 10 -5.5t10 -5.5q1 -1 3.5 -3t3.5 -3q26 11 67 39q88 66 152 215q44 107 88 260q22 76 55 224t51 213zM584 463l4 6q10 71 28.5 214.5t28.5 215.5q-197 -81 -373 -260
q-207 -210 -282 -473q-43 -154 -29 -295t92 -213q48 -44 114 -48t122 30q103 58 166 221q18 47 33.5 101t25.5 92.5t22 107t16.5 95t16.5 108t15 98.5zM1139 1143q22 207 22 338q0 154 -31 217q-18 35 -38 43q-32 11 -80 -12q-93 -44 -166 -207q-58 -131 -107 -348
q-22 -111 -39 -209q2 1 6.5 3t6.5 3q118 35 258 35q59 0 149 -11q3 24 9.5 73.5t9.5 74.5zM854 1804h-2q-13 -1 -18 9t0 20.5t18 11.5q209 12 371 146q9 8 20.5 3.5t13.5 -14t-6 -18.5q-175 -146 -397 -158z" />
    <glyph glyph-name="Acircumflex" unicode="&#xc2;" horiz-adv-x="1726" 
d="M1761 623l2 14q3 13 14.5 15.5t20.5 -5t6 -20.5q-20 -81 -45 -191q-78 -332 -155 -514q-63 -148 -148 -217q-58 -47 -124.5 -69.5t-127.5 -2.5q-53 17 -89.5 58.5t-54 100t-24.5 107.5t-10 111q-5 128 14 338q8 90 19 185t29 230t24 185q-233 27 -410 -28q-3 -1 -9 -3.5
t-9 -3.5q-3 -21 -9 -61.5t-9 -60.5q-7 -50 -19.5 -151t-19.5 -151q-2 -17 -10.5 -73.5t-11.5 -77.5t-11 -72t-13 -77.5t-14 -71t-16.5 -76t-18 -70t-22.5 -73.5q-56 -169 -133 -246q-45 -46 -104.5 -70.5t-120.5 -17.5q-63 7 -110.5 44.5t-74 92.5t-39.5 114t-14 119
q-2 180 75 358.5t202 318.5t282 239q88 56 176 92q5 33 29 166q40 208 94 352q63 172 148 250q40 38 91.5 57.5t94.5 -0.5q7 4 16 -2q136 -79 158 -286q16 -141 -4 -422l-6 -105q112 -26 229 -78q19 -8 9 -26t-29 -10q-94 41 -215 71q-6 -60 -19 -182.5t-21 -218t-12 -182.5
q-12 -290 17 -445q10 -64 28 -108q8 -20 17 -35q12 -20 14 -23q10 -10 19 -16q4 -4 8 -4l6 -6q3 -2 10 -5.5t10 -5.5q1 -1 3.5 -3t3.5 -3q26 11 67 39q88 66 152 215q44 107 88 260q22 76 55 224t51 213zM584 463l4 6q10 71 28.5 214.5t28.5 215.5q-197 -81 -373 -260
q-207 -210 -282 -473q-43 -154 -29 -295t92 -213q48 -44 114 -48t122 30q103 58 166 221q18 47 33.5 101t25.5 92.5t22 107t16.5 95t16.5 108t15 98.5zM1139 1143q22 207 22 338q0 154 -31 217q-18 35 -38 43q-32 11 -80 -12q-93 -44 -166 -207q-58 -131 -107 -348
q-22 -111 -39 -209q2 1 6.5 3t6.5 3q118 35 258 35q59 0 149 -11q3 24 9.5 73.5t9.5 74.5zM1282 -328zM846 1806l4 2q-9 -8 -20.5 -4t-14 13.5t5.5 19.5q51 45 121 70q84 30 145 30q61 -1 114.5 -37.5t78.5 -93.5q5 -12 -3 -22t-18 -9.5t-16 11.5q-22 50 -67 79.5t-99 28.5
q-61 -2 -124 -25.5t-107 -62.5z" />
    <glyph glyph-name="Atilde" unicode="&#xc3;" horiz-adv-x="1726" 
d="M1761 623l2 14q3 13 14.5 15.5t20.5 -5t6 -20.5q-20 -81 -45 -191q-78 -332 -155 -514q-63 -148 -148 -217q-58 -47 -124.5 -69.5t-127.5 -2.5q-53 17 -89.5 58.5t-54 100t-24.5 107.5t-10 111q-5 128 14 338q8 90 19 185t29 230t24 185q-233 27 -410 -28q-3 -1 -9 -3.5
t-9 -3.5q-3 -21 -9 -61.5t-9 -60.5q-7 -50 -19.5 -151t-19.5 -151q-2 -17 -10.5 -73.5t-11.5 -77.5t-11 -72t-13 -77.5t-14 -71t-16.5 -76t-18 -70t-22.5 -73.5q-56 -169 -133 -246q-45 -46 -104.5 -70.5t-120.5 -17.5q-63 7 -110.5 44.5t-74 92.5t-39.5 114t-14 119
q-2 180 75 358.5t202 318.5t282 239q88 56 176 92q5 33 29 166q40 208 94 352q63 172 148 250q40 38 91.5 57.5t94.5 -0.5q7 4 16 -2q136 -79 158 -286q16 -141 -4 -422l-6 -105q112 -26 229 -78q19 -8 9 -26t-29 -10q-94 41 -215 71q-6 -60 -19 -182.5t-21 -218t-12 -182.5
q-12 -290 17 -445q10 -64 28 -108q8 -20 17 -35q12 -20 14 -23q10 -10 19 -16q4 -4 8 -4l6 -6q3 -2 10 -5.5t10 -5.5q1 -1 3.5 -3t3.5 -3q26 11 67 39q88 66 152 215q44 107 88 260q22 76 55 224t51 213zM584 463l4 6q10 71 28.5 214.5t28.5 215.5q-197 -81 -373 -260
q-207 -210 -282 -473q-43 -154 -29 -295t92 -213q48 -44 114 -48t122 30q103 58 166 221q18 47 33.5 101t25.5 92.5t22 107t16.5 95t16.5 108t15 98.5zM1139 -254l6 -6zM1139 1143l-4 -2q22 207 22 338q0 106 -10 157q0 2 -1 6.5t-1 6.5v6q-7 24 -15 43q-18 35 -38 43
q-32 11 -80 -12q-93 -44 -166 -207q-58 -131 -107 -348q-22 -111 -39 -209q2 1 6.5 3t6.5 3q118 35 258 35q59 0 149 -11q3 24 9.5 73.5t9.5 74.5zM862 1776h-4q-8 -9 -19.5 -6t-14 13.5t4.5 20.5q40 44 97.5 66t117.5 16q25 -3 67 -20t63 -21q48 -9 145 22q5 2 8 3
q13 4 20.5 -5t5.5 -20.5t-14 -15.5q-93 -29 -139 -27q-28 1 -73 18t-52 19q-56 17 -114.5 -0.5t-98.5 -62.5z" />
    <glyph glyph-name="Adieresis" unicode="&#xc4;" horiz-adv-x="1726" 
d="M1761 623l6 18q3 13 14.5 15.5t20.5 -5t6 -20.5q-20 -81 -45 -191q-78 -332 -155 -514q-63 -148 -148 -217q-58 -47 -124.5 -69t-127.5 -2q-43 14 -75.5 45.5t-50.5 68t-30 86.5t-16 89t-6 87q-5 128 14 338q8 90 19 185t29 230t24 185q-233 27 -409 -28q-3 -1 -9.5 -3
t-9.5 -3l-18 -123q-7 -50 -19.5 -150.5t-19.5 -150.5q-2 -10 -12 -82.5t-13 -91.5t-13 -80t-16 -90.5t-16.5 -79t-22 -89t-24.5 -79.5q-56 -169 -133 -246q-45 -46 -104.5 -70.5t-120.5 -17.5q-63 7 -110.5 44.5t-74 93t-39.5 114.5t-14 119q-2 180 75 358.5t202 318
t282 238.5q88 56 176 92q5 32 29 166q40 208 94 352q63 172 148 250q40 38 91.5 58t94.5 0q7 3 16 -3q136 -79 158 -286q6 -59 6 -117q3 -43 0 -86v-6q-2 -73 -14 -213l-6 -105q117 -27 229 -77q11 -6 11.5 -16t-9.5 -18t-22 -3q-94 41 -215 71q-6 -66 -19.5 -198.5
t-19.5 -198.5l-3 -33t-3 -34q-1 -21 -3.5 -62t-3.5 -61q-12 -290 17 -445q10 -64 28 -108q8 -20 17 -35q12 -20 14 -23q10 -10 19 -16q4 -4 8 -4l6 -6q3 -2 10 -5.5t10 -5.5q1 -1 3.5 -3t3.5 -3q26 11 67 39q88 66 152 215q44 107 88 260q22 76 55 224t51 213zM588 467l4 6
q10 72 28.5 215.5t28.5 214.5q-197 -81 -373 -260q-207 -210 -282 -473q-43 -154 -29 -295t92 -213q48 -44 114 -48t122 30q103 58 166 221q18 47 33.5 101t25.5 92.5t22 107t16.5 95t16.5 108t15 98.5zM1143 1147l2 -2q22 207 22 338q0 115 -14 170q-6 9 -6 18
q-2 5 -6 15.5t-6 15.5q-17 35 -39 43q-32 11 -80 -12q-93 -44 -166 -207q-58 -131 -107 -348q-15 -76 -38 -209l12 6q118 35 258 35q59 0 149 -11q3 24 9.5 73.5t9.5 74.5zM1309 -324zM963 1901l-5 2l-6 12q-3 12 0 24q2 7 11 21q4 4 8 6q6 2 16 2q4 0 12 -4h7q8 0 12 -2
q9 -3 14 -8q2 0 6 -4q9 -9 9 -17v-10q0 -2 -5 -12q-6 -12 -18 -21q-11 -8 -27 -8q-15 0 -28 10q-1 1 -3 4.5t-3 4.5zM1012 1931v6v-6zM1145 1876l-6 -2q-32 7 -39 37q-3 20 6 35q4 6 16 14q3 13 17 16q18 6 36 -2t27 -24q9 -13 7.5 -30.5t-13.5 -29.5q-18 -21 -51 -14z
M1159 1923v10v-6v0v0v0v2v-6z" />
    <glyph glyph-name="Aring" unicode="&#xc5;" horiz-adv-x="1726" 
d="M1761 623l2 14q3 13 14.5 15.5t20.5 -5t6 -20.5q-20 -81 -45 -191q-78 -332 -155 -514q-63 -148 -148 -217q-58 -47 -124.5 -69.5t-127.5 -2.5q-53 17 -89.5 58.5t-54 100t-24.5 107.5t-10 111q-5 128 14 338q8 90 19 185t29 230t24 185q-233 27 -410 -28q-3 -1 -9 -3.5
t-9 -3.5q-3 -21 -9 -61.5t-9 -60.5q-7 -50 -19.5 -151t-19.5 -151q-2 -17 -10.5 -73.5t-11.5 -77.5t-11 -72t-13 -77.5t-14 -71t-16.5 -76t-18 -70t-22.5 -73.5q-56 -169 -133 -246q-45 -46 -104.5 -70.5t-120.5 -17.5q-63 7 -110.5 44.5t-74 92.5t-39.5 114t-14 119
q-2 180 75 358.5t202 318.5t282 239q88 56 176 92q5 33 29 166q40 208 94 352q63 172 148 250q40 38 91.5 57.5t94.5 -0.5q7 4 16 -2q136 -79 158 -286q16 -141 -4 -422l-6 -105q112 -26 229 -78q19 -8 9 -26t-29 -10q-94 41 -215 71q-6 -60 -19 -182.5t-21 -218t-12 -182.5
q-12 -290 17 -445q10 -64 28 -108q8 -20 17 -35q12 -20 14 -23q10 -10 19 -16q4 -4 8 -4l6 -6q3 -2 10 -5.5t10 -5.5q1 -1 3.5 -3t3.5 -3q26 11 67 39q88 66 152 215q44 107 88 260q22 76 55 224t51 213zM584 463l4 6q10 71 28.5 214.5t28.5 215.5q-197 -81 -373 -260
q-207 -210 -282 -473q-43 -154 -29 -295t92 -213q48 -44 114 -48t122 30q103 58 166 221q18 47 33.5 101t25.5 92.5t22 107t16.5 95t16.5 108t15 98.5zM1139 1143q22 207 22 338q0 154 -31 217q-18 35 -38 43q-32 11 -80 -12q-93 -44 -166 -207q-58 -131 -107 -348
q-22 -111 -39 -209q2 1 6.5 3t6.5 3q118 35 258 35q59 0 149 -11q3 24 9.5 73.5t9.5 74.5zM1176 111v-7v13v-6zM1090 1851l2 2q-34 3 -62 26t-37 56q-9 34 2 67.5t37 55.5q10 10 23 4q15 10 18 11q36 13 74 -25q67 -67 47 -129q-11 -33 -40 -52.5t-64 -15.5zM1038 1995v2
q-11 -28 -2 -51q6 -20 24 -34t38 -16t37.5 10.5t23.5 32.5q8 32 -37 84q-13 13 -20 15q-4 2 -10 2q-10 -4 -21 -31q-8 -20 -27 -14h-6z" />
    <glyph glyph-name="AE" unicode="&#xc6;" horiz-adv-x="2809" 
d="M2845 645l-2 14q3 18 21 15q18 -4 20 -21v-6q-21 -128 -86 -317q-66 -188 -150 -361q-201 -404 -506 -461q-101 -19 -197.5 7t-170.5 94q-124 115 -166 317v-6q-63 -148 -148 -217q-58 -47 -124.5 -69.5t-127.5 -2.5q-53 17 -89.5 58.5t-54 100t-24.5 107.5t-10 111
q-5 128 14 338q8 90 19 185t29 230t24 185q-233 27 -409 -28q-3 -1 -9.5 -3.5t-9.5 -3.5l-18 -123q-7 -50 -19.5 -150.5t-19.5 -150.5q-2 -17 -10.5 -73.5t-11.5 -77.5t-11 -72t-13 -77.5t-14 -71t-16.5 -76t-18 -70t-22.5 -73.5q-56 -169 -133 -246q-45 -46 -104.5 -70.5
t-120.5 -17.5q-63 7 -110.5 44.5t-74 92.5t-39.5 114t-14 119q-2 180 75 358.5t202 318.5t282 239q88 56 176 92q5 32 29 166q40 208 94 352q63 172 148 250q40 38 91.5 57.5t94.5 -0.5q7 4 16 -2q136 -79 158 -286q16 -141 -4 -422l-6 -105q112 -26 229 -78q19 -8 9 -26
t-29 -10q-94 41 -215 71q-5 -55 -18 -181.5t-21 -220.5t-12 -181q-12 -295 16 -445q10 -60 29 -108q10 -25 16 -35q12 -20 14 -23q10 -10 19 -16q4 -4 8 -4l6 -6q3 -2 10.5 -5.5t10.5 -5.5l6 -6q26 11 67 39q88 66 152 215q12 27 26 68q-28 269 84 502q61 126 158.5 216
t222.5 126q-90 41 -149.5 134.5t-85.5 205.5q-25 109 2 215.5t102 189.5q70 76 166.5 113.5t196.5 27.5h8q8 0 12 -2q81 -13 144.5 -64.5t97.5 -129.5q32 -70 30.5 -154t-40.5 -151q-8 -10 -19 -10t-18 9.5t0 20.5q38 70 35 149.5t-43 149.5q-66 115 -201 137
q-112 -22 -189.5 -110.5t-103.5 -206.5q-25 -124 2 -275q32 -171 117 -225l6 -6q10 -5 12 -15.5t-6 -19.5q-127 -124 -209 -262q-81 -137 -115.5 -293t-9.5 -305q24 -135 97.5 -248.5t187.5 -177.5q95 9 178 53q72 37 132.5 92t108 124t81.5 133.5t71 148.5q60 132 119 309
q49 150 66 252zM2021 918zM580 463l4 6q10 71 28.5 214.5t28.5 215.5q-197 -81 -373 -260q-207 -210 -282 -473q-43 -154 -29 -295t92 -213q48 -44 114 -48t122 30q103 58 166 221q18 47 33.5 101t25.5 92.5t22 107t16.5 95t16.5 108t15 98.5zM1135 1143q22 207 22 338
q0 154 -31 217q-17 35 -39 43q-31 11 -79 -12q-93 -44 -166 -207q-58 -131 -107 -348q-22 -111 -39 -209q2 1 6.5 3t6.5 3q118 35 258 35q59 0 149 -11q3 24 9.5 73.5t9.5 74.5z" />
    <glyph glyph-name="Ccedilla" unicode="&#xc7;" horiz-adv-x="915" 
d="M940 651l-2 13q2 13 13 15.5t20.5 -5.5t7.5 -21q-4 -22 -12.5 -65t-12.5 -64q-57 -257 -137 -489q-27 -78 -40 -112t-40.5 -97.5t-58.5 -109.5t-70 -85q-111 -111 -250 -114q-1 -8 -3 -24.5t-3 -24.5q40 3 72 -19q21 -15 30.5 -40.5t2.5 -49.5q-8 -25 -31 -46.5
t-49 -25.5q-43 -7 -101 43q-9 8 -5.5 19.5t13.5 14t21 -4.5q40 -35 64 -31q13 1 27.5 14t17.5 27q3 13 -3.5 27t-17.5 22q-25 19 -63 4q-11 -4 -20 6t-7 21q2 12 6 34.5t6 33.5q-43 6 -77 20q-168 75 -236 336q-119 460 -8 954q54 249 151 439q118 234 271 352q82 62 176 74
q6 3 12 0q101 7 164 -62q110 -115 41 -352q-4 -13 -15.5 -15.5t-20.5 5t-5 20.5q14 47 19.5 95.5t1 100t-31.5 92.5t-75 60q-40 15 -76 15q-33 -25 -86 -95q-47 -60 -108 -170q-69 -130 -123 -274q-4 -14 -12.5 -43t-12.5 -43t-12 -40.5t-12 -39.5q-86 -313 -80 -635
q7 -275 78 -485q62 -175 157 -272q87 13 158 76.5t119 152.5q33 60 64.5 140t46.5 127t46 147q69 228 111 454zM166 844v-6v6zM205 -193v-6q-1 3 -3 9.5t-3 9.5q1 -2 3 -6.5t3 -6.5zM254 -315v-7v7z" />
    <glyph glyph-name="Egrave" unicode="&#xc8;" horiz-adv-x="1153" 
d="M1188 645q3 18 21 15q18 -4 20 -21v-6q-21 -130 -86 -318q-65 -185 -150 -360q-201 -404 -506 -461q-101 -19 -197.5 6.5t-170.5 93.5q-143 132 -174 371q-39 281 80 527q61 126 158.5 216t222.5 126q-90 41 -150 134.5t-86 205.5q-25 109 2 215.5t102 189.5
q70 76 166.5 113.5t196.5 27.5h8q8 0 12 -2q81 -13 144.5 -64.5t97.5 -129.5q32 -70 30.5 -154t-40.5 -151q-8 -10 -19 -10t-18 9.5t0 20.5q38 70 35 149.5t-43 149.5q-66 115 -201 137q-112 -22 -189.5 -110.5t-103.5 -206.5q-25 -124 2 -275l6 -24q1 -4 3.5 -12.5
t3.5 -12.5q16 -53 18 -65q30 -72 86 -109l6 -6q10 -5 12 -15.5t-6 -19.5q-127 -124 -209 -262q-81 -137 -115.5 -293t-9.5 -305q24 -135 97.5 -248.5t187.5 -177.5q95 9 178 53q72 37 132.5 92t108 124t82.5 134t71 148q56 123 118 309q49 150 66 252zM858 1755h4
q-191 19 -334 143q-9 8 -5.5 19.5t13.5 14t21 -4.5q131 -116 301 -131q13 -1 18 -11.5t0 -20.5t-18 -9z" />
    <glyph glyph-name="Eacute" unicode="&#xc9;" horiz-adv-x="1150" 
d="M1186 645v6q3 18 21 15q18 -4 20 -21v-6q-21 -128 -86 -317q-66 -188 -150 -361q-201 -404 -506 -461q-101 -19 -197.5 7t-170.5 94q-143 132 -174 370q-39 281 80 527q54 113 138 197.5t191 125.5q3 2 9.5 6.5t9.5 6.5q12 9 26 2h6q-90 41 -149.5 134.5t-85.5 205.5
q-25 109 2 215.5t102 189.5q70 76 166.5 113.5t196.5 27.5h8q8 0 12 -2q81 -13 144.5 -64.5t97.5 -129.5q32 -70 30.5 -154t-40.5 -151q-8 -10 -19 -10t-18 9.5t0 20.5q38 70 35 149.5t-43 149.5q-66 115 -201 137q-112 -22 -189.5 -110.5t-103.5 -206.5q-25 -124 2 -275
q32 -171 117 -225l6 -6q10 -5 12 -15.5t-6 -19.5q-127 -124 -209 -262q-81 -137 -115.5 -293t-9.5 -305q24 -135 97.5 -248.5t187.5 -177.5q95 9 178 53q72 37 132.5 92t108 124t81.5 133.5t71 148.5q60 132 119 309q49 150 66 252zM-29 39q2 -37 13 -92q-1 4 -3.5 12
t-3.5 12q-1 11 -3 34t-3 34zM141 -186l2 -7q-1 2 -3 6.5t-3 6.5q0 -2 4 -6zM180 -401h-2q6 -6 8 -7q-1 1 -3 3.5t-3 3.5zM344 -467h-6h12l-6 6v-6zM385 1741v2q-13 -1 -18 9t0 20.5t18 11.5q163 12 305 100q11 7 21 0t10 -18t-10 -19q-151 -94 -326 -106z" />
    <glyph glyph-name="Ecircumflex" unicode="&#xca;" horiz-adv-x="1150" 
d="M1186 645v2q3 18 21 15q18 -4 20 -21v-6q-21 -130 -86 -318q-65 -185 -150 -360q-201 -404 -506 -461q-101 -19 -197.5 7t-170.5 94q-143 132 -174 370q-39 281 80 527q61 126 158 216t222 126q-90 41 -149.5 134.5t-85.5 205.5q-25 109 2 215.5t102 189.5
q70 76 166.5 113.5t196.5 27.5h8q8 0 12 -2q81 -13 144.5 -64.5t97.5 -129.5q32 -70 30.5 -154t-40.5 -151q-8 -10 -19 -10t-18 9.5t0 20.5q38 70 35 149.5t-43 149.5q-66 115 -201 137q-112 -22 -189.5 -110.5t-103.5 -206.5q-25 -124 2 -275q32 -171 117 -225l6 -6
q10 -5 12 -15.5t-6 -19.5q-127 -124 -209 -262q-81 -137 -115.5 -293t-9.5 -305q24 -135 97.5 -248.5t187.5 -177.5q95 9 178 53q72 37 132.5 92t108 124t81.5 133.5t71 148.5q60 132 119 309q49 150 66 252zM319 1718h-2q-12 -6 -22 1.5t-9.5 18t11.5 17.5q56 30 87.5 45.5
t82.5 33.5t96 24q138 17 234 -60q9 -8 5.5 -18.5t-13.5 -13.5t-21 3q-39 32 -87.5 43.5t-91 7.5t-96.5 -22.5t-89.5 -35.5t-84.5 -44z" />
    <glyph glyph-name="Edieresis" unicode="&#xcb;" horiz-adv-x="1153" 
d="M1188 645v2q3 18 21 15q18 -4 20 -21v-6q-21 -130 -86 -318q-65 -185 -150 -360q-201 -404 -506 -461q-101 -19 -197.5 7t-170.5 94q-143 132 -174 370q-39 281 80 527q61 126 158.5 216t222.5 126q-90 41 -150 134.5t-86 205.5q-25 109 2 215.5t102 189.5
q70 76 166.5 113.5t196.5 27.5h8q8 0 12 -2q81 -13 144.5 -64.5t97.5 -129.5q32 -70 30.5 -154t-40.5 -151q-8 -10 -19 -10t-18 9.5t0 20.5q38 70 35 149.5t-43 149.5q-66 115 -201 137q-112 -22 -189.5 -110.5t-103.5 -206.5q-25 -124 2 -275q32 -171 117 -225l6 -6
q10 -5 12 -15.5t-6 -19.5q-127 -124 -209 -262q-81 -137 -115.5 -293t-9.5 -305q24 -135 97.5 -248.5t187.5 -177.5q95 9 178 53q72 37 132.5 92t108 124t82.5 134t71 148q56 123 118 309q49 150 66 252zM489 1843v-2v2zM479 1847zM479 1831zM485 1827v-2v2v0zM461 1780l6 4
q-15 3 -26.5 14.5t-14.5 26.5q-3 17 2 30q6 17 21 29h4l6 12q9 18 22 11q37 -13 49 -49q9 -31 -12 -60q-22 -25 -57 -18zM485 1851v17v-6v-7v-6v0v-8v0v0v0v0v0v6v4v0v0v0v7v6v0v-6v-7v0zM473 1843v0v0zM741 1810v-2q-15 -10 -32 -4.5t-25 21.5q-8 15 -4 37q2 8 10 24
q-6 6 -6 15q0 7 6.5 13.5t14.5 6.5q27 0 43 -23q16 -19 16 -43q0 -29 -23 -45zM719 1845zM721 1843v0v0zM723 1864zM719 1847v2v0v0v0v6v0v5v0v0v-7v-6v0zM723 1858v-3v3v0z" />
    <glyph glyph-name="Igrave" unicode="&#xcc;" horiz-adv-x="978" 
d="M1014 668l-2 2q3 13 14.5 15.5t20.5 -5.5t6 -21q-18 -68 -52 -178q-116 -376 -253 -620q-71 -124 -123 -174q-54 -51 -123 -41h-8q-48 9 -93 39t-69 71q-45 75 -53 224q-7 135 1.5 300t18.5 266t33 298q30 266 35 375q8 164 6 245q0 90 -6 119q-12 51 -41 57q-2 0 -7 5
q-106 -31 -202 -187q-146 -226 -146 -440q0 -20 -20.5 -20t-20.5 20q0 38 11 98q44 253 194 438q74 92 160 123q35 14 80.5 12.5t79.5 -22.5q26 -16 43.5 -51t22.5 -61t11 -68q16 -126 5 -328q-6 -127 -19.5 -268t-32.5 -316t-28 -266q-21 -258 -21 -368q0 -56 0.5 -80.5
t8 -70.5t22.5 -73t46 -34.5t58 6.5q33 16 70 71q62 86 129 226q151 315 244 682zM391 94v12v-12zM406 -266l-7 6q1 -1 3.5 -3t3.5 -3v6v-6zM416 1638h-6h6q-1 1 -3 3.5t-3 3.5q1 -1 3 -3.5t3 -3.5zM551 1741l4 2q-104 18 -183 50t-132 95q-13 16 3 30q14 13 25 -1
q49 -60 122 -89t171 -46q13 -2 15.5 -13t-5 -20.5t-20.5 -7.5z" />
    <glyph glyph-name="Iacute" unicode="&#xcd;" horiz-adv-x="978" 
d="M1014 668l-2 2q3 13 14.5 15.5t20.5 -5.5t6 -21q-18 -68 -52 -178q-116 -376 -253 -620q-71 -124 -123 -174q-54 -51 -123 -41h-8q-48 9 -93 39t-69 71q-45 75 -53 224q-7 135 1.5 300t18.5 266t33 298q30 266 35 375q8 164 6 245q0 90 -6 119q-12 51 -41 57q-2 0 -7 5
q-106 -31 -202 -187q-146 -226 -146 -440q0 -20 -20.5 -20t-20.5 20q0 38 11 98q44 253 194 438q74 92 160 123q35 14 80.5 12.5t79.5 -22.5q26 -16 43.5 -51t22.5 -61t11 -68q16 -126 5 -328q-6 -127 -19.5 -268t-32.5 -316t-28 -266q-21 -258 -21 -368q0 -56 0.5 -80.5
t8 -70.5t22.5 -73t46 -34.5t58 6.5q33 16 70 71q62 86 129 226q151 315 244 682zM217 1710v-2q-13 -3 -20.5 6t-5 20.5t15.5 14.5q177 42 319 145q11 8 21 1.5t10 -17.5t-10 -20q-150 -107 -330 -148z" />
    <glyph glyph-name="Icircumflex" unicode="&#xce;" horiz-adv-x="978" 
d="M1014 668l-2 4q3 13 14.5 15.5t20.5 -5t6 -20.5q-21 -77 -52 -179q-116 -376 -253 -620q-71 -124 -123 -174q-54 -51 -123 -41h-8q-48 9 -93 39t-69 71q-45 75 -53 224q-7 135 1.5 300t18.5 266t33 298q30 266 35 375q8 164 6 245q0 90 -6 119q-3 18 -13 35q-5 3 -8 8
q-9 9 -20 12q-2 0 -7 5q-106 -31 -202 -187q-146 -226 -146 -440q0 -20 -20.5 -20t-20.5 20q0 38 11 98q44 253 194 438q74 92 160 123q35 14 80.5 12.5t79.5 -22.5q26 -16 43.5 -51t22.5 -61t11 -68q16 -126 5 -328q-6 -127 -19.5 -268t-32.5 -316t-28 -266
q-21 -258 -21 -368q0 -56 0.5 -80.5t8 -70.5t22.5 -73t46 -34.5t58 6.5q33 16 70 71q62 86 129 226q151 315 244 682zM412 1509v7v6v-13zM160 1733l-4 -2q-9 -9 -20 -6t-13.5 13.5t4.5 20.5q47 49 127 80q84 34 156 29q69 -4 128.5 -40t94.5 -95q7 -11 0 -21t-18 -10t-19 10
q-31 51 -83 82.5t-112 34.5q-63 3 -130.5 -23.5t-110.5 -72.5z" />
    <glyph glyph-name="Idieresis" unicode="&#xcf;" horiz-adv-x="983" 
d="M1016 668l-2 2q3 13 14.5 15.5t20.5 -5.5t6 -21q-26 -98 -51 -178q-115 -372 -254 -620q-71 -124 -123 -174q-54 -51 -123 -41h-8q-48 9 -93 39t-69 71q-45 75 -53 224q-7 135 1.5 300t18.5 266t33 298q30 266 35 375q8 164 6 245q0 90 -6 119q-12 51 -41 57q-1 0 -6 5
q-107 -31 -203 -187q-146 -226 -146 -440q0 -20 -20.5 -20t-20.5 20q0 38 11 98q44 253 194 438q74 92 160 123q35 14 80.5 12.5t79.5 -22.5q26 -16 43.5 -50.5t23.5 -61.5t11 -68q15 -120 4 -328q-6 -127 -19.5 -268t-32.5 -316t-28 -266q-21 -258 -21 -368
q0 -56 0.5 -80.5t8 -70.5t22.5 -73t46 -34.5t58 6.5q33 16 70 71q62 86 129 226q151 315 244 682zM184 1761l2 -4q-17 14 -20 35q-2 14 2 43q4 23 20 31q23 11 39 -8q14 0 23 -9q18 -15 10 -41q-2 -6 -6 -14q-4 -12 -6 -16q-10 -18 -27 -23q-21 -7 -37 6zM219 1804l2 2v1
q-1 0 -2 -3v0zM219 1802l10 -8q-8 4 -10 8v-6v0v0v0v0v6zM209 1823zM428 1759l2 2q-14 6 -22.5 20.5t-8.5 30.5q3 32 27 60q13 13 31 0q4 -4 4 -10q37 -3 47 -41q4 -19 -2 -33q-7 -16 -21 -25q-25 -18 -57 -4zM469 1808v7v-7v0v0zM463 1827zM461 1829v0v0zM446 1806v-2v2v0z
" />
    <glyph glyph-name="Ntilde" unicode="&#xd1;" horiz-adv-x="1431" 
d="M1468 647l-8 -10q3 13 14.5 15.5t20.5 -5t6 -20.5q-17 -78 -49 -197q-56 -194 -129 -381q-47 -116 -80 -182q-49 -103 -98 -146q-62 -56 -142.5 -58t-136.5 65q-22 31 -35 77t-16.5 75t-7.5 85q-11 173 12 471q6 87 20.5 261t20.5 261q20 281 4 422q-8 79 -30 117
q-14 20 -27 27q-12 8 -27 4q-33 -7 -71 -64q-38 -48 -86 -147q-78 -161 -170 -438q-54 -161 -142 -458t-121 -401q21 -176 23 -202q0 -5 2 -19t2.5 -21.5t-1 -18.5t-5.5 -19q-12 -27 -43 -37q-63 -22 -107 16q-11 4 -14 15q-3 19 -9 55.5t-9 54.5q-84 504 -76 891
q6 236 41 477q6 43 22 129q4 21 6.5 29t10 21.5t20.5 21.5q29 18 74 25q54 11 76 -21q20 -27 12 -84l-12 -123q-20 -183 -23 -215q-17 -186 -22 -331q-8 -218 24 -523v-18q13 43 62.5 211.5t72 241.5t63 199.5t77.5 228.5q97 270 172 403q20 35 30 51t34 45.5t46 44.5
q43 35 94 48t103 -3q73 -28 104 -137q33 -124 25 -360q-4 -132 -29 -443q-22 -286 -24 -381q0 -23 -2 -107t-1.5 -121t3 -103.5t10 -120t20.5 -105.5q26 7 48 19q65 36 116 141q165 339 262 772zM172 1341v-6v6zM133 1016v-6v24v0v-18zM147 -272l3 -2q17 6 20 18
q-9 -9 -23 -16zM287 1585v-4q-12 4 -14.5 15.5t5 20.5t19.5 5q85 -27 174 -2q26 7 50 18.5t60 32t46 25.5q155 81 311 12q11 -6 11.5 -16t-9.5 -18t-22 -3q-83 36 -170 21q-10 -1 -21 -4t-19.5 -5.5t-21 -7.5t-18 -7.5t-19.5 -10t-17.5 -9t-19.5 -10.5t-18 -10
q-166 -90 -307 -43z" />
    <glyph glyph-name="Ograve" unicode="&#xd2;" horiz-adv-x="1253" 
d="M1307 690h-4q12 6 22 -1.5t9.5 -18t-11.5 -17.5q-54 -29 -115 -51q-178 -64 -352 -76q-78 -442 -305 -723q-73 -88 -168.5 -133.5t-189.5 -7.5q-58 24 -111 84q-139 165 -135 514q3 243 71 455q16 53 56 159q-52 115 -51.5 242.5t51.5 243.5q73 164 192 225q88 46 195 43
q127 -3 221 -76q112 -88 160 -268q85 -323 24 -715q245 19 441 121zM145 -119h7q-1 2 -3.5 6.5t-3.5 6.5v-13zM147 494v6v6v-6v-6zM637 4q130 233 182 522q-87 -3 -170 6q-249 24 -411 146q-80 -245 -80 -481q0 -225 90 -500q70 -12 135 18q79 37 138.5 111.5t115.5 177.5z
M846 727l-8 -6q16 189 -4 358q-23 209 -86 326q-68 122 -183 164q-90 33 -198 10q-90 -21 -159 -89.5t-104.5 -156t-40.5 -180.5q-6 -111 33 -217q40 94 99 211q2 6 10 10q4 4 10 4q119 5 166 -12q36 -12 41 -39q5 -7 0 -23t-8 -22.5t-12.5 -21t-12.5 -19.5
q-82 -144 -139 -303q34 -26 51 -35q198 -124 502 -113h24q14 88 19 154zM350 1071v-2v2zM373 1096v2q4 -8 4 -13q0 7 -4 11zM719 1688h2q-100 3 -191.5 44t-160.5 113q-9 9 -5 20t13.5 13.5t19.5 -4.5q63 -66 147 -104t175 -41q20 0 20 -20.5t-20 -20.5z" />
    <glyph glyph-name="Oacute" unicode="&#xd3;" horiz-adv-x="1253" 
d="M1307 690h-4q12 6 22 -1.5t9.5 -18t-11.5 -17.5q-54 -29 -115 -51q-178 -64 -352 -76q-78 -442 -305 -723q-73 -88 -168.5 -133.5t-189.5 -7.5q-58 24 -111 84q-139 165 -135 514q3 243 71 455q16 53 56 159q-52 115 -51.5 242.5t51.5 243.5q73 164 192 225q88 46 195 43
q127 -3 221 -76q112 -88 160 -268q85 -323 24 -715q245 19 441 121zM631 0q130 233 182 522q-87 -3 -170 6q-250 24 -412 146q-79 -242 -79 -481q0 -225 90 -500q70 -12 135 18q79 37 138.5 111.5t115.5 177.5zM840 723l-9 -8q16 189 -4 358q-23 209 -86 326
q-68 123 -182 164q-90 33 -199 10q-90 -21 -159 -89.5t-104 -156t-40 -180.5q-6 -111 33 -217q8 19 24.5 55.5t24.5 54.5q10 30 25 54q4 8 12 24.5t12 24.5q2 5 11 10q4 4 10 4q119 5 166 -12q36 -12 41 -39q5 -7 0 -23t-8 -22.5t-12.5 -21t-12.5 -19.5q-82 -144 -139 -303
q34 -26 51 -35q198 -124 502 -113h24q14 88 19 154zM172 1671l2 4q-20 0 -20 20.5t20 20.5q214 0 412 80q18 7 24 -12q4 -21 -14 -29q-206 -84 -424 -84z" />
    <glyph glyph-name="Ocircumflex" unicode="&#xd4;" horiz-adv-x="1251" 
d="M1307 690h-4q12 6 22 -1.5t9.5 -18t-11.5 -17.5q-54 -29 -115 -51q-178 -64 -352 -76q-78 -442 -305 -723q-73 -88 -168.5 -133.5t-189.5 -7.5q-58 24 -111 84q-139 165 -135 514q3 243 71 455q16 53 56 159q-52 115 -51.5 242.5t51.5 243.5q73 164 192 225q88 46 195 43
q127 -3 221 -76q112 -88 160 -268q85 -323 24 -715q245 19 441 121zM-10 356v31v-31zM631 0q130 233 182 522q-87 -3 -170 6q-250 24 -412 146q-79 -242 -79 -481q0 -225 90 -500q70 -12 135 18q79 37 138.5 111.5t115.5 177.5zM840 723l-9 -6q16 189 -4 358
q-23 209 -86 326q-68 123 -182 164q-90 33 -199 10q-90 -21 -159 -89.5t-104 -156t-40 -180.5q-6 -111 33 -217q46 108 98 211q2 5 11 10q4 4 10 4q119 5 166 -12q36 -12 41 -39q5 -7 0 -23t-8 -22.5t-12.5 -21t-12.5 -19.5q-82 -144 -139 -303q34 -26 51 -35
q198 -124 502 -113h24q14 88 19 154zM195 1640l-5 -2q-9 -8 -20.5 -3.5t-13.5 14t6 18.5q151 128 317 139q83 6 162.5 -21.5t136.5 -84.5q8 -8 4.5 -19.5t-13 -14t-19.5 4.5q-51 52 -122 76.5t-147 19.5q-150 -11 -286 -127z" />
    <glyph glyph-name="Otilde" unicode="&#xd5;" horiz-adv-x="1253" 
d="M1307 690h-4q12 6 22 -1.5t9.5 -18t-11.5 -17.5q-54 -29 -115 -51q-178 -64 -352 -76q-78 -442 -305 -723q-73 -88 -168.5 -133.5t-189.5 -7.5q-58 24 -111 84q-139 165 -135 514q3 243 71 455q16 53 56 159q-52 115 -51.5 242.5t51.5 243.5q73 164 192 225q88 46 195 43
q127 -3 221 -76q112 -88 160 -268q85 -323 24 -715q245 19 441 121zM37 641v6v6v-12zM631 8q130 233 182 522q-80 -3 -170 7q-252 24 -412 145q-79 -242 -79 -481q0 -225 90 -500q70 -12 135 18q79 37 138.5 111.5t115.5 177.5zM840 731l-9 -2q16 189 -4 358
q-23 209 -86 326q-68 123 -182 164q-90 33 -199 10q-90 -21 -159 -89.5t-104 -156t-40 -180.5q-6 -111 33 -217q46 108 98 211q2 5 11 10q4 4 10 4h41q12 3 24 0q60 0 101 -16q36 -12 41 -39q5 -7 0 -23t-8 -22.5t-12.5 -21t-12.5 -19.5q-82 -144 -139 -303q34 -26 51 -35
q196 -123 502 -112h24q14 89 19 153zM193 1716q-11 -7 -21 0t-10 18t10 19q113 77 217 53q18 -4 51 -17.5t56.5 -21.5t53 -7.5t52.5 16.5q11 8 21 1.5t10 -18t-10 -20.5q-18 -13 -40.5 -18t-38.5 -5t-45 8t-39 11.5t-42 15.5q-67 24 -119 14q-51 -10 -106 -49z" />
    <glyph glyph-name="Odieresis" unicode="&#xd6;" horiz-adv-x="1253" 
d="M1307 690h-4q12 6 22 -1.5t9.5 -18t-11.5 -17.5q-54 -29 -115 -51q-178 -64 -352 -76q-78 -442 -305 -723q-73 -88 -168.5 -133.5t-189.5 -7.5q-58 24 -111 84q-139 165 -135 514q3 243 71 455q16 53 56 159q-52 115 -51.5 242.5t51.5 243.5q73 164 192 225q88 46 195 43
q127 -3 221 -76q112 -88 160 -268q85 -323 24 -715q245 19 441 121zM631 0q130 233 182 522q-87 -3 -170 6q-250 24 -412 146q-79 -242 -79 -481q0 -225 90 -500q70 -12 135 18q79 37 138.5 111.5t115.5 177.5zM223 1108h-6l6 6v-6zM834 721l-9 -6q16 189 -4 358
q-23 209 -86 326q-68 123 -182 164q-90 33 -199 10q-90 -21 -159 -89.5t-104 -156t-40 -180.5q-6 -111 33 -217q47 108 98 211q2 5 11 10q4 4 10 4q119 5 166 -12q36 -12 41 -39q5 -7 0 -23t-8 -22.5t-12.5 -21t-12.5 -19.5q-82 -144 -139 -303q34 -26 51 -35
q198 -124 502 -113h24q14 88 19 154zM246 1688l4 -2q-13 10 -19 22q-2 4 -2 14v13v6q3 7 11 16q5 5 14 8h8q11 0 17 -6q2 0 6 -4q17 0 26 -12q5 -5 8 -14q3 -6 3 -13v-6q0 -6 -3 -12q-8 -16 -18 -21q-13 -8 -31 -4q-4 0 -12 4q-2 1 -12 11zM281 1716h8h-2v0v0v0h-6z
M481 1681v2q-8 8 -12 23q-3 17 2 31q3 9 12 12q7 14 19 20q11 7 28 -2q6 -3 13 -10q11 -9 15.5 -24.5t0.5 -28.5q-15 -38 -49 -35q-17 0 -29 12zM514 1714v0v0z" />
    <glyph glyph-name="Oslash" unicode="&#xd8;" horiz-adv-x="1251" 
d="M1307 690l2 -2q12 6 22 -1.5t9.5 -18t-11.5 -17.5q-54 -29 -115 -51q-178 -64 -352 -76q-78 -442 -305 -723q-52 -64 -118.5 -107.5t-137.5 -49.5q-30 -205 -35 -246q-3 -20 -23 -20q-17 -1 -18 14v6q7 58 35 250q-35 3 -61 14q-58 24 -111 84q-139 165 -135 514
q3 239 72 455q20 66 55 159q-52 115 -51.5 242.5t51.5 243.5q73 164 192 225q88 46 195 43q94 -3 174 -47q5 25 15.5 77t15.5 77q3 13 14.5 15.5t20.5 -5.5t6 -21q-6 -27 -18.5 -82t-18.5 -83q1 -1 3 -3.5t3 -3.5q112 -88 160 -268q85 -323 24 -715q245 19 441 121zM100 928
l-4 -10q37 86 99 210q2 7 10 11q4 4 10 4q117 4 166 -13q36 -12 41 -38q5 -7 0 -23t-8 -22.5t-12.5 -21t-12.5 -19.5q-81 -142 -139 -304q29 -22 51 -34q60 -38 137 -64q7 33 21.5 98.5t21.5 98.5q24 122 73.5 364.5t74.5 364.5q-26 18 -60 31q-90 33 -198 10
q-90 -21 -159 -89.5t-104 -156t-40 -180.5q-6 -114 32 -217zM262 -324l-4 5q6 36 18.5 107.5t18.5 107.5q41 223 131 665q-112 37 -193 98q-79 -242 -79 -481q0 -225 90 -500q3 0 9 -1t9 -1zM631 -8q130 233 182 522q-87 -3 -170 6q-93 9 -180 33q-112 -551 -164 -870
q43 3 78 20q79 37 138.5 111.5t115.5 177.5zM840 715l-6 6q15 184 -5 358q-23 209 -86 326q-35 63 -86 108q-10 -51 -30.5 -153.5t-30.5 -153.5q-20 -102 -62 -304.5t-63 -303.5q146 -44 326 -37h24q14 88 19 154z" />
    <glyph glyph-name="Ugrave" unicode="&#xd9;" horiz-adv-x="1210" 
d="M1243 655l8 -4q3 13 14.5 15.5t20.5 -5t6 -20.5q-3 -20 -16 -68q-89 -382 -209 -671q-67 -163 -123 -232q-34 -38 -65 -47q-48 -13 -93 10t-77 66q-53 74 -84 221q-18 81 -27 170q-12 117 -8 305q3 233 26 523q-2 -9 -6 -28t-6 -28q-46 -179 -94 -315q-65 -186 -123 -297
q-38 -71 -90.5 -121t-116.5 -45q-33 3 -61 23.5t-48 55t-31.5 62t-23.5 64.5q-38 116 -49 319q-12 172 -6 344q15 352 100 684q3 19 23 15q2 2 8 2q103 8 137 -41q8 -13 11.5 -28.5t1.5 -35.5t-4 -33t-8 -35.5t-7 -29.5q-84 -415 -102 -674q-12 -172 -6 -344q0 -7 1.5 -43
t2 -47.5t3 -43t6 -48.5t9 -42t14 -45t19.5 -38q44 -8 92 33q11 9 21.5 20t18.5 20.5t17.5 24.5t15.5 23.5t15 27t12.5 25.5t12.5 28t11 25.5t11.5 27.5t10.5 26q107 259 167 541.5t111 660.5q-4 15 10 20q77 33 119 23q24 -5 42.5 -20t25.5 -38q6 -8 4 -30.5t-3 -31
t-6.5 -31t-7.5 -30.5q-10 -47 -26 -141q-78 -464 -78 -958q0 -422 53 -707q41 -7 68 17q22 19 55 75q51 88 117 267q112 301 184 632zM6 842v67v-12v-55zM641 82v12v-12zM260 1827v-4q-10 8 -10 19t10 18t21 0q85 -59 137 -84q41 -18 71 -25q1 0 9 -2.5t12 -3t11.5 -1.5
t12 -1t9.5 2t8 6q5 6 14 5t15 -7q12 -12 0 -29q-19 -24 -76 -16q-35 7 -84 29q-64 28 -160 94z" />
    <glyph glyph-name="Uacute" unicode="&#xda;" horiz-adv-x="1210" 
d="M1243 655l8 -4q3 13 14.5 15.5t20.5 -5t6 -20.5q-3 -20 -16 -68q-89 -382 -209 -671q-67 -163 -123 -232q-34 -38 -65 -47q-48 -13 -93 10t-77 66q-53 74 -84 221q-18 81 -27 170q-12 117 -8 305q0 74 2 111q0 45 4 135q1 14 3 42.5t3 43.5q8 132 14 191q-2 -9 -6 -28
t-6 -28q-46 -179 -94 -315q-65 -186 -123 -297q-38 -71 -90.5 -121t-116.5 -45q-33 3 -61 23.5t-48 55t-31.5 62t-23.5 64.5q-38 116 -49 319q-12 172 -6 344q15 352 100 684q3 19 23 15q2 2 8 2q103 8 137 -41q8 -13 11.5 -28.5t1.5 -35.5t-4 -33t-8 -35.5t-7 -29.5
q-84 -415 -102 -674q-12 -172 -6 -344q0 -7 1.5 -43t2 -47.5t3 -43t6 -48.5t9 -42t14 -45t19.5 -38q44 -8 92 33q11 9 21.5 20t18.5 20.5t17.5 24.5t15.5 23.5t15 27t12.5 25.5t12.5 28t11 25.5t11.5 27.5t10.5 26q107 259 167 541.5t111 660.5q-4 15 10 20q77 33 119 23
q24 -5 42.5 -20t25.5 -38q6 -8 4 -30.5t-3 -31t-6.5 -31t-7.5 -30.5q-10 -47 -26 -141q-78 -464 -78 -958q0 -422 53 -707q41 -7 68 17q22 19 55 75q51 88 117 267q112 301 184 632zM205 1538l2 -2q3 30 -8 47q4 -8 4 -14q2 -10 2 -31zM358 1673v-2q-10 8 -10 19t10 18t21 0
q29 -16 61.5 -18t59.5 5t60.5 25t54 32.5t49.5 37.5q16 12 28 0q6 -6 7 -15t-5 -14q-97 -77 -159 -98q-100 -35 -177 10z" />
    <glyph glyph-name="Ucircumflex" unicode="&#xdb;" horiz-adv-x="1210" 
d="M1243 655l8 -4q3 13 14.5 15.5t20.5 -5t6 -20.5q-3 -20 -16 -68q-89 -382 -209 -671q-67 -163 -123 -232q-34 -38 -65 -47q-48 -13 -93 10t-77 66q-53 74 -84 221q-18 81 -27 170q-12 117 -8 305q3 233 26 523q-2 -9 -6 -28t-6 -28q-46 -179 -94 -315q-65 -186 -123 -297
q-38 -71 -90.5 -121t-116.5 -45q-33 3 -61 23.5t-48 55t-31.5 62t-23.5 64.5q-38 116 -49 319q-12 172 -6 344q15 352 100 684q3 19 23 15q2 2 8 2q103 8 137 -41q8 -13 11.5 -28.5t1.5 -35.5t-4 -33t-8 -35.5t-7 -29.5q-84 -415 -102 -674q-12 -172 -6 -344q0 -7 1.5 -43
t2 -47.5t3 -43t6 -48.5t9 -42t14 -45t19.5 -38q44 -8 92 33q11 9 21.5 20t18.5 20.5t17.5 24.5t15.5 23.5t15 27t12.5 25.5t12.5 28t11 25.5t11.5 27.5t10.5 26q107 259 167 541.5t111 660.5q-4 15 10 20q77 33 119 23q24 -5 42.5 -20t25.5 -38q6 -8 4 -30.5t-3 -31
t-6.5 -31t-7.5 -30.5q-10 -47 -26 -141q-78 -464 -78 -958q0 -422 53 -707q41 -7 68 17q22 19 55 75q51 88 117 267q112 301 184 632zM735 1587l6 6h-6v-6zM270 1712l2 -2q-13 -2 -20.5 7.5t-5 20.5t15.5 13q29 6 82.5 33.5t83.5 32.5q77 14 180 -58q10 -8 10 -19t-9.5 -18
t-20.5 0q-18 12 -30 19.5t-32 17.5t-33.5 13t-34.5 6t-36 -4q-24 -6 -73.5 -31.5t-78.5 -30.5z" />
    <glyph glyph-name="Udieresis" unicode="&#xdc;" horiz-adv-x="1210" 
d="M1243 655h8q3 13 14.5 15.5t20.5 -5t6 -20.5q-3 -17 -16 -67q-90 -385 -209 -672q-67 -163 -123 -232q-34 -38 -65 -47q-48 -13 -93 10t-77 66q-53 74 -84 221q-18 81 -27 170q-13 131 -10 295q-5 181 14 471q-44 -174 -92 -313q-65 -186 -123 -297q-38 -71 -90.5 -121
t-116.5 -45q-33 3 -61 23.5t-48 55t-31.5 62t-23.5 64.5q-38 116 -49 319q-12 172 -6 344q15 352 100 684q3 19 23 15q2 2 8 2q103 8 137 -41q8 -13 11.5 -28.5t1.5 -35.5t-4 -33t-8 -35.5t-7 -29.5q-84 -415 -102 -674q-12 -172 -6 -344q0 -7 1.5 -43t2 -47.5t3 -43
t6 -48.5t9 -42t14 -45t19.5 -38q44 -8 92 33q11 9 21.5 20t18.5 20.5t17.5 24.5t15.5 23.5t15 27t12.5 25.5t12.5 28t11 25.5t11.5 27.5t10.5 26q107 259 167 541.5t111 660.5q-4 15 10 20q77 33 119 23q24 -5 42.5 -20t25.5 -38q6 -8 4 -30.5t-3 -31t-6.5 -31t-7.5 -30.5
q-10 -47 -26 -141q-78 -464 -78 -958q0 -422 53 -707q41 -7 68 17q22 19 55 75q51 88 117 267q112 301 184 632zM180 1526v0v0zM100 197v-7v7zM733 537l-2 -7q0 53 2 80v-73zM764 -225zM338 1692l-8 2q-18 9 -23 14q-10 13 -10 29q0 18 12 30q11 11 27 11q0 4 4 4q4 4 6 4h6
q10 0 19 -6q8 -4 12 -8q8 -8 12 -23q3 -13 0 -27q-3 -13 -12 -22q-5 -5 -14 -8q-4 -2 -13 -2h-12q-4 0 -6 2zM352 1735v2q-4 -2 -12 -2h6h6v0v0zM485 1724v2q-9 12 -12 27q-4 19 2 33q7 21 25 24q25 4 37 -14v-6q4 0 12 -4q17 -10 20 -27t-6 -30q-10 -13 -24 -19
q-13 -5 -29 -0.5t-25 14.5zM502 1772z" />
    <glyph glyph-name="Yacute" unicode="&#xdd;" horiz-adv-x="1165" 
d="M1217 756l10 -6q12 6 22 -1.5t9.5 -18t-11.5 -17.5q-18 -10 -54.5 -31t-55.5 -31q-183 -106 -299 -188q-16 -179 -54 -328q-32 -129 -84 -237q-61 -125 -137 -179q-56 -40 -121.5 -28t-99.5 73q-22 39 -27 85.5t5 92.5t27.5 87.5t41.5 79.5q85 134 256 270q23 199 35 598
q4 112 8 332q-44 -243 -90 -412q-47 -169 -94 -287q-65 -164 -125 -260q-37 -61 -89 -102t-112 -37q-57 4 -94 52t-64 118q-37 96 -53 281q-12 156 -6 313q12 307 100 618q6 19 25 15q2 2 8 2q94 8 131 -33q9 -10 14 -21.5t4.5 -27.5t-1.5 -24.5t-5.5 -28.5t-5.5 -25
q-2 -8 -14.5 -66.5t-15.5 -71.5t-14 -64.5t-14.5 -71.5t-12.5 -65t-13 -71.5t-10 -65.5t-9.5 -72.5t-6.5 -67.5q-12 -154 -6 -308q0 -3 1 -29.5t1.5 -33t2 -30.5t3.5 -33.5t5 -30t7 -32.5t9 -28.5t12 -30t16 -26.5q43 -8 96 29q30 21 57.5 59t39 59.5t36.5 75.5q5 9 7 14
q108 230 169.5 484.5t114.5 597.5q0 4 4 8q6 68 133 98q7 2 15 -2q14 -3 14 -18v-25q3 -132 -6 -528q-9 -410 -16 -526q-1 -9 -3.5 -28t-3.5 -28q183 123 388 234zM102 1559zM623 182v-4q8 45 20 135q-66 -57 -117 -110q-98 -102 -137 -197q-19 -44 -26.5 -93.5t7 -100.5
t58.5 -74l12 -6q134 161 183 450zM342 1788v2q-13 -1 -18 9t0 20.5t18 11.5q163 12 305 100q11 7 21 0t10 -18t-10 -19q-151 -94 -326 -106z" />
    <glyph glyph-name="germandbls" unicode="&#xdf;" horiz-adv-x="890" 
d="M924 692l4 -4q11 7 20.5 0t9.5 -18t-10 -19q-176 -102 -354 -266q12 -154 -29 -301q-29 -105 -94 -182q-56 -64 -106 -74q-25 -5 -53 2.5t-42 26.5q-70 92 41 270q50 77 142 176q0 86 -19 176q-38 175 -119 232l-6 6q-9 4 -10.5 16t4.5 19q5 6 15.5 18t15.5 18
q60 98 90 201q17 63 25 115q11 75 0 117q-14 54 -58 71q-36 15 -84 -16q-64 -45 -110 -168q-63 -173 -97 -403q-54 -353 -37 -846q0 -19 -18 -19v0q-19 -4 -22 15q-49 332 -43 673q7 356 57 586q14 62 38 118.5t60 108.5t88.5 87t114.5 45q58 9 113.5 -10t89.5 -64
q58 -77 22 -234q-50 -220 -194 -399q-1 -1 -3.5 -3t-3.5 -3q-3 -5 -8 -8q95 -26 153.5 -105.5t76.5 -187.5q2 -6 2 -19q165 149 338 252zM416 -94v6v0v-6zM449 223l2 -2v19q-63 -73 -103 -134q-42 -62 -55 -118q-11 -27 -5.5 -67.5t36.5 -47.5q15 -3 30 0q79 163 95 350z
" />
    <glyph glyph-name="agrave" unicode="&#xe0;" horiz-adv-x="776" 
d="M793 637v-12q4 12 15.5 14t20.5 -5.5t5 -19.5q-96 -284 -197 -475q-20 -38 -29.5 -55.5t-30.5 -49.5t-43.5 -51.5t-48.5 -31.5q-62 -28 -114.5 8.5t-71.5 103.5q-14 49 -18 154q-3 74 4 166v18q-16 -45 -43 -102q-17 -36 -37 -65.5t-49 -57.5t-63.5 -27t-67.5 37
q-35 38 -50 109q-17 76 -14 164q7 229 141 360q32 32 72 44t82 -1q55 -18 86 -69v6q8 41 18 57q14 22 43 33.5t58 11.5q31 1 40 -20.5t7 -57.5q-2 -33 -13 -95.5t-12 -70.5q-62 -381 -12 -657q42 21 82 86q39 62 96 186q76 171 144 365zM326 709v-2q-9 37 -32.5 65.5
t-55.5 38.5q-35 -35 -72 -139q-26 -75 -39 -158q-25 -145 -8 -326q22 12 57 70q33 56 60 133q20 54 73 238q0 2 4 6q2 12 6.5 36.5t6.5 37.5zM428 -23zM434 963h2q-139 -28 -250 59q-6 5 -5 14t7 15q12 12 29 0q43 -34 98 -46.5t109 -0.5q13 3 20.5 -6t5 -20.5t-15.5 -14.5z
" />
    <glyph glyph-name="aacute" unicode="&#xe1;" 
d="M793 637v-12q4 12 15.5 14t20.5 -5.5t5 -19.5q-96 -284 -197 -475q-20 -38 -29.5 -55.5t-30.5 -49.5t-43.5 -51.5t-48.5 -31.5q-62 -28 -114.5 8.5t-71.5 103.5q-14 49 -18 154q-3 74 4 166v18q-16 -45 -43 -102q-17 -36 -37 -65.5t-49 -57.5t-63.5 -27t-67.5 37
q-35 38 -50 109q-17 76 -14 164q7 229 141 360q32 32 72 44t82 -1q55 -18 86 -69v6q8 41 18 57q14 22 43 33.5t58 11.5q31 1 40 -20.5t7 -57.5q-2 -33 -13 -95.5t-12 -70.5q-62 -381 -12 -657q42 21 82 86q39 62 96 186q76 171 144 365zM88 539l6 36l-6 -30v-6zM326 711v-2
q-9 37 -32.5 65.5t-55.5 38.5q-35 -35 -72 -139q-26 -75 -39 -158q-25 -145 -8 -326q22 12 57 70q33 56 60 133q20 54 73 238q0 2 4 6q2 12 6.5 37t6.5 37zM408 313v19v-19zM123 913v-2q-8 -2 -16 3t-11 14q-2 8 3 15.5t12 8.5q103 21 186 86q6 4 15 1t14 -9q9 -14 -7 -26
q-89 -70 -196 -91z" />
    <glyph glyph-name="acircumflex" unicode="&#xe2;" 
d="M793 637v-12q4 12 15.5 14t20.5 -5.5t5 -19.5q-96 -284 -197 -475q-20 -38 -29.5 -55.5t-30.5 -49.5t-43.5 -51.5t-48.5 -31.5q-62 -28 -114.5 8.5t-71.5 103.5q-14 49 -18 154q-3 74 4 166v18q-16 -45 -43 -102q-17 -36 -37 -65.5t-49 -57.5t-63.5 -27t-67.5 37
q-35 38 -50 109q-17 76 -14 164q7 229 141 360q32 32 72 44t82 -1q55 -18 86 -69v6q8 41 18 57q14 22 43 33.5t58 11.5q31 1 40 -20.5t7 -57.5q-2 -33 -13 -95.5t-12 -70.5q-62 -381 -12 -657q42 21 82 86q39 62 96 186q76 171 144 365zM84 729h2l6 12q-4 -4 -8 -12z
M328 711v-2q-9 37 -32.5 65.5t-55.5 38.5q-35 -35 -72 -139q-26 -75 -39 -158q-25 -145 -8 -326q22 12 57 70q33 56 60 133q20 54 73 238q0 2 4 6q2 12 6.5 37t6.5 37zM145 922q-6 -4 -14.5 -1t-13.5 9q-10 16 6 28q59 43 134 47.5t138 -30.5q10 -7 10 -17.5t-9.5 -18
t-20.5 -1.5q-54 30 -117 25.5t-113 -41.5z" />
    <glyph glyph-name="atilde" unicode="&#xe3;" 
d="M793 637v-12q4 12 15.5 14t20.5 -5.5t5 -19.5q-96 -284 -197 -475q-20 -38 -29.5 -55.5t-30.5 -49.5t-43.5 -51.5t-48.5 -31.5q-62 -28 -114.5 8.5t-71.5 103.5q-14 49 -18 154q-3 74 4 166v18q-16 -45 -43 -102q-17 -36 -37 -65.5t-49 -57.5t-63.5 -27t-67.5 37
q-35 38 -50 109q-17 76 -14 164q7 229 141 360q32 32 72 44t82 -1q55 -18 86 -69v6q8 41 18 57q14 22 43 33.5t58 11.5q31 1 40 -20.5t7 -57.5q-2 -33 -13 -95.5t-12 -70.5q-62 -381 -12 -657q42 21 82 86q39 62 96 186q76 171 144 365zM106 621h3v6q0 -1 -1.5 -3t-1.5 -3z
M326 158v-25v12v13v12v-12zM330 709v-2q-9 37 -32.5 65.5t-55.5 38.5q-35 -35 -72 -139q-26 -75 -39 -158q-25 -145 -8 -326q22 12 57 70q33 56 60 133q20 54 73 238q0 2 4 6q2 12 6.5 36.5t6.5 37.5zM84 913h2q-7 -11 -17.5 -11t-18 10t-1.5 22q17 38 62 55q38 13 86 0
q52 -17 88 2q16 8 71 56q14 13 28 -1t1 -28q-26 -25 -45.5 -40t-50 -28t-58.5 -10q-12 1 -42.5 9.5t-47.5 6.5q-38 -6 -57 -43z" />
    <glyph glyph-name="adieresis" unicode="&#xe4;" 
d="M793 637v-12q4 12 15.5 14t20.5 -5.5t5 -19.5q-96 -284 -197 -475q-20 -38 -29.5 -55.5t-30.5 -49.5t-43.5 -51.5t-48.5 -31.5q-62 -28 -114.5 8.5t-71.5 103.5q-14 49 -18 154q-3 74 4 166v18q-16 -45 -43 -102q-17 -36 -37 -65.5t-49 -57.5t-63.5 -27t-67.5 37
q-35 38 -50 109q-17 76 -14 164q7 229 141 360q32 32 72 44t82 -1q55 -18 86 -69v6q8 41 18 57q14 22 43 33.5t58 11.5q31 1 40 -20.5t7 -57.5q-2 -33 -13 -95.5t-12 -70.5q-62 -381 -12 -657q42 21 82 86q39 62 96 186q76 171 144 365zM68 193l-2 -3q4 -4 8 -6v13
q-4 -4 -6 -4zM326 707v-2q-9 37 -32.5 65.5t-55.5 38.5q-35 -35 -72 -139q-26 -75 -39 -158q-25 -145 -8 -326q22 12 57 70q33 56 60 133q20 54 73 238q0 2 4 6q2 12 6.5 36.5t6.5 37.5zM387 803l-2 2l12 18q-8 -12 -10 -20zM199 981v0v0zM147 934l-4 4q-20 16 -22 33
q-3 24 8 41q10 13 21 16h6q18 21 51 4q19 -9 28 -28t5 -39t-21.5 -31.5t-36.5 -9.5q-18 0 -35 10zM182 997zM182 989l-6 15q7 -13 0 -23h6v0v0v0v6v-1v3v0v6v0v0v0v0v0v0v-6v0zM356 1012v0v0zM303 961l2 -9q-16 13 -22 31q-2 6 -2 18q0 11 2 17l6 6q3 6 12 6h6q7 11 19 17
q18 9 36 6q17 -3 27 -16t10 -31q0 -16 -8.5 -31t-21.5 -21q-35 -17 -66 7zM358 1004zM344 1006zM344 1006v0v0zM334 993h4v-6h6h6h6v0v0v6v6v7v0v0v0v0v0h-6h-6v0v-2v0q-4 -8 -10 -11z" />
    <glyph glyph-name="aring" unicode="&#xe5;" horiz-adv-x="776" 
d="M793 637v-12q4 12 15.5 14t20.5 -5.5t5 -19.5q-96 -284 -197 -475q-20 -38 -29.5 -55.5t-30.5 -49.5t-43.5 -51.5t-48.5 -31.5q-62 -28 -114.5 8.5t-71.5 103.5q-14 49 -18 154q-3 74 4 166v18q-16 -45 -43 -102q-17 -36 -37 -65.5t-49 -57.5t-63.5 -27t-67.5 37
q-35 38 -50 109q-17 76 -14 164q7 229 141 360q32 32 72 44t82 -1q55 -18 86 -69v6q8 41 18 57q14 22 43 33.5t58 11.5q31 1 40 -20.5t7 -57.5q-2 -33 -13 -95.5t-12 -70.5q-62 -381 -12 -657q42 21 82 86q39 62 96 186q76 171 144 365zM457 741zM76 188zM326 709v-2
q-9 37 -32.5 65.5t-55.5 38.5q-35 -35 -72 -139q-26 -75 -39 -158q-25 -145 -8 -326q22 12 57 70q33 56 60 133q20 54 73 238q0 2 4 6q2 12 6.5 36.5t6.5 37.5zM352 616v7v-7zM410 178zM231 952l-4 -4q-33 13 -51 44t-16 67q2 28 14.5 53t34.5 33q-3 7 0 14q6 19 27 15
q35 -6 65.5 -26t44.5 -50q30 -62 -8 -113q-19 -26 -47.5 -35t-59.5 2zM207 1085v2q-9 -24 -2 -53q5 -21 20.5 -36t36.5 -15q14 0 27.5 11.5t19.5 27.5q13 39 -12 70q-14 20 -41 30q-7 -20 -27 -16h-6q-4 -2 -6 -4q-7 -6 -10 -17z" />
    <glyph glyph-name="ae" unicode="&#xe6;" horiz-adv-x="874" 
d="M889 641l4 -4q4 13 15.5 15.5t20.5 -5t5 -20.5q-78 -261 -168 -424q-80 -145 -166 -211q-75 -57 -149 -60q-61 -3 -109 28t-70 87q-37 93 -41 227v7q-18 -35 -38 -62t-47 -49t-59 -18.5t-62 36.5q-35 38 -50 109q-17 76 -14 164q7 229 141 360q32 32 72 44t82 -1
q73 -23 104 -108q45 63 105 100q41 24 91.5 30.5t97 -13.5t63.5 -68q13 -38 6 -81.5t-29 -76.5q-63 -95 -217 -55q-24 -80 -39 -162q-36 -198 -12 -455v-4q51 -1 104.5 30t94.5 75q68 75 131 209q67 140 133 356zM498 641l-2 2q-1 -2 -3.5 -6t-3.5 -6q144 -37 183 61
q20 43 6 88.5t-62 59.5q-4 2 -12 2q0 -4 -2 -6q-27 -24 -61 -93q-27 -57 -43 -102zM76 199zM74 721v6l6 12l-12 -18h6zM272 594l-2 -6q23 68 58 125q-4 4 -4 6q-10 38 -33.5 68t-57.5 40q-33 -33 -71 -139q-26 -75 -39 -158q-25 -145 -8 -325q23 13 57 69q29 49 57 121
q9 107 43 199z" />
    <glyph glyph-name="ccedilla" unicode="&#xe7;" horiz-adv-x="608" 
d="M623 653h14q4 13 15.5 15.5t20.5 -5t5 -20.5q-67 -227 -146 -385q-70 -140 -145 -215q-88 -88 -186 -96q7 -10 0 -23v0v-2v0v-6v-2l6 -6q2 -2 2 0v-4l6 -6q4 -4 10 -7q39 -27 43 -57t-19 -46.5t-52.5 -15t-53.5 6.5q-18 7 -12 26q2 8 10 13t15 2q32 -13 61 -4v0l2 2v0v-1
v3v2v6v0l-6 6v4l-6 6q-2 2 -5 5.5t-5 5.5q-22 13 -29 20q-27 30 -12 68q-41 3 -74 22q-67 39 -94 156q-26 110 -23 231q5 149 58.5 284t158.5 216q26 20 54.5 33.5t62.5 18t61 -10.5q84 -42 31 -203q-4 -12 -15.5 -14.5t-20.5 5t-5 19.5q41 126 -10 154l-6 -6
q-30 -26 -62 -92q-26 -54 -43 -103q-37 -103 -55 -215q-36 -198 -12 -454h12q115 2 217 143q78 105 131 232.5t101 293.5zM29 471zM84 643l4 2q14 33 33 64q-22 -31 -37 -66zM129 119h-2q0 -21 2 -31v31zM135 362v19v-19zM225 -162z" />
    <glyph glyph-name="egrave" unicode="&#xe8;" horiz-adv-x="608" 
d="M623 659h2q4 13 15.5 15.5t20.5 -5t5 -20.5q-78 -261 -168 -424q-80 -145 -166 -211q-73 -56 -150 -59q-61 -3 -108.5 28t-69.5 87q-37 93 -41 227q-7 172 43 311q30 83 79 155.5t114 110.5q41 24 91.5 30.5t97 -13.5t63.5 -68q13 -38 6 -81t-29 -76q-63 -95 -217 -56
q-24 -81 -39 -161q-36 -198 -12 -455v-4q51 -1 104.5 29.5t93.5 74.5q68 75 131 209q70 146 134 356zM229 664l-2 2q-1 -2 -3 -6.5t-3 -6.5q143 -37 182 62q20 43 6.5 88t-61.5 59q-4 2 -12 2q0 -4 -2 -6q-30 -26 -62 -92q-27 -57 -43 -102zM0 334zM416 944v-2
q-109 12 -191 88q-6 6 -6 15.5t6 15.5t14.5 6t14.5 -6q70 -63 162 -76q20 -4 20 -20q0 -8 -6.5 -15t-13.5 -6z" />
    <glyph glyph-name="eacute" unicode="&#xe9;" horiz-adv-x="608" 
d="M623 659h2q4 13 15.5 15.5t20.5 -5t5 -20.5q-78 -261 -168 -424q-80 -145 -166 -211q-73 -56 -150 -59q-61 -3 -108.5 28t-69.5 87q-37 93 -41 227q-7 172 43 311q30 83 79 155.5t114 110.5q41 24 91.5 30.5t97 -13.5t63.5 -68q13 -38 6 -81t-29 -76q-63 -95 -217 -56
q-24 -81 -39 -161q-36 -198 -12 -455v-4q51 -1 104.5 29.5t93.5 74.5q68 75 131 209q70 146 134 356zM229 664l-2 2q-1 -2 -3 -6.5t-3 -6.5q143 -37 182 62q20 43 6.5 88t-61.5 59q-4 2 -12 2q0 -4 -2 -6q-30 -26 -62 -92q-27 -57 -43 -102zM127 938h2q-13 3 -15.5 14.5
t5 20.5t20.5 6q116 -25 213 43q11 7 21 0t10 -18t-10 -19q-111 -76 -246 -47z" />
    <glyph glyph-name="ecircumflex" unicode="&#xea;" horiz-adv-x="606" 
d="M621 659h2q4 13 15.5 15.5t20.5 -5t5 -20.5q-78 -261 -168 -424q-80 -145 -166 -211q-73 -56 -150 -59q-61 -3 -108.5 28t-69.5 87q-37 93 -41 227q-7 172 43 311q30 83 79 155.5t114 110.5q41 24 91.5 30.5t97 -13.5t63.5 -68q13 -38 6 -81t-29 -76q-63 -95 -217 -56
q-24 -81 -39 -161q-36 -198 -12 -455v-4q51 -1 104.5 29.5t93.5 74.5q68 75 131 209q70 146 134 356zM227 664l-2 2q-1 -2 -3 -6.5t-3 -6.5q143 -37 182 62q20 43 6.5 88t-61.5 59q-4 2 -12 2q0 -4 -2 -6q-30 -26 -62 -92q-27 -57 -43 -102zM10 195q1 -7 3 -21.5t3 -21.5
l-6 39t-6 40zM33 563v6q1 2 3 6.5t3 6.5q-1 -3 -3 -9.5t-3 -9.5zM160 915h2q-9 -9 -20.5 -4.5t-14 14t5.5 19.5q92 85 186 90q48 3 92.5 -17t71.5 -59q7 -11 0 -20.5t-18 -9.5t-19 10q-21 31 -57.5 44.5t-75.5 10.5q-73 -5 -153 -78z" />
    <glyph glyph-name="edieresis" unicode="&#xeb;" horiz-adv-x="608" 
d="M623 659h2q4 13 15.5 15.5t20.5 -5t5 -20.5q-78 -261 -168 -424q-80 -145 -166 -211q-73 -56 -150 -59q-61 -3 -108.5 28t-69.5 87q-37 93 -41 227q-7 172 43 311q30 83 79 155.5t114 110.5q41 24 91.5 30.5t97 -13.5t63.5 -68q13 -38 6 -81t-29 -76q-63 -95 -217 -56
q-24 -81 -39 -161q-36 -198 -12 -455v-4q51 -1 104.5 29.5t93.5 74.5q68 75 131 209q70 146 134 356zM229 664l-2 2q-1 -2 -3 -6.5t-3 -6.5q143 -37 182 62q20 43 6.5 88t-61.5 59q-4 2 -12 2q0 -4 -2 -6q-30 -26 -62 -92q-27 -57 -43 -102zM195 977h4q-18 7 -21 24
q-3 9 0 19q3 12 12 18q6 6 17 2v13q3 12 18 16q14 4 21 -10q15 -22 12 -43q0 -14 -6 -23q-4 -6 -16 -14q-19 -13 -41 -2zM356 981h2q-12 -9 -27.5 -5.5t-23.5 17.5q-7 14 -4 29q0 8 6 14q0 9 2 13q7 14 25 18q9 3 18 0q10 -5 13 -8q8 -8 12 -23q3 -17 -2 -28q-1 -2 -3 -6.5
t-3 -6.5q-5 -7 -15 -14zM346 1047l-6 6l6 -6v0zM334 1018v0v0z" />
    <glyph glyph-name="igrave" unicode="&#xec;" horiz-adv-x="464" 
d="M483 672h-10q4 12 15.5 14.5t20.5 -5t5 -19.5q-121 -352 -233 -541q-15 -26 -31.5 -47.5t-39.5 -43.5t-46.5 -33.5t-52.5 -11.5t-58 17q-24 14 -41.5 37.5t-26.5 45.5t-15 55.5t-7.5 54t-3.5 55.5q-8 232 47 510q8 40 21 86q14 47 28 61q20 18 56.5 27t60.5 -2
q23 -12 23 -53q0 -21 -9 -86q-24 -145 -36 -254.5t-11.5 -246t21.5 -255.5q40 19 90 100q30 53 57 105q82 163 176 430zM211 1010l-2 4q-29 -7 -62 1.5t-55 22.5t-51 37q-6 5 -5 14t7 15q12 12 29 0q43 -34 63 -43q18 -7 35 -10q14 -3 31 0q13 3 20.5 -6t5 -20.5
t-15.5 -14.5z" />
    <glyph glyph-name="iacute" unicode="&#xed;" horiz-adv-x="464" 
d="M483 672h-10q4 12 15.5 14.5t20.5 -5t5 -19.5q-121 -352 -233 -541q-15 -26 -31.5 -47.5t-39.5 -43.5t-46.5 -33.5t-52.5 -11.5t-58 17q-24 14 -41.5 37.5t-26.5 45.5t-15 55.5t-7.5 54t-3.5 55.5q-8 232 47 510q8 40 21 86q14 47 28 61q20 18 56.5 27t60.5 -2
q23 -12 23 -53q0 -21 -9 -86q-24 -145 -36 -254.5t-11.5 -246t21.5 -255.5q40 19 90 100q30 53 57 105q82 163 176 430zM47 971l2 2q-19 -4 -26 16q-2 8 2.5 16t11.5 9q81 16 135 67q6 6 14.5 6t14.5 -6t6 -15t-6 -15q-68 -62 -154 -80z" />
    <glyph glyph-name="icircumflex" unicode="&#xee;" horiz-adv-x="464" 
d="M483 672h-10q4 12 15.5 14.5t20.5 -5t5 -19.5q-121 -352 -233 -541q-15 -26 -31.5 -47.5t-39.5 -43.5t-46.5 -33.5t-52.5 -11.5t-58 17q-24 14 -41.5 37.5t-26.5 45.5t-15 55.5t-7.5 54t-3.5 55.5q-8 232 47 510q8 40 21 86q14 47 28 61q20 18 56.5 27t60.5 -2
q23 -12 23 -53q0 -21 -9 -86q-24 -145 -36 -254.5t-11.5 -246t21.5 -255.5q40 19 90 100q30 53 57 105q82 163 176 430zM10 983h2q-9 -9 -19.5 -4.5t-13 14t4.5 19.5q56 59 135 49q72 -9 114 -78q6 -11 -1 -20.5t-17.5 -9.5t-17.5 10q-29 51 -88 57t-99 -37z" />
    <glyph glyph-name="idieresis" unicode="&#xef;" horiz-adv-x="464" 
d="M483 672h-10q4 12 15.5 14.5t20.5 -5t5 -19.5q-121 -352 -233 -541q-15 -26 -31.5 -47.5t-39.5 -43.5t-46.5 -33.5t-52.5 -11.5t-58 17q-24 14 -41.5 37.5t-26.5 45.5t-15 55.5t-7.5 54t-3.5 55.5q-8 232 47 510q8 40 21 86q14 47 28 61q20 18 56.5 27t60.5 -2
q23 -12 23 -53q0 -21 -9 -86q-24 -145 -36 -254.5t-11.5 -246t21.5 -255.5q40 19 90 100q30 53 57 105q82 163 176 430zM109 27zM16 1024v-4l-6 12q-3 14 0 27q3 9 8 14q4 5 15 8q4 2 12 2h6q4 -2 8 -6h7q14 0 20 -12q4 -4 4 -6q3 -9 0 -19q-3 -13 -12 -22h-2l-6 -6
q-9 -6 -17 -6q-15 0 -24 6l-6 6q-1 1 -3.5 3t-3.5 3zM82 1051v6v-6zM35 1055zM172 993l2 2q-27 -3 -39 29q-3 14 0 27l6 18q0 4 4 8q1 1 3.5 3t3.5 3q10 5 16 2l12 -6q2 0 6 -4q9 -5 11 -8q15 -18 12 -35q0 -4 -4 -16q-4 -8 -6 -10q-10 -13 -27 -13z" />
    <glyph glyph-name="ntilde" unicode="&#xf1;" horiz-adv-x="843" 
d="M860 641h-8q3 13 14.5 15.5t20.5 -5t6 -20.5q-30 -125 -90 -283q-63 -164 -125 -285q-33 -75 -66 -112q-32 -49 -84.5 -67.5t-107.5 3.5q-33 14 -55.5 38t-33 58.5t-16 65t-3 75t5 69t8.5 65.5q5 38 13 78.5t18.5 93t15.5 78.5q12 62 18 123q4 46 4 67q0 33 -10 45
q-4 -4 -12.5 -12t-12.5 -12q-45 -52 -96 -152q-86 -167 -110 -356q0 -55 -19 -92q-19 -38 -58.5 -49.5t-74.5 10.5q-22 0 -25 20q-16 221 -4 426q3 52 9 105q5 67 14 88q15 35 54 57t77 19q6 0 12.5 -5t7.5 -12q5 -27 7.5 -60t2.5 -54t-0.5 -62.5t-0.5 -56.5v-148
q36 115 92 213q128 231 262 224q37 -1 61 -24t29 -58q3 -21 -6 -86q-6 -39 -18.5 -117t-18.5 -117q-34 -230 -39 -287q-8 -87 -2 -131q4 -41 23 -57q6 -6 20 0q13 5 23 14q14 15 28 37t20.5 35t21.5 44.5t18 37.5q138 290 190 516zM416 768v-6v6v0zM506 -86h-6h6v0zM188 887
q-10 7 -10 17.5t10 18t21 1.5q14 -8 30 -8t32 5.5t30 12.5t30.5 16t26.5 13q78 31 158 -7q19 -8 9 -26t-29 -10q-71 34 -156 -13q-21 -11 -37 -18t-36.5 -12t-40.5 -2.5t-38 12.5z" />
    <glyph glyph-name="ograve" unicode="&#xf2;" horiz-adv-x="565" 
d="M596 670h4q11 8 20.5 1.5t10.5 -18t-8 -20.5q-110 -79 -248 -115q-16 -146 -92 -266q-15 -23 -31.5 -43.5t-39.5 -41t-46 -30.5t-51 -13t-54 13q-45 23 -73 101q-28 79 -25 159q5 96 53 199q-31 49 -25.5 104.5t42.5 102.5q58 74 145 74q58 1 99 -28.5t61 -79t28.5 -101
t6.5 -107.5q116 33 223 109zM291 360h-2q32 76 41 150h-6q-99 -14 -174 4l-7 -14v-6q-52 -172 -4 -322q44 13 92 82q37 54 60 106zM332 551h2v43q-4 147 -60 203q-49 49 -127 32q-39 -9 -68.5 -38.5t-41.5 -69.5q-11 -41 4 -80q4 8 12.5 24.5t12.5 24.5q4 6 12 10
q21 14 58 3t48 -31q19 -30 -4 -78q-3 -7 -9 -21.5t-9 -21.5q76 -17 170 0zM123 979l-2 -2q-10 7 -10 17.5t9.5 18t20.5 1.5q89 -50 189 -74q13 -3 15.5 -14.5t-5.5 -20.5t-21 -6q-103 26 -196 80z" />
    <glyph glyph-name="oacute" unicode="&#xf3;" horiz-adv-x="565" 
d="M596 670h4q11 8 20.5 1.5t10.5 -18t-8 -20.5q-110 -79 -248 -115q-16 -146 -92 -266q-15 -23 -31.5 -43.5t-39.5 -41t-46 -30.5t-51 -13t-54 13q-45 23 -73 101q-28 79 -25 159q5 96 53 199q-31 49 -25.5 104.5t42.5 102.5q58 74 145 74q58 1 99 -28.5t61 -79t28.5 -101
t6.5 -107.5q116 33 223 109zM291 360v2q32 76 41 150h-6q-99 -14 -174 4q-1 -3 -3.5 -9t-3.5 -9q-54 -176 -6 -326q44 13 92 82q37 54 60 106zM334 553h2v43q-4 147 -60 203q-49 49 -126 32q-39 -9 -69 -39t-42 -69q-11 -41 4 -80q4 8 12.5 24.5t12.5 24.5q4 6 12 10
q21 14 58 3t48 -31q19 -30 -4 -78q-3 -7 -9 -21.5t-9 -21.5q76 -17 170 0zM63 897v2q-9 0 -15.5 6.5t-6.5 14.5q0 9 6 14.5t14 5.5q99 6 183 68q6 4 14.5 1t13.5 -10q10 -16 -6 -28q-89 -65 -203 -74z" />
    <glyph glyph-name="ocircumflex" unicode="&#xf4;" horiz-adv-x="567" 
d="M598 670h4q11 8 20.5 1.5t10.5 -18t-8 -20.5q-110 -79 -248 -115q-16 -146 -92 -266q-15 -23 -31.5 -43.5t-39.5 -41t-46 -30.5t-51 -13t-54 13q-45 23 -73 101q-28 79 -25 159q5 96 53 199q-31 49 -25.5 104.5t42.5 102.5q58 74 145 74q58 1 99 -28.5t61 -79t28.5 -101
t6.5 -107.5q116 33 223 109zM94 170zM293 360v2q32 76 41 150h-6q-99 -14 -174 4q-1 -3 -3.5 -9t-3.5 -9q-54 -176 -6 -326q44 13 92 82q37 54 60 106zM336 553h2v43q-4 148 -59 203q-49 49 -127 32q-39 -9 -69 -39t-42 -69q-11 -41 4 -80q4 8 12.5 24.5t12.5 24.5
q4 6 12 10q21 14 58 3t48 -31q19 -30 -4 -78q-3 -7 -9 -21.5t-9 -21.5q76 -17 170 0zM43 881v-4q-8 -10 -19 -10t-18 9.5t0 20.5q21 38 72 66q53 29 94 34q33 5 66.5 -6t55.5 -25.5t54 -39.5q9 -8 5.5 -18.5t-13.5 -13.5t-21 3q-82 70 -139 61q-28 -4 -78 -28
q-43 -22 -59 -49z" />
    <glyph glyph-name="otilde" unicode="&#xf5;" horiz-adv-x="567" 
d="M598 670h4q11 8 20.5 1.5t10.5 -18t-8 -20.5q-110 -79 -248 -115q-16 -146 -92 -266q-15 -23 -31.5 -43.5t-39.5 -41t-46 -30.5t-51 -13t-54 13q-45 23 -73 101q-28 79 -25 159q5 96 53 199q-31 49 -25.5 104.5t42.5 102.5q58 74 145 74q58 1 99 -28.5t61 -79t28.5 -101
t6.5 -107.5q116 33 223 109zM29 254zM295 360v2q32 76 41 150h-6q-99 -14 -174 4l-6 -18q-54 -178 -7 -326q45 13 93 82q35 50 59 106zM338 553h2v43q-4 148 -59 203q-49 49 -127 32q-39 -9 -69 -39t-42 -69q-11 -41 4 -80q4 8 12.5 24.5t12.5 24.5q4 6 12 10q21 14 58 3
t48 -31q19 -30 -4 -78q-3 -7 -9 -21.5t-9 -21.5q76 -17 170 0zM49 909l-2 4q-3 -13 -14.5 -15.5t-20.5 5.5t-6 21q7 36 64 57q46 19 90 16q16 -1 32 -5t35.5 -10t30.5 -9q41 -9 92 26q11 7 21 0t10 -17.5t-10 -18.5q-52 -33 -82 -35q-11 -1 -23.5 1t-20.5 4t-23 6.5t-21 6.5
q-42 13 -84 4q-63 -13 -68 -41z" />
    <glyph glyph-name="odieresis" unicode="&#xf6;" horiz-adv-x="565" 
d="M596 670h4q11 8 20.5 1.5t10.5 -18t-8 -20.5q-110 -79 -248 -115q-16 -146 -92 -266q-15 -23 -31.5 -43.5t-39.5 -41t-46 -30.5t-51 -13t-54 13q-45 23 -73 101q-28 79 -25 159q5 96 53 199q-31 49 -25.5 104.5t42.5 102.5q58 74 145 74q58 1 99 -28.5t61 -79t28.5 -101
t6.5 -107.5q116 33 223 109zM291 360v2q32 76 41 150h-6q-99 -14 -174 4q-1 -3 -3.5 -9t-3.5 -9q-54 -176 -6 -326q44 13 92 82q37 54 60 106zM334 553h2v43q-4 147 -60 203q-49 49 -126 32q-39 -9 -69 -39t-42 -69q-11 -41 4 -80q4 8 12.5 24.5t12.5 24.5q4 6 12 10
q21 14 58 3t48 -31q19 -30 -4 -78q-3 -7 -9 -21.5t-9 -21.5q76 -17 170 0zM66 922h-5q-9 9 -12 22q-3 14 2 25l6 12q5 7 15 14q5 5 16 2q2 0 6 -4h6q15 -3 27 -12q11 -9 13 -24t-5 -27q-8 -12 -18 -17q-8 -4 -13 -4q-8 -3 -16 0q-4 0 -12 4q-1 1 -3 3.5t-3 3.5q-4 0 -4 2z
M94 952v0v0v0v0v0zM256 918l4 2q-20 -3 -33 10q-10 10 -14 33v6v6q4 12 8 16q13 13 29 13h6q6 0 12 -3q11 -3 17 -10q8 -12 10 -18q7 -17 -4 -35q-5 -7 -15 -14q-9 -6 -20 -6z" />
    <glyph glyph-name="divide" unicode="&#xf7;" horiz-adv-x="765" 
d="M645 655q13 -1 18 -11.5t0 -20.5t-18 -9q-269 15 -522 -2q-13 -1 -18 9t0 20.5t18 11.5q253 17 522 2zM471 735q-19 8 -31 24t-12 36q0 29 21 41q14 7 28 4q8 4 12 4q28 3 46 -15q14 -14 16 -35t-10 -36q-13 -16 -32.5 -23t-37.5 0zM270 565q28 3 45 -14
q14 -14 16.5 -35.5t-9.5 -36.5q-13 -16 -32 -22.5t-38 0.5q-43 17 -43 59q0 30 20 41q14 7 29 4q8 4 12 4z" />
    <glyph glyph-name="oslash" unicode="&#xf8;" horiz-adv-x="561" 
d="M594 670l2 -2q11 8 20.5 1.5t10 -18t-8.5 -20.5q-111 -79 -247 -115q-16 -146 -92 -266q-36 -59 -86 -98q-3 -15 -9.5 -46t-9.5 -47q-2 -13 -13 -15.5t-20.5 5.5t-7.5 21q2 10 6 30.5t6 30.5q-45 -13 -86 8q-45 23 -73 101q-28 79 -25 159q5 96 53 199
q-31 49 -25.5 104.5t42.5 102.5q58 74 145 74q55 0 100 -33q11 62 13 104q1 13 11.5 18t20.5 0t9 -18q-2 -55 -17 -141q62 -87 58 -248q116 33 223 109zM76 700l2 2q21 14 58 3t48 -31q19 -30 -4 -78q-3 -7 -9 -21.5t-9 -21.5q19 -4 61 -8q6 31 18.5 92.5t18.5 91.5
q2 11 6 33.5t6 34.5q-49 49 -127 32q-39 -9 -68.5 -38.5t-41.5 -69.5q-11 -41 4 -80q4 8 12 24.5t12 24.5q3 5 13 10zM154 178l4 2q10 54 30.5 162.5t30.5 163.5q-49 4 -72 10l-6 -18q-54 -176 -6 -326q3 1 9.5 3t9.5 3zM293 360l-2 2q32 76 41 150h-6q-30 -6 -62 -6
q-9 -47 -27.5 -141.5t-27.5 -141.5q4 5 12 15.5t12 15.5q37 54 60 106zM334 553h-4v43q-4 98 -27 152v-13q-6 -32 -18.5 -95t-18.5 -95q44 4 68 8z" />
    <glyph glyph-name="ugrave" unicode="&#xf9;" horiz-adv-x="796" 
d="M813 655l-4 -10q4 12 15.5 14.5t20.5 -5t5 -19.5q-96 -284 -197 -475q-51 -100 -83 -136.5t-68 -52.5q-62 -28 -115 9t-72 104q-14 49 -18 154q-3 73 4 165q4 56 8 86q-5 -13 -15 -36.5t-15 -36.5q-39 -100 -68 -150q-45 -88 -86 -108q-45 -22 -87 3t-56 72
q-19 63 -19 168q0 87 10 189q9 92 15 119q11 45 41 61q22 13 54 16t54 -10q20 -13 21.5 -46t-4.5 -54q-3 -33 -11.5 -98.5t-11.5 -98.5q-9 -132 0 -264q14 14 33 47q46 81 102 240q58 162 84 260q2 9 6 27.5t6 27.5q8 39 19 57q14 22 42.5 34t57.5 12q31 1 40 -20.5t7 -57.5
q-2 -24 -6 -52t-9.5 -62t-8.5 -52q-62 -382 -12 -658q41 20 81 86q41 65 97 187q73 164 143 364zM106 739l3 -2q0 2 -3 2zM348 115v6v-6zM303 911l-2 2q-56 -12 -109 11.5t-81 72.5q-6 11 1 21t17.5 10t17.5 -10q20 -38 62 -57q44 -17 82 -9q19 4 26 -16q2 -8 -2.5 -16
t-11.5 -9z" />
    <glyph glyph-name="uacute" unicode="&#xfa;" horiz-adv-x="796" 
d="M813 655l-4 -10q4 12 15.5 14.5t20.5 -5t5 -19.5q-96 -284 -197 -475q-51 -100 -83 -136.5t-68 -52.5q-62 -28 -115 9t-72 104q-14 49 -18 154q-3 73 4 165q4 56 8 86q-5 -13 -15 -36.5t-15 -36.5q-39 -100 -68 -150q-45 -88 -86 -108q-45 -22 -87 3t-56 72
q-19 63 -19 168q0 87 10 189q9 92 15 119q11 45 41 61q22 13 54 16t54 -10q20 -13 21.5 -46t-4.5 -54q-3 -33 -11.5 -98.5t-11.5 -98.5q-9 -132 0 -264q14 14 33 47q46 81 102 240q58 162 84 260q2 9 6 27.5t6 27.5q8 39 19 57q14 22 42.5 34t57.5 12q31 1 40 -20.5t7 -57.5
q-2 -24 -6 -52t-9.5 -62t-8.5 -52q-62 -382 -12 -658q41 20 81 86q41 65 97 187q73 164 143 364zM479 866h-2q-3 6 -10 6zM442 2zM133 862l6 -2q-11 7 -11.5 17.5t9.5 18t21 1.5q27 -14 73 6q32 17 74 53q15 16 29 2q6 -6 6 -15t-6 -15q-52 -45 -92 -62q-66 -26 -109 -4z
" />
    <glyph glyph-name="ucircumflex" unicode="&#xfb;" horiz-adv-x="798" 
d="M815 655l-4 -10q4 12 15.5 14.5t20.5 -5t5 -19.5q-96 -284 -197 -475q-51 -100 -83 -136.5t-68 -52.5q-62 -28 -115 9t-72 104q-14 49 -18 154q-3 73 4 165q4 56 8 86q-5 -13 -15 -36.5t-15 -36.5q-39 -100 -68 -150q-45 -88 -86 -108q-45 -22 -87 3t-56 72
q-19 63 -19 168q0 87 10 189q9 92 15 119q11 45 41 61q22 13 54 16t54 -10q20 -13 21.5 -46t-4.5 -54q-3 -33 -11.5 -98.5t-11.5 -98.5q-9 -132 0 -264q14 14 33 47q46 81 102 240q58 162 84 260q2 9 6.5 27.5t6.5 27.5q8 41 18 57q14 22 42.5 34t57.5 12q31 1 40 -20.5
t7 -57.5q-2 -24 -6 -52t-9.5 -62t-8.5 -52q-62 -382 -12 -658q41 20 81 86q41 65 97 187q73 164 143 364zM446 0zM92 918l4 2q-3 -13 -14.5 -15.5t-20.5 5t-6 20.5q15 54 38.5 88t68.5 41q91 13 160 -82q4 -6 1 -15t-10 -14q-16 -10 -28 6q-53 73 -117 62q-23 -4 -39 -21.5
t-22.5 -33t-14.5 -43.5z" />
    <glyph glyph-name="udieresis" unicode="&#xfc;" horiz-adv-x="796" 
d="M813 655l-4 -10q4 12 15.5 14.5t20.5 -5t5 -19.5q-96 -284 -197 -475q-51 -100 -83 -136.5t-68 -52.5q-62 -28 -115 9t-72 104q-14 49 -18 154q-3 73 4 165q4 56 8 86q-5 -13 -15 -36.5t-15 -36.5q-39 -100 -68 -150q-45 -88 -86 -108q-45 -22 -87 3t-56 72
q-19 63 -19 168q0 87 10 189q9 92 15 119q11 45 41 61q22 13 54 16t54 -10q20 -13 21.5 -46t-4.5 -54q-3 -33 -11.5 -98.5t-11.5 -98.5q-9 -132 0 -264q14 14 33 47q46 81 102 240q58 162 84 260q2 9 6 27.5t6 27.5q8 39 19 57q14 22 42.5 34t57.5 12q31 1 40 -20.5t7 -57.5
q-2 -24 -6 -52t-9.5 -62t-8.5 -52q-62 -382 -12 -658q41 20 81 86q41 65 97 187q73 164 143 364zM334 313v6v19v-12v-13zM342 143l6 2q3 -23 10 -53q-1 3 -3 10.5t-3 10.5q-1 5 -2 15t-2 15h-6zM446 4v-4h7v6q-2 -2 -7 -2zM113 940v2q-5 9 -9 27q-3 11 0 22q3 9 11 17
q2 2 10 6l6 6q17 17 39 8q24 -14 20 -53q-5 -25 -10 -33q-13 -20 -35 -20q-21 0 -32 18zM145 977v-6v6zM244 958l2 3q-19 23 -13 47q-6 15 0 30q9 22 33 25q17 2 37 -14q7 -7 10 -13q10 -15 11 -18q10 -20 4 -39t-23 -29q-15 -9 -33 -7t-28 15zM274 999v0v0zM274 999l15 2
v-6v0v0v0v0v0v0v0v0v0v0v6q-1 1 -3 3.5t-3 3.5t-3.5 3t-3.5 3v0q0 -11 -2 -15v0z" />
    <glyph glyph-name="yacute" unicode="&#xfd;" horiz-adv-x="849" 
d="M879 686l12 -6q9 8 20.5 3.5t14 -14t-5.5 -18.5q-224 -180 -345 -289q-1 -17 -6 -94q-7 -104 -10.5 -149t-14 -131t-28.5 -153t-45 -130q-78 -179 -178 -209q-4 -2 -12 -2q-66 -13 -121.5 31.5t-69.5 112.5q-28 127 70 307q65 123 194 262l49 49q13 172 13 319
q0 111 -2 166q-3 -10 -10.5 -30.5t-10.5 -30.5q-54 -155 -100 -258q-59 -134 -92 -180q-44 -68 -82 -78q-32 -9 -65 4.5t-50 42.5q-15 25 -23.5 62t-10.5 61t-3 67q-3 106 10 228q0 4 2 26t3 31.5t4.5 26.5t8.5 29.5t13 23.5q18 26 62 33q48 5 63 -2q27 -12 27 -54
q1 -39 -9.5 -111.5t-11.5 -86.5q-16 -163 -4 -314q9 10 37 48q23 38 39 71q35 72 82 195q78 202 108 325q0 1 1 3.5t1 3.5q3 19 27 28q36 15 94 15h6q16 4 19 -15q31 -194 20 -477q83 74 310 258zM373 -96l2 2q21 166 31 289q-4 -5 -12.5 -14.5t-12.5 -14.5
q-117 -127 -180 -250q-99 -190 -51 -303q13 -31 38 -53.5t56 -26.5q15 -3 30 0q71 152 99 371zM457 854h2v6h-2v-2v-4zM205 1065l6 -2q-11 7 -11.5 17.5t9 18t20.5 1.5q27 -14 74 6q32 17 74 53q15 15 29 2q6 -6 6 -15.5t-6 -15.5q-49 -42 -93 -61q-65 -26 -108 -4z" />
    <glyph glyph-name="ydieresis" unicode="&#xff;" horiz-adv-x="847" 
d="M877 686l12 -6q9 8 20.5 3.5t14 -14t-5.5 -18.5q-224 -180 -345 -289q-1 -17 -6 -94q-7 -104 -10.5 -149t-14 -131t-28.5 -153t-45 -130q-78 -179 -178 -209q-4 -2 -12 -2q-66 -13 -121.5 31.5t-69.5 112.5q-28 127 70 307q65 123 194 262l49 49q13 172 13 319
q0 111 -2 166q-3 -10 -10.5 -30.5t-10.5 -30.5q-54 -155 -100 -258q-59 -134 -92 -180q-44 -68 -82 -78q-32 -9 -65 4.5t-50 42.5q-15 25 -23.5 62t-10.5 61t-3 67q-3 106 10 228q0 4 2 26t3 31.5t4.5 26.5t8.5 29.5t13 23.5q18 26 62 33q48 5 63 -2q27 -12 27 -54
q1 -39 -9.5 -111.5t-11.5 -86.5q-16 -163 -4 -314q9 10 37 48q23 38 39 71q35 72 82 195q78 202 108 325q0 1 1 3.5t1 3.5q3 19 27 28q36 15 94 15h6q16 4 19 -15q31 -194 20 -477q82 74 310 258zM371 -96l2 2q18 142 30 289q-4 -5 -12 -14.5t-12 -14.5q-117 -127 -180 -250
q-100 -191 -52 -303q13 -31 38.5 -53.5t56.5 -26.5q15 -3 30 0q71 152 99 371zM455 854h2v6h-2v-2v-4zM166 938v2q-2 5 -8 27q-3 11 0 22q4 11 10 17q2 2 10 6l6 6q17 17 39 8q25 -14 21 -53q-4 -22 -11 -33q-13 -20 -34 -20q-22 0 -33 18zM199 975v-6v6zM297 956l2 2
q-18 22 -12 48q-6 15 0 30q9 22 32 25q17 2 37 -14q9 -9 11 -13q8 -12 10 -18q10 -20 4 -39t-23 -29q-15 -9 -33 -7t-28 15zM328 997v0v0zM328 997l14 2v-6v0v0v0v0v0v0v0v0v0v0v6q-1 1 -3 3.5t-3 3.5l-6 6v0q0 -11 -2 -15v0z" />
    <glyph glyph-name="dotlessi" unicode="&#x131;" horiz-adv-x="464" 
d="M483 672h-10q4 12 15.5 14.5t20.5 -5t5 -19.5q-121 -352 -233 -541q-15 -26 -31.5 -47.5t-39.5 -43.5t-46.5 -33.5t-52.5 -11.5t-58 17q-24 14 -41.5 37.5t-26.5 45.5t-15 55.5t-7.5 54t-3.5 55.5q-8 232 47 510q8 40 21 86q14 47 28 61q20 18 56.5 27t60.5 -2
q23 -12 23 -53q0 -21 -9 -86q-24 -145 -36 -254.5t-11.5 -246t21.5 -255.5q40 19 90 100q30 53 57 105q82 163 176 430zM109 27z" />
    <glyph glyph-name="OE" unicode="&#x152;" horiz-adv-x="2265" 
d="M2300 694l-2 2q3 18 21 15q18 -4 20 -21v-6q-21 -128 -86 -317q-66 -188 -150 -361q-201 -404 -506 -461q-101 -19 -197.5 7t-170.5 94q-143 132 -174 370q-39 281 80 527q8 18 22 43q-149 -48 -297 -60q-78 -442 -305 -723q-73 -88 -168.5 -133.5t-189.5 -7.5
q-58 24 -111 84q-139 165 -135 514q3 239 72 455q20 66 55 159q-52 115 -51.5 242.5t51.5 243.5q73 164 192 225q88 46 195 43q127 -3 221 -76q112 -88 160 -268q85 -323 24 -715q172 13 322 70q126 189 326 246q-90 41 -150 134.5t-86 205.5q-25 109 2 215.5t102 189.5
q70 76 166.5 114t196.5 28h8q6 0 12 -3q81 -13 144.5 -64.5t97.5 -129.5q32 -70 30.5 -154t-40.5 -151q-8 -10 -19 -10t-18 9.5t0 20.5q38 70 35 149.5t-43 149.5q-66 115 -201 137q-112 -22 -189.5 -110.5t-103.5 -206.5q-25 -124 2 -274q15 -79 40.5 -136t76.5 -90l6 -6
q10 -5 12 -15.5t-6 -19.5q-127 -124 -209 -262q-81 -137 -115 -293t-9 -305q24 -135 97.5 -248.5t186.5 -177.5q95 9 178 53q72 37 132.5 92t108 124t82.5 134t71 148q56 123 118 309q49 150 66 252zM168 -205h2q0 -4 4 -12l-6 24v-12zM195 -289zM633 4q130 233 182 522
q-87 -3 -170 6q-250 24 -412 146q-79 -242 -79 -481q0 -225 90 -500q70 -12 135 18q79 37 138.5 111.5t115.5 177.5zM227 1116l-2 -2q0 2 2 2v0zM840 725l-9 -6q16 189 -4 358q-23 209 -86 326q-68 123 -182 164q-90 33 -199 10q-90 -21 -159 -89.5t-104 -156t-40 -180.5
q-6 -111 33 -217q46 108 98 211q2 5 11 10q4 4 10 4q119 5 166 -12q36 -12 41 -39q5 -7 0 -23t-8 -22.5t-12.5 -21t-12.5 -19.5q-82 -144 -139 -303q34 -26 51 -35q198 -124 502 -113h24q14 88 19 154z" />
    <glyph glyph-name="oe" unicode="&#x153;" horiz-adv-x="962" 
d="M977 672l2 -2q4 13 15.5 15.5t20.5 -5.5t5 -21q-77 -259 -168 -423q-80 -145 -166 -211q-75 -57 -149 -60q-61 -3 -109 28t-70 87q-37 93 -41 227v19q-44 -94 -94 -146q-28 -30 -64.5 -44.5t-75.5 -7t-65 41.5q-37 49 -49 119.5t-4 140.5q11 84 51 168q-25 38 -26 84
t22 90q46 87 127 105q85 17 144 -27q70 -51 86 -191v-18q70 179 184 246q41 24 91.5 30.5t97 -13.5t63.5 -68q13 -38 6 -81.5t-29 -76.5q-63 -95 -217 -55q-24 -79 -39 -162q-36 -198 -12 -455v-4q51 -1 105 29.5t94 74.5q68 75 131 209q66 138 133 357zM584 674l-2 2
q-1 -2 -3.5 -6t-3.5 -6q144 -37 183 61q20 43 6 88t-62 59q-4 2 -12 2q0 -4 -2 -6q-28 -24 -61 -92q-27 -57 -43 -102zM317 471l2 4q1 7 3.5 21.5t3.5 21.5q-108 -18 -185 0l-6 -18q-54 -176 -6 -326q53 16 109 102q57 87 79 195zM330 559l2 -2q3 62 -6 121q-20 112 -78 147
q-62 33 -123.5 4t-85.5 -94q-15 -47 0 -88q4 8 12 24.5t12 24.5q5 7 13 11q21 14 58 2.5t48 -31.5q19 -30 -4 -78q-3 -7 -9 -21.5t-9 -21.5q72 -16 170 2z" />
    <glyph glyph-name="Scaron" unicode="&#x160;" horiz-adv-x="1044" 
d="M1098 754l2 2q11 7 20.5 0t9.5 -18t-10 -19q-65 -38 -119 -62q-99 -47 -264 -104q50 -194 -16 -416q-39 -128 -116.5 -228.5t-190.5 -150.5q-73 -32 -153.5 -37.5t-158.5 24.5t-122 97q-64 101 -21 252q35 129 137 217q82 72 186.5 121t245.5 96q-33 66 -88 135.5
t-99.5 114t-117.5 111.5q-57 53 -98 96.5t-83.5 100.5t-68 119.5t-32.5 129.5q-15 139 49 260.5t188 180.5q81 38 167 46.5t171 -18.5t146 -90q2 -2 2 -6q81 -78 94 -219q1 -13 -9 -18t-20.5 0t-11.5 18q-7 62 -25 108q-29 72 -93 110t-144 36q-92 -2 -172.5 -53
t-120.5 -134q-24 -50 -26 -105t12.5 -103.5t43 -98.5t61 -89.5t71.5 -78.5q32 -31 99 -91.5t106 -97.5t86.5 -96.5t76.5 -119.5q22 -43 33 -82q238 79 373 160zM565 -76zM541 -29l-2 -2q45 114 52 236.5t-28 238.5q-5 18 -16 45q-9 -3 -27.5 -9t-27.5 -9q-80 -29 -130 -50
t-118.5 -57t-118.5 -82.5t-82 -103.5q-35 -61 -47 -127t4 -135q18 -62 72 -99.5t123 -47.5q144 -21 274 69q41 59 68 127q0 2 4 6zM690 176h-2q1 3 3 9.5t3 9.5q0 -3 -4 -7v-12zM158 1970l6 -2q-76 48 -137 109q-8 9 -4.5 19.5t13 13t19.5 -4.5q50 -50 121 -98
q90 -59 141 -63q54 -4 142 61q67 50 112 104q8 9 18.5 6t13.5 -13.5t-3 -20.5q-56 -65 -127 -115q-92 -68 -160 -63q-65 5 -155 67z" />
    <glyph glyph-name="scaron" unicode="&#x161;" horiz-adv-x="628" 
d="M662 682l-3 2q12 6 22 -1.5t10 -18t-11 -17.5q-256 -137 -363 -217q28 -44 43 -80q75 -177 27 -342q-23 -77 -71 -141t-115 -98q-82 -42 -146 -15q-66 28 -96 99q-23 51 -14 112q19 143 137 293q38 50 80 92q-14 21 -30.5 43.5t-37 49.5t-31.5 42q-58 79 -77 127
q-22 54 -19 118.5t29 115.5q41 78 131 104q88 24 156 -12q46 -24 64.5 -78.5t-9.5 -99.5q-8 -10 -19 -10t-18 9.5t0 20.5q16 27 7.5 61t-34.5 52q-31 22 -73 25t-90 -17q0 -1 -5 -6q-62 -64 9 -199q16 -33 80 -110q74 -87 100 -121q115 84 367 217zM240 41l-4 -4
q31 133 -54 278q-75 -75 -125 -159q-43 -70 -65 -152q-21 -85 4 -133v0q9 -19 31 -31q36 -22 74.5 -1t70.5 61q49 61 68 141zM129 1040l4 -4q-92 -5 -153 97q-4 8 -1 16.5t11 11.5q15 9 26 -10q46 -77 111 -72q23 2 40.5 18.5t25 33t16.5 43.5q5 12 16.5 13t19.5 -7.5
t3 -20.5q-19 -51 -46 -83.5t-73 -35.5z" />
    <glyph glyph-name="Ydieresis" unicode="&#x178;" horiz-adv-x="1165" 
d="M1217 756l10 -6q12 6 22 -1.5t9.5 -18t-11.5 -17.5q-18 -10 -54.5 -31t-55.5 -31q-183 -106 -299 -188q-16 -179 -54 -328q-32 -129 -84 -237q-61 -125 -137 -179q-56 -40 -121.5 -28t-99.5 73q-22 39 -27 85.5t5 92.5t27.5 87.5t41.5 79.5q85 134 256 270q23 199 35 598
q4 112 8 332q-44 -243 -90 -412q-47 -169 -94 -287q-65 -164 -125 -260q-37 -61 -89 -102t-112 -37q-57 4 -94 52t-64 118q-37 96 -53 281q-12 156 -6 313q12 307 100 618q6 19 25 15q2 2 8 2q94 8 131 -33q9 -10 14 -21.5t4.5 -27.5t-1.5 -24.5t-5.5 -28.5t-5.5 -25
q-2 -8 -14.5 -66.5t-15.5 -71.5t-14 -64.5t-14.5 -71.5t-12.5 -65t-13 -71.5t-10 -65.5t-9.5 -72.5t-6.5 -67.5q-12 -154 -6 -308q0 -3 1 -29.5t1.5 -33t2 -30.5t3.5 -33.5t5 -30t7 -32.5t9 -28.5t12 -30t16 -26.5q43 -8 96 29q30 21 57.5 59t39 59.5t36.5 75.5q5 9 7 14
q108 230 169.5 484.5t114.5 597.5q0 4 4 8q6 68 133 98q7 2 15 -2q14 -3 14 -18v-25q3 -132 -6 -528q-9 -410 -16 -526q-1 -9 -3.5 -28t-3.5 -28q183 123 388 234zM102 1559zM623 182v-4q8 45 20 135q-66 -57 -117 -110q-98 -102 -137 -197q-19 -44 -26.5 -93.5t7 -100.5
t58.5 -74l12 -6q134 161 183 450zM369 1874v-2v2zM358 1878zM358 1862zM365 1858v-3v3v0zM340 1810l6 5q-34 7 -41 40q-3 17 2 31q6 17 21 29h4l6 12q3 6 9.5 9.5t12.5 0.5q39 -13 50 -49q9 -30 -13 -59q-23 -26 -57 -19zM365 1882v16v-6v-6v-6v0v-8v0v0v0v0v0v6v4v0v0v0v6
v6v0v-6v-6v0zM352 1874v0v0zM621 1841v-2q-15 -10 -32.5 -4.5t-25.5 20.5t-4 37q3 10 10 25q-6 6 -6 14q0 7 6.5 14t14.5 7q27 0 43 -23q16 -19 16 -43q0 -29 -22 -45zM598 1876zM600 1874v0v0zM602 1894zM598 1878v2v0v0v0v6v0v4v0v0v-6v-6v0zM602 1888v-2v2v0z" />
    <glyph glyph-name="Zacute" unicode="&#x179;" horiz-adv-x="1720" 
d="M1763 752h-18q7 18 25 9q18 -11 12 -30q-30 -68 -68 -133q-153 -263 -407 -438q-214 -143 -476 -195q-182 -36 -380 -24l-99 6q-5 -5 -15 -15.5t-15 -15.5q-135 -128 -248 -197q-73 -47 -131 -24q-30 12 -44 39.5t-8 60.5q12 62 70 107t129 69q50 15 98 21q43 50 68 82
q282 358 467 706q-130 30 -264 15q-144 -16 -197 -93q-8 -10 -19 -10t-18 10t0 21q54 81 183 106q130 24 266 5q9 -2 74 -17q4 8 12 24.5t12 24.5q235 471 238 846q-2 2 -6.5 6t-6.5 6q-93 96 -268 103q-145 6 -291 -33q-290 -75 -499 -293q-13 -13 -28 1t-1 28
q56 59 110 102q245 192 553 230q72 12 151 6.5t147.5 -25t128 -67t94.5 -119.5t45 -156t-3.5 -171.5t-34 -160t-52.5 -159.5q-44 -122 -109 -252q8 -4 12 -4q150 -40 283 4q13 4 20.5 -5t5.5 -20.5t-14 -15.5q-124 -40 -258 -12q-17 3 -67 16q-77 -146 -183 -303
q-172 -261 -333 -430q7 -1 21.5 -3t21.5 -3q207 -16 399 24q293 61 516 236q129 101 232 232t167 278zM27 -201v2q20 23 61 70.5t62 71.5h-9q-72 -16 -127 -54q-82 -59 -82 -114q0 -36 33 -43q8 9 24.5 27.5t24.5 27.5l6 6q1 1 3.5 3t3.5 3zM428 1946v2q-13 -1 -18 9t0 20.5
t18 11.5q163 12 305 100q11 7 21 0t10 -18t-10 -19q-151 -94 -326 -106z" />
    <glyph glyph-name="zcaron" unicode="&#x17e;" horiz-adv-x="634" 
d="M670 688l-2 8q11 8 20.5 1.5t10 -18t-8.5 -20.5q-143 -108 -256 -221q43 -83 47 -207q4 -142 -39.5 -282t-128.5 -256q-106 -147 -211 -129q-64 11 -93.5 70.5t-24.5 129.5q8 129 94 277q65 115 168 246q11 15 57 67q-10 41 -35 66q-35 35 -127 31h-6q-9 -6 -18 0
q-10 3 -14.5 13t3.5 21l7 7q57 114 82 219q24 100 18 143q-8 54 -53 68q-31 -16 -60 -45q-89 -86 -120 -207q-3 -13 -14.5 -15.5t-20.5 5t-6 20.5q35 129 129 223q106 102 204 72q45 -13 75 -53.5t36 -90.5q10 -98 -76 -215q-24 -36 -61 -73q78 3 129 -39q22 -15 37 -37
q116 116 258 221zM289 33v4q21 132 18 266q-5 -6 -15.5 -18.5t-15.5 -18.5q-80 -102 -147 -213q-80 -136 -98 -246q-4 -39 -3.5 -82.5t24 -79.5t67.5 -40q131 164 170 428zM68 1141l6 -2q-11 7 -11.5 17.5t9 18t20.5 1.5q27 -14 74 6q32 17 74 53q15 15 28 2q6 -6 6 -15.5
t-6 -15.5q-50 -43 -92 -61q-65 -26 -108 -4z" />
    <glyph glyph-name="perthousand" unicode="&#x2030;" horiz-adv-x="1695" 
d="M1026 1434l6 2q-12 -26 -34 -77.5t-33 -76.5q-114 -260 -394 -889q-89 -199 -180 -399q-10 -22 -30.5 -67t-30.5 -68q-19 -40 -56 -45q-29 -3 -57.5 5.5t-42.5 30.5q-2 4 -2 11v6q77 217 143 379q214 533 609 1302q2 8 8.5 13t15.5 2q30 -7 72 -29q10 -5 16 -9t11 -11.5
t4 -16.5t-5 -19.5t-11.5 -25.5t-8.5 -18zM217 -137v-6v6zM322 922q-91 -7 -148 39q-53 43 -65 143q-11 88 24 151q26 47 72 78t100 39q4 2 10 2h19v0q67 -2 118 -39.5t70 -101.5q12 -38 4 -105q-10 -85 -63 -141q-53 -59 -141 -65zM225 1180h-4q-6 -60 7 -118t48 -99
q40 -3 78 6q67 18 101 88q26 51 26 125q0 36 -10 59q-19 44 -56 68t-85 24v0h-13q-83 -58 -92 -153zM858 473q67 -2 118.5 -39.5t70.5 -101.5q12 -38 4 -105q-9 -84 -64 -141q-54 -60 -141 -66q-91 -7 -148 39q-53 43 -65 144q-11 88 24 151q26 47 72 78t100 39q4 2 11 2h18
v0zM983 156l-4 -2q27 53 27 125q0 34 -11 59q-19 44 -56 68t-85 24v0h-12q-83 -58 -92 -154q-7 -69 10 -126q8 -15 10 -25v-6q13 -33 35 -58q37 -3 78 7q66 17 100 88zM1583 330q12 -38 4 -105q-10 -85 -63 -141q-54 -60 -142 -66q-90 -7 -147 39q-54 44 -66 144
q-11 87 25 151q26 47 72 78t100 39q4 2 10 2h19v0q67 -2 118 -39.5t70 -101.5zM1522 154h-4q26 51 26 125q0 36 -10 59q-19 44 -56 68t-85 24v0h-13q-83 -58 -92 -154q-6 -60 7 -118t48 -99q37 -3 78 7q67 18 101 88z" />
    <glyph glyph-name="Euro" unicode="&#x20ac;" horiz-adv-x="1202" 
d="M1059 731l2 2q3 13 14.5 15.5t20.5 -5t6 -20.5q-45 -188 -127 -375q-30 -67 -51 -108.5t-60 -93.5t-84 -85q-62 -46 -136 -61.5t-148 4.5q-71 21 -123.5 73.5t-81.5 125.5q-57 141 -60 327q0 45 2 68q-18 -1 -54.5 -3t-55.5 -3q-13 -1 -18 9t0 20t18 10q19 1 55.5 3
t54.5 3q9 98 33 188q-98 -4 -145 -6q-13 -1 -18 9t0 20t18 10q26 1 158 6q51 160 143 293.5t221 200.5q43 23 90 33t97.5 3t87.5 -36q35 -27 49 -69t10 -83t-21 -84q-5 -12 -17 -14t-20.5 5.5t-3.5 19.5q32 89 13 143q-20 58 -92 76q-24 6 -50 6q-68 -40 -157 -162
q-107 -149 -164 -328q110 0 221 -6q13 -1 18 -11.5t0 -20.5t-18 -9q-101 8 -231 8q-24 -90 -33 -188q147 0 264 -8q13 -1 18 -11.5t0 -20.5t-18 -9q-117 8 -268 8q-2 -23 -2 -68q1 -95 18 -181t61.5 -172t112.5 -142q67 7 126 44.5t100 94.5q62 85 131 262q52 126 94 293z
" />
    <glyph glyph-name="a.alt1" unicode="&#xf000;" horiz-adv-x="3651" 
d="M3670 670l2 -15q4 12 15.5 14.5t20.5 -5t5 -19.5q-96 -284 -197 -475q-21 -40 -29.5 -56t-29.5 -48.5t-43.5 -52t-48.5 -31.5q-62 -28 -115 8.5t-72 103.5q-14 49 -18 154q-3 74 4 166v18q-16 -45 -43 -102q-9 -20 -19.5 -38t-25.5 -39.5t-30 -35.5t-34 -25.5t-37 -10
t-40 11.5q-12 0 -17 8q-8 8 -12 14q-34 36 -49 109q-17 76 -14 163q0 47 6 93q-150 245 -424 391q-246 131 -524 149q-156 10 -318 -11.5t-356 -66.5q-50 -12 -158 -38t-166 -39.5t-159.5 -33.5t-168 -28.5t-160.5 -15.5t-168.5 -3t-160 17.5t-164.5 38.5q-12 4 -14 15.5
t5.5 20.5t20.5 5q304 -97 754 -16q83 15 186 39t190 45.5t185.5 44.5t190.5 39t187 26.5t193 9t191 -15.5q257 -37 482.5 -171t367.5 -343q31 125 119 213q32 32 71.5 43.5t81.5 -0.5q54 -18 86 -70v6q8 41 19 58q14 22 42.5 33.5t57.5 11.5q31 1 40 -20.5t7 -57.5
q-2 -24 -6 -52t-9.5 -62t-8.5 -52q-62 -384 -13 -657q42 21 82 86q43 68 97 186q72 161 143 365zM3205 739v-2q-22 84 -88 105q-34 -34 -72 -140q-27 -76 -39 -157q-25 -145 -8 -326q23 13 58 70q30 52 59 133q26 70 74 237q0 3 4 7q2 13 6 37zM3285 12z" />
    <glyph glyph-name="a.alt2" unicode="&#xf001;" horiz-adv-x="3682" 
d="M3725 922l4 -4q13 4 21 -5t5.5 -20.5t-15.5 -15.5q-306 -90 -731 -11q-127 24 -320.5 75t-332 88t-319.5 59.5t-337 7.5q-116 -11 -217 -40t-216.5 -94.5t-217.5 -164t-209.5 -256.5t-202.5 -365q-32 -69 -67.5 -117.5t-84.5 -70.5q-62 -28 -114.5 8.5t-71.5 103.5
q-14 49 -18 154q-3 74 4 166v18q-16 -45 -43 -102q-9 -20 -19.5 -38t-25.5 -39.5t-30 -35.5t-34 -25.5t-37.5 -10t-40.5 11.5q-11 0 -16 8q-8 8 -12 14q-35 38 -50 109q-17 76 -14 164q7 229 141 360q32 32 72 44t82 -1q54 -18 86 -70v7q8 41 18 57q14 22 43 33.5t58 11.5
q31 1 40 -20.5t7 -57.5q-2 -33 -13 -95.5t-12 -70.5q-62 -381 -12 -657q42 21 82 86q39 62 96 186q13 29 25 54t43 80.5t62 103.5t81.5 113t103.5 120.5t125.5 114.5t149.5 106q114 69 228 103t253 45q266 22 662 -76q73 -18 215.5 -56t228.5 -60t218 -46.5t231.5 -30.5
t219.5 3t228 41zM330 752v-2q-9 37 -32.5 65.5t-55.5 38.5q-35 -35 -72 -139q-26 -75 -39 -158q-25 -145 -8 -326q22 12 57 70q33 56 60 133q20 54 73 238q0 2 4 6q2 12 6.5 37t6.5 37zM410 25z" />
    <glyph glyph-name="b.alt1" unicode="&#xf002;" horiz-adv-x="3780" 
d="M3820 690l-3 -10q13 2 21 -7.5t5.5 -20.5t-15.5 -13q-154 -24 -318 -137v-25q-10 -156 -53 -284q-53 -151 -133 -228q-40 -40 -92 -61q-37 -15 -69.5 6.5t-41.5 62.5q-15 64 41 187q40 88 100 166q28 35 52 59q29 263 -54 424q-100 -36 -168 -180q-70 -146 -73 -320
q1 -6 3 -18.5t3 -18.5q3 -34 -8 -63t-41 -37q-26 -8 -48 3t-26 36q-53 179 -72 383q-151 234 -411 375q-246 131 -525 149q-156 10 -317.5 -11.5t-355.5 -66.5q-50 -12 -158 -38t-166 -39.5t-159.5 -33.5t-168 -28.5t-160.5 -15.5t-168.5 -3t-160 17.5t-164.5 38.5
q-12 4 -14 15.5t5.5 20.5t20.5 5q304 -97 754 -16q83 15 186 39t190 45.5t185.5 44.5t190.5 39t187 26.5t193 9t191 -15.5q243 -36 459 -158t360 -313q-7 106 -4 192q4 169 21 296t67 239q24 53 59.5 101.5t85 89.5t104.5 51.5t118 -11.5q106 -44 102 -194q-3 -125 -61 -268
q-52 -125 -133 -238q-85 -122 -181 -180q-2 -43 -2 -129q0 -90 2 -135q24 113 84 215q43 71 106.5 117t135.5 42q188 -12 188 -307q158 105 304 129zM3090 1569q-28 -20 -41 -33q13 13 41 33zM3082 1284l4 2q-68 -201 -82 -483q90 60 168 182q84 129 127 250q49 142 39 248
q-3 40 -24 67h-6q-86 5 -150 -98q-43 -73 -76 -168zM3193 -57l4 -2q79 125 113 370q-4 -5 -12.5 -15t-12.5 -15q-53 -74 -88 -158q-33 -83 -33 -118q0 -37 23 -56z" />
    <glyph glyph-name="b.alt2" unicode="&#xf003;" horiz-adv-x="3553" 
d="M3596 922l-10 -4q13 4 20.5 -5t5 -20.5t-15.5 -15.5q-306 -90 -731 -11q-127 24 -320.5 75t-332 88t-319.5 59.5t-337 7.5q-278 -27 -522.5 -169t-386.5 -372l-4 -4v-45v-25q-10 -156 -53 -284q-53 -151 -133 -228q-40 -40 -92 -61q-37 -15 -69.5 6.5t-41.5 62.5
q-15 64 41 187q40 88 100 166q32 40 51 59q30 265 -53 424q-100 -36 -168 -180q-70 -146 -73 -320q1 -6 3 -18.5t3 -18.5q3 -34 -8 -63t-41 -37q-26 -8 -48 3t-26 36q-88 306 -78 657q4 169 21 296t67 239q24 53 59.5 101.5t85 89.5t104.5 51.5t118 -11.5q106 -44 102 -194
q-3 -125 -61 -268q-51 -122 -134 -238q-86 -123 -180 -180q-2 -43 -2 -129q0 -90 2 -135q24 113 84 215q43 71 106.5 117t135.5 42q146 -8 180 -194q3 -12 6 -47q155 229 418 368q246 131 524 152q266 22 662 -76q73 -18 215.5 -56t228.5 -60t218 -46.5t231.5 -30.5t219.5 3
t228 41zM223 1575q-28 -20 -41 -33q13 13 41 33zM215 1290l4 2q-68 -201 -82 -483q90 60 168 182q84 129 127 250q49 142 39 248q-3 39 -25 67h-6q-85 5 -149 -98q-43 -73 -76 -168zM326 -51l4 -2q48 75 72 163.5t40 206.5l-24 -30q-53 -74 -88 -158l-6 -16q-7 -16 -8.5 -20
t-7 -20t-6.5 -23t-4 -21t-2 -22t2.5 -19t7 -19t13.5 -14q1 -1 3.5 -3t3.5 -3z" />
    <glyph glyph-name="c.alt1" unicode="&#xf004;" horiz-adv-x="3450" 
d="M3467 682v-4q4 13 15.5 15.5t20.5 -5t5 -20.5q-69 -232 -145 -385q-69 -138 -146 -215q-39 -40 -86.5 -66t-103 -32t-105.5 24q-67 39 -94 156q-25 106 -22 231q3 104 33 209q-149 237 -418 381q-246 131 -525 149q-156 10 -317.5 -11.5t-355.5 -66.5q-50 -12 -158 -38
t-166 -39.5t-159.5 -33.5t-168 -28.5t-160.5 -15.5t-168.5 -3t-160 17.5t-164.5 38.5q-12 4 -14 15.5t5.5 20.5t20.5 5q304 -97 754 -16q83 15 186 39t190 45.5t185.5 44.5t190.5 39t187 26.5t193 9t191 -15.5q257 -37 482.5 -171t367.5 -343q58 157 170 242
q26 20 54.5 33.5t62.5 18t61 -10.5q84 -42 31 -203q-4 -12 -15.5 -14.5t-20.5 5t-5 19.5q41 126 -10 154q-1 -1 -3.5 -3t-3.5 -3q-27 -24 -61 -93q-27 -57 -43 -102q-37 -103 -55 -215q-36 -202 -13 -455h13q114 2 217 144q78 104 130 231t101 295z" />
    <glyph glyph-name="c.alt2" unicode="&#xf005;" horiz-adv-x="3526" 
d="M3570 922l4 -2q13 4 20.5 -5t5 -20.5t-15.5 -15.5q-306 -90 -731 -11q-127 24 -320.5 75t-332 88t-319.5 59.5t-337 7.5q-203 -20 -392 -102.5t-335 -217.5q-136 -136 -233 -356q-6 -15 -17 -39.5t-14 -30.5v0q-5 -11 -15.5 -33t-15.5 -34q-70 -140 -145 -215
q-39 -40 -86.5 -66t-103 -32t-105.5 24q-67 39 -94 156q-26 110 -23 231q5 149 58.5 284t158.5 216q26 20 54.5 33.5t62.5 18t61 -10.5q84 -42 31 -203q-4 -12 -15.5 -14.5t-20.5 5t-5 19.5q41 126 -10 154l-6 -6q-29 -25 -62 -93q-27 -57 -43 -102q-37 -103 -55 -215
q-36 -198 -12 -455h12q114 2 217 144q31 41 71 117.5t64 132.5l25 57q4 10 12.5 27t37 67.5t60 97t80.5 104.5t101 101q94 78 200 133q246 131 525 152q266 21 661 -76q73 -18 215.5 -56t228.5 -60t218.5 -46.5t231.5 -30.5t219.5 3t228.5 41z" />
    <glyph glyph-name="d.alt1" unicode="&#xf006;" horiz-adv-x="3782" 
d="M3801 674l12 2q4 13 15.5 15.5t20.5 -5t5 -20.5q-35 -120 -88 -252q-60 -153 -92 -219q-21 -44 -37 -72t-44.5 -68t-62.5 -62t-71 -24q-4 -2 -12 -2q-17 0 -25 2q-50 10 -81 47t-54 95q-27 69 -47 157q-37 137 -49 287q-40 -129 -84 -217q-13 -28 -27.5 -51.5t-37 -50.5
t-45 -40t-51.5 -10t-56 29q-38 36 -56 109q-16 68 -16 157q0 61 12 123q-152 230 -405 367q-246 131 -524 149q-156 10 -318 -11.5t-356 -66.5q-50 -12 -158 -38t-166 -39.5t-159.5 -33.5t-168 -28.5t-160.5 -15.5t-168.5 -3t-160 17.5t-164.5 38.5q-12 4 -14 15.5t5.5 20.5
t20.5 5q304 -97 754 -16q83 15 186 39t190 45.5t185.5 44.5t190.5 39t187 26.5t193 9t191 -15.5q250 -37 471 -166t363 -328q33 111 102 183q65 69 139 55q9 0 13 -2h6q44 -14 73 -55v30q6 170 23.5 296.5t65.5 238.5q24 54 59 102.5t84.5 90t104.5 52.5t118 -10
q109 -45 105 -192q-3 -129 -60 -270q-52 -125 -133 -238q-88 -124 -186 -182q-7 -174 0 -287q9 -131 30 -256q14 -77 29 -127q15 -49 37 -78q24 3 47 21t35.5 34t30.5 44q46 68 90 176q97 233 143 389zM3424 1208l-2 2q-43 -167 -53 -395q88 61 166 182q91 137 131 254
q50 144 37 248q-3 36 -23 66h-6q-58 4 -97 -35t-73 -105q-53 -106 -80 -217zM3185 678l-4 4v2v68q-23 85 -84 108q-33 -35 -70 -139q-26 -75 -39 -158q-24 -144 -8 -323q30 16 61 71q37 58 66 135q35 85 78 232z" />
    <glyph glyph-name="d.alt2" unicode="&#xf007;" horiz-adv-x="3807" 
d="M3850 922l2 4q13 4 21 -5t5.5 -20.5t-15.5 -15.5q-130 -38 -280 -44.5t-279.5 9t-280.5 49.5q-85 19 -346.5 88.5t-407.5 95.5q-329 57 -614 2q-260 -51 -434 -190q-215 -171 -320 -479q0 -1 -1 -3t-1 -3q-73 -181 -88 -213q-21 -44 -37 -72t-44.5 -68t-62.5 -62t-71 -24
q-4 -2 -12 -2q-17 0 -25 2q-50 10 -81 47t-54 95q-27 69 -47 157q-37 137 -49 287q-40 -129 -84 -217q-13 -28 -27.5 -51.5t-37 -50.5t-45 -40t-51.5 -10t-56 29q-38 36 -56 109q-16 68 -16 157q2 103 34.5 196.5t98.5 162.5q65 69 139 55q9 0 13 -2h6q44 -14 73 -55v30
q6 170 23.5 296.5t65.5 238.5q24 54 59 102.5t84.5 90t104.5 52.5t118 -10q109 -45 105 -192q-3 -129 -60 -270q-52 -125 -133 -238q-88 -124 -186 -182q-7 -174 0 -287q9 -131 30 -256q14 -77 29 -127q15 -49 37 -78q24 3 47 21t35.5 34t30.5 44q46 68 90 176q30 71 57 141
q121 343 367 522q110 79 244 127t275 63t277.5 9t276.5 -31q125 -23 303 -70t319 -83t302 -65t321.5 -24.5t308.5 48.5zM557 1212l-2 2q-43 -167 -53 -395q88 61 166 182q91 137 131 254q50 144 37 248q-3 36 -23 66h-6q-58 4 -97 -34.5t-73 -104.5q-53 -105 -80 -218z
M317 682l-4 4v2v68q-23 85 -84 108q-6 -7 -12.5 -15.5t-11 -15t-10 -18.5t-8 -17t-8 -19.5t-6.5 -17.5t-7 -19t-6 -17q-26 -75 -39 -158q-24 -144 -8 -323q30 16 61 71q36 57 66 136q32 79 77 231z" />
    <glyph glyph-name="e.alt1" unicode="&#xf008;" horiz-adv-x="3491" 
d="M3510 682v-2q4 13 15.5 15.5t20.5 -5t5 -20.5q-78 -261 -168 -424q-80 -145 -166 -211q-75 -57 -149 -60q-61 -3 -108.5 28t-69.5 87q-37 93 -41 227q-3 127 22 234q-8 4 -10 8q-154 263 -440 416q-246 131 -525 149q-268 17 -673 -77q-51 -12 -158 -37.5t-166 -39.5
t-159.5 -34.5t-167.5 -29t-161 -15.5t-168.5 -3t-160 17.5t-164.5 38.5q-12 4 -14 15.5t5.5 20.5t20.5 5q304 -97 754 -16q83 15 186 39t190 45.5t185.5 44.5t190.5 39t187 26.5t193 9t191 -15.5q271 -41 505 -186.5t372 -370.5q2 12 10 31q69 194 192 266q41 24 91.5 30.5
t97 -13.5t63.5 -68q13 -37 6.5 -81t-28.5 -77q-63 -95 -217 -55q-24 -79 -39 -162q-36 -202 -13 -455v-4q51 -1 104.5 30t94.5 75q68 75 131 209q67 140 133 356zM3115 684l-2 2l-6 -12q143 -37 182 61q20 43 6.5 88.5t-61.5 59.5q-4 2 -12 2q0 -3 -3 -6q-27 -24 -61 -93
q-27 -57 -43 -102zM2953 57h6v2h-6v-2z" />
    <glyph glyph-name="e.alt2" unicode="&#xf009;" horiz-adv-x="3526" 
d="M3570 922h2q13 4 20.5 -5t5 -20.5t-15.5 -15.5q-140 -41 -301.5 -45.5t-298 15.5t-301.5 60q-76 19 -251 67t-306.5 77.5t-255.5 44.5q-285 32 -551 -17q-250 -44 -416 -184q-183 -154 -307 -440q-44 -117 -94 -209q-80 -145 -166 -211q-73 -56 -150 -59
q-61 -3 -108.5 27.5t-69.5 86.5q-37 93 -41 228q-7 172 43 311q30 83 79 155.5t114 110.5q41 24 91.5 30.5t97 -13.5t63.5 -68q13 -38 6 -81.5t-29 -76.5q-63 -95 -217 -55q-24 -79 -39 -162q-36 -198 -12 -455v-4q51 -1 104 30t94 75q70 77 132 209q8 16 26 61
q147 384 385 565q174 131 428 172q302 46 578 7q140 -19 325.5 -65.5t339.5 -88t323.5 -75t342 -31t330.5 48.5zM229 686l-2 2l-6 -12q143 -37 182 61q20 43 6.5 88.5t-61.5 59.5q-4 2 -12 2q0 -4 -2 -6q-29 -25 -62 -93q-27 -57 -43 -102zM68 59h6v2h-6v-2z" />
    <glyph glyph-name="f.alt1" unicode="&#xf00a;" horiz-adv-x="3510" 
d="M3541 676l-4 -8q13 14 28 -1t1 -28q-113 -113 -279 -172q-110 -38 -207 -41q62 -53 117 -121q124 -156 76 -266q-18 -44 -54.5 -72.5t-80.5 -27.5q-41 1 -80.5 25t-65.5 59q-30 43 -57 131q-8 22 -15 49v6q-8 23 -10 37q-34 118 -49 241q-8 59 -10 86q-155 256 -432 404
q-246 131 -525 149q-268 17 -673 -77q-51 -12 -158 -37.5t-166 -39.5t-159.5 -34.5t-167.5 -29t-161 -15.5t-168.5 -3t-160 17.5t-164.5 38.5q-12 4 -14 15.5t5.5 20.5t20.5 5q304 -97 754 -16q83 15 186 39t190 45.5t185.5 44.5t190.5 39t187 26.5t193 9t191 -15.5
q252 -37 474 -167.5t364 -332.5q-5 96 -2 215q4 168 20.5 295.5t65.5 239.5q19 42 45 82t62 77.5t76.5 60t87 30t95.5 -13.5q109 -45 105 -193q-3 -129 -60 -270q-50 -121 -131 -238q-88 -124 -186 -182q-7 -173 2 -283q113 -13 250 33q155 54 268 164zM3072 1190v4
q-40 -155 -51 -389q88 61 166 182q91 137 131 254q50 144 37 248q-3 35 -23 65h-6q-58 4 -97 -34.5t-73 -104.5q-53 -102 -84 -225zM3127 326h4q-36 38 -84 80l-18 18q12 -114 33 -225q12 -67 33 -127q19 -54 43 -82q2 -2 2 -6q12 0 18 2q36 7 61 41t27 71q4 96 -119 228z
" />
    <glyph glyph-name="f.alt2" unicode="&#xf00b;" horiz-adv-x="3119" 
d="M3162 922l2 -9q13 4 20.5 -5t5 -20.5t-15.5 -15.5q-310 -90 -759 -2q-125 25 -355 85.5t-327 82.5q-89 20 -164.5 33.5t-162 22.5t-171 6.5t-162.5 -17.5q-262 -50 -516 -219q-253 -169 -393 -397l-6 -6l92 -76q43 -43 74 -82q123 -156 75 -266q-18 -44 -54.5 -72.5
t-80.5 -27.5q-41 1 -80 24.5t-65 58.5q-31 44 -58 132q-5 14 -14 49v6q-8 23 -10 37q-34 118 -49 241q-9 53 -15 105v6q-11 129 -8 278q4 168 20.5 295.5t65.5 239.5q19 42 45.5 82t62 77.5t76.5 60t87.5 30t95.5 -13.5q108 -44 104 -193q-3 -132 -59 -270
q-50 -121 -131 -238q-87 -123 -187 -182q-7 -140 -2 -240q160 243 435 414q264 165 528 203q79 11 163 11.5t169.5 -9.5t160.5 -24t164 -34q88 -20 227 -57t236 -62.5t229.5 -51t239 -33.5t230.5 1t237 42zM201 1190v4q-40 -155 -51 -389q86 60 165 182q91 137 131 254
q50 144 37 248q-3 36 -22 65h-6q-58 4 -97 -34.5t-73 -104.5q-53 -102 -84 -225zM256 326h4q-36 38 -84 80l-18 18q13 -126 32 -225q12 -67 33 -127q19 -54 43 -82q2 -2 2 -6q13 0 19 2q36 7 61 41t27 71q4 96 -119 228z" />
    <glyph glyph-name="g.alt1" unicode="&#xf00c;" horiz-adv-x="3651" 
d="M3680 686l10 4q16 13 30 -3q11 -14 -1 -25q-215 -172 -344 -289q-1 -16 -6 -94q-7 -104 -10.5 -149t-14 -131.5t-28.5 -153.5t-45 -130q-78 -179 -179 -209q-4 -2 -12 -2q-66 -13 -121 31.5t-69 112.5q-28 128 69 307q64 120 195 262l49 49q10 150 10 271
q-40 -110 -86 -197q-19 -36 -40 -65.5t-51.5 -57.5t-65.5 -27t-68 37q-35 37 -49 111q-17 76 -14 164q0 42 6 86q-150 245 -424 391q-246 131 -525 149q-268 17 -673 -77q-51 -12 -158 -37.5t-166 -39.5t-159.5 -34.5t-167.5 -29t-161 -15.5t-168.5 -3t-160 17.5
t-164.5 38.5q-12 4 -14 15.5t5.5 20.5t20.5 5q304 -97 754 -16q83 15 186 39t190 45.5t185.5 44.5t190.5 39t187 26.5t193 9t191 -15.5q257 -37 482.5 -171t367.5 -343q38 136 123 215q31 30 72 39.5t83 -4.5q39 -14 68 -47q-2 22 3.5 34.5t25.5 20.5q36 15 94 15h6
q16 4 19 -15q31 -194 20 -477q91 82 309 258zM3135 440l-6 -2q49 114 84 234v80q-9 38 -33.5 68t-58.5 40q-35 -35 -72 -139q-25 -70 -38 -158q-25 -148 -9 -325q31 16 62 67q37 54 71 135zM3164 -86l2 2q21 166 31 289q-4 -5 -12.5 -14.5t-12.5 -14.5q-117 -127 -180 -250
q-99 -190 -51 -303q13 -31 38 -53.5t56 -26.5q15 -3 31 0q70 149 98 371z" />
    <glyph glyph-name="g.alt2" unicode="&#xf00d;" horiz-adv-x="3536" 
d="M3580 922l-4 -2q13 4 20.5 -5t5 -20.5t-15.5 -15.5q-138 -40 -296.5 -45t-294.5 13.5t-296 57.5q-88 21 -252 66t-298.5 76t-256.5 47q-307 40 -575 -33q-267 -74 -467 -244q-228 -193 -363 -502v-36q-7 -104 -10.5 -149t-14 -131.5t-28.5 -153.5t-45 -130
q-78 -179 -178 -209q-4 -2 -12 -2q-66 -13 -121.5 31.5t-69.5 112.5q-28 127 70 307q65 123 194 262q8 8 25 24.5t25 24.5q10 150 10 271q-40 -110 -86 -197q-15 -28 -30.5 -52t-39.5 -50t-47.5 -38.5t-52.5 -7t-56 34.5q-35 37 -49 111q-17 76 -14 164q3 105 39 199.5
t106 160.5q31 30 72.5 39.5t83.5 -4.5q39 -14 68 -47q-2 22 3 34.5t25 20.5q36 15 95 15h6q15 4 18 -15q20 -136 23 -289q0 -2 -4 -194q147 288 380 465q208 159 474 223q274 67 602 20q136 -20 318.5 -67t333.5 -87t318 -72.5t336.5 -29.5t325.5 48zM244 436l-6 -2
q50 114 84 234v80q-9 38 -34 68t-59 40q-33 -33 -71 -139q-26 -75 -39 -158q-25 -145 -8 -326q29 15 61 68q39 58 72 135zM272 -90l2 2q21 166 31 289q-4 -5 -12 -14.5t-12 -14.5q-120 -130 -181 -250q-99 -190 -51 -303q13 -31 38 -53.5t56 -26.5q16 -3 31 0q70 149 98 371
z" />
    <glyph glyph-name="h.alt1" unicode="&#xf00e;" horiz-adv-x="3725" 
d="M3742 678l-6 -8q3 13 14.5 15.5t20.5 -5.5t6 -21q-28 -116 -91 -282q-63 -164 -125 -285q-34 -78 -65 -112q-32 -49 -85 -67.5t-108 3.5q-33 14 -55.5 38t-33 58.5t-16 65t-3 75t5 69t8.5 65.5q5 38 13 78.5t18.5 93t15.5 78.5q14 73 19 122q4 46 4 68q0 33 -10 45
q-4 -4 -12.5 -12t-12.5 -12q-45 -52 -96 -152q-79 -151 -105 -311v-19q3 -34 -8 -63t-41 -37q-26 -8 -48 3t-26 36q-49 167 -67 344q-153 260 -436 412q-246 131 -525 149q-156 10 -317.5 -11.5t-355.5 -66.5q-50 -12 -158 -38t-166 -39.5t-159.5 -33.5t-168 -28.5
t-160.5 -15.5t-168.5 -3t-160 17.5t-164.5 38.5q-12 4 -14 15.5t5.5 20.5t20.5 5q306 -98 754 -17q83 15 186 39t190 45.5t185.5 44.5t190.5 39.5t187 27t193 9t191 -15.5q253 -37 476.5 -168.5t365.5 -335.5q-7 126 -4 227q4 169 21 296t67 239q24 53 59 101.5t84.5 89.5
t104.5 51.5t118 -11.5q107 -44 103 -194q-3 -123 -62 -269q-51 -123 -133 -237q-86 -123 -180 -180q-2 -43 -2 -129q0 -90 6 -179q0 -12 4 -36q35 127 98 239q127 230 262 223q37 -1 61.5 -24t29.5 -58q2 -6 1 -21.5t-1.5 -21.5t-3 -21.5t-3.5 -21.5q-6 -39 -18 -116.5
t-18 -116.5q-34 -230 -39 -287q-8 -87 -2 -131q4 -42 22 -57q6 -6 21 0q12 4 22 14q14 15 28 37t20.5 35t21.5 44.5t18 37.5q140 294 191 516zM3099 1284l4 2q-68 -201 -82 -483q90 60 168 182q84 129 127 250q49 142 39 248q-3 39 -25 67h-6q-86 5 -150 -98
q-40 -69 -75 -168z" />
    <glyph glyph-name="h.alt2" unicode="&#xf00f;" horiz-adv-x="3782" 
d="M3826 922l-4 -7q13 4 20.5 -5t5 -20.5t-15.5 -15.5q-135 -39 -289 -44.5t-286.5 12t-288.5 53.5q-64 15 -344.5 88.5t-434.5 97.5q-321 50 -598 -16q-259 -62 -454 -217q-198 -160 -308 -408l-2 -4l-12 -24l-22 -54q-63 -158 -115 -260q-33 -75 -66 -112
q-32 -49 -84.5 -67.5t-107.5 3.5q-33 14 -55.5 38t-33 58.5t-16 65t-3 75t5 69t8.5 65.5q5 38 13 78.5t18.5 93t15.5 78.5q12 61 18 123q4 46 4 67q0 33 -10 45q-4 -4 -12.5 -12t-12.5 -12q-45 -52 -96 -152q-77 -148 -104 -311v-19q3 -34 -8 -63t-41 -37q-26 -8 -48 3
t-26 36q-88 306 -78 657q4 169 21 296t67 239q24 53 59.5 101.5t85 89.5t104.5 51.5t118 -11.5q106 -44 102 -194q-3 -126 -61 -269q-51 -123 -133 -237q-85 -122 -181 -180q-2 -43 -2 -129q0 -91 6 -179q0 -6 5 -36q35 127 98 239q127 230 262 223q37 -1 61 -23.5t29 -57.5
q3 -21 -6 -86q-6 -39 -18.5 -117t-18.5 -117q-34 -230 -39 -287q-8 -87 -2 -131q4 -41 23 -57q6 -6 20 0q13 4 23 14q14 15 28 37t20.5 35t21.5 44.5t18 37.5q35 73 84 188l4 8l33 82q124 292 358 467q113 84 246.5 139t273.5 77.5t280.5 21.5t284.5 -25q114 -19 261 -55.5
t265.5 -70.5t263 -65t268.5 -46.5t265 -8t269 45.5zM219 1288l4 2q-68 -201 -82 -483q90 60 168 182q84 129 127 250q49 142 39 248q-3 40 -24 67h-7q-85 5 -149 -98q-43 -73 -76 -168z" />
    <glyph glyph-name="i.alt1" unicode="&#xf010;" horiz-adv-x="3340" 
d="M3357 670l-6 2q4 12 15.5 14.5t20 -5t4.5 -19.5q-121 -352 -233 -541q-111 -187 -227 -119q-24 14 -41.5 37t-27 45.5t-15.5 56t-7.5 54.5t-3.5 55q-5 139 15 315q-154 261 -441 414q-246 131 -524 149q-269 17 -674 -77q-52 -12 -158.5 -37.5t-165.5 -39.5t-159.5 -34.5
t-167.5 -29t-160.5 -15.5t-168 -3t-160 17.5t-164.5 38.5q-12 4 -14 15.5t5.5 20.5t20.5 5q304 -97 754 -16q83 15 186 39t190 45.5t185.5 44.5t190.5 39t187 26.5t193 9t191 -15.5q262 -39 491 -178t369 -354q6 43 22 129q8 39 21 86q14 46 29 61q20 18 56 27t60 -2
q23 -12 23 -53q0 -28 -8 -86q-24 -146 -36 -254.5t-12 -245.5t21 -256q40 19 90 100q40 70 58 105q82 163 176 430zM2949 1026l-2 6q-22 22 -25 51q-2 20 13 47t33 37q28 22 63 25q42 4 66 -23q19 -22 20.5 -54t-12.5 -56q-15 -24 -42 -38.5t-57 -14.5q-34 0 -57 20z
M3033 1087h6h-6v0z" />
    <glyph glyph-name="i.alt2" unicode="&#xf011;" horiz-adv-x="3373" 
d="M80 1024l-2 6q-22 22 -25 51q-2 20 13 47q16 28 32 37q28 22 64 25q41 4 65 -23q20 -22 21.5 -54t-12.5 -56q-15 -24 -42 -38.5t-57 -14.5q-34 0 -57 20zM164 1085h6h-6v0zM3420 928h-14q13 4 20.5 -5t5 -20.5t-15.5 -15.5q-138 -40 -294.5 -46t-291 12t-293.5 56
q-85 20 -223 56t-231 60t-223.5 49t-233.5 33.5t-225.5 1t-233.5 -37.5q-252 -67 -438 -235q-187 -168 -317 -445q-6 -14 -18.5 -40.5t-18.5 -39.5v-6q-57 -119 -94 -180q-15 -26 -31.5 -47.5t-39.5 -43.5t-46.5 -33.5t-52.5 -11.5t-58 17q-24 14 -41.5 37.5t-26.5 45.5
t-15 55.5t-7.5 54t-3.5 55.5q-8 232 47 510q8 40 21 86q14 47 28 61q20 18 56.5 27t60.5 -2q23 -12 23 -53q0 -21 -9 -86q-24 -145 -36 -254.5t-11.5 -246t21.5 -255.5q40 19 90 100q30 53 57 105l70 149q147 322 373 506q197 159 448 219q275 66 600 15q135 -21 317 -68
t331.5 -87t316 -71.5t334.5 -28.5t323 48z" />
    <glyph glyph-name="j.alt1" unicode="&#xf012;" horiz-adv-x="3297" 
d="M3326 686h4q9 8 20.5 3.5t14 -14t-5.5 -18.5q-225 -181 -344 -288q-2 -33 -6 -95q-8 -131 -14 -198t-28 -174.5t-57 -190.5q-78 -179 -178 -209q-4 -2 -12 -2q-66 -13 -121.5 31.5t-69.5 112.5q-28 127 70 307q65 123 194 262q8 8 25 24.5t25 24.5q10 167 10 301
q-154 258 -436 410q-246 131 -525 149q-156 10 -317.5 -11.5t-355.5 -66.5q-50 -12 -158 -38t-166 -39.5t-159.5 -33.5t-168 -28.5t-160.5 -15.5t-168.5 -3t-160 17.5t-164.5 38.5q-12 4 -14 15.5t5.5 20.5t20.5 5q304 -97 754 -16q83 15 186 39t190 45.5t185.5 44.5
t190.5 39t187 26.5t193 9t191 -15.5q257 -37 482.5 -171t367.5 -343q0 131 -4 197q-1 16 -1 28t6.5 22t22.5 17q36 15 95 15h6q15 4 18 -15q31 -199 21 -477q91 82 309 258zM2812 -90l2 2q21 166 31 289q-4 -5 -12.5 -14.5t-12.5 -14.5q-117 -127 -180 -250
q-99 -190 -51 -303q13 -31 38 -53.5t56 -26.5q15 -3 31 0q70 149 98 371zM2836 1024l-2 6q-21 21 -24 51q-3 21 12 47q15 27 33 37q28 22 63 25q42 4 66 -23q19 -22 20.5 -54t-12.5 -56q-15 -24 -41.5 -38.5t-56.5 -14.5q-35 0 -58 20zM2863 1063l4 -4q-4 4 -8 12q2 -4 6 -8
l2 -4l2 -2h6zM2859 1069z" />
    <glyph glyph-name="j.alt2" unicode="&#xf013;" horiz-adv-x="3278" 
d="M133 1024l-2 6q-22 22 -25 51q-2 20 13 47t33 37q28 22 63 25q42 4 66 -23q19 -22 20.5 -54t-12.5 -56q-15 -24 -42 -38.5t-57 -14.5q-34 0 -57 20zM160 1063l4 -4q-4 4 -8 12q2 -4 6 -8l2 -4l2 -2h6zM156 1069zM3324 924v6q13 4 20.5 -5t5 -20.5t-15.5 -15.5
q-319 -93 -778 2q-122 25 -355 88t-346 88q-389 83 -649 31q-275 -55 -507 -227t-380 -420v-13l-2 -57q-1 -16 -6 -94q-7 -104 -10.5 -149t-14 -131t-28.5 -153t-45 -130q-78 -179 -178 -209q-4 -2 -12 -2q-66 -13 -121.5 31t-69.5 112q-28 127 70 307q65 123 194 262l49 49
q13 172 13 320q0 168 -6 252q-1 16 -1 28t6.5 22t22.5 17q36 15 94 15h7q15 4 18 -15q26 -167 23 -385q162 248 409 412q240 157 498 199q267 45 665 -45q92 -21 232 -58t241 -64t235 -53.5t243.5 -36t236.5 -0.5t242 42zM111 -80l2 2q18 142 30 289q-4 -5 -12 -14.5
t-12 -14.5q-117 -127 -180 -250q-100 -191 -52 -303q13 -31 38.5 -53.5t56.5 -26.5q15 -3 30 0q71 152 99 371z" />
    <glyph glyph-name="k.alt1" unicode="&#xf014;" horiz-adv-x="3837" 
d="M3854 676l-6 2q3 13 14.5 15.5t20.5 -5t6 -20.5q-15 -73 -63 -201q-62 -160 -70 -178q-80 -191 -166 -293q-32 -39 -75 -63t-92.5 -21.5t-86.5 41.5q-34 36 -61 119q-24 74 -51 166q-66 237 -107 329q-48 -129 -76 -270v-18q3 -34 -8 -63.5t-41 -37.5q-26 -8 -48 3
t-26 36q-49 167 -67 344q-153 260 -436 412q-246 131 -525 149q-156 10 -317.5 -11.5t-355.5 -66.5q-50 -12 -158 -38t-166 -39.5t-159.5 -33.5t-168 -28.5t-160.5 -15.5t-168.5 -3t-160 17.5t-164.5 38.5q-12 4 -14 15.5t5.5 20.5t20.5 5q304 -97 754 -16q83 15 186 39
t190 45.5t185.5 44.5t190.5 39t187 26.5t193 9t191 -15.5q253 -37 476.5 -168.5t365.5 -335.5q-7 127 -4 228q4 168 21 295t67 239q24 54 59 102t84.5 89t104.5 52t118 -11q107 -44 103 -195q-3 -122 -62 -268q-52 -125 -133 -238q-86 -123 -180 -180q-2 -43 -2 -129
q0 -89 6 -178q1 -7 3 -21.5t3 -21.5q37 140 88 252q90 200 195 305q27 27 61.5 48.5t73.5 35t79 6t68 -38.5t33.5 -78t-5.5 -89.5t-32 -80.5q-38 -70 -102.5 -128.5t-141.5 -98.5q23 -31 35 -96q4 -22 25 -160q10 -70 18.5 -115.5t28 -105t47.5 -105.5q1 1 4 3t4 3
q45 28 101 113q68 106 139 283q2 5 12.5 32.5t13.5 35.5t12.5 32.5t13.5 35.5l12 33t12 36t10 33t10 36.5t8 34.5zM3131 1475l-2 -5q-26 -41 -37 -75q4 12 23 49q5 13 16 31zM3097 1292l4 2q-68 -201 -82 -483q90 60 168 182q84 129 127 250q49 142 39 248q-3 40 -25 68h-6
q-85 5 -150 -99q-40 -69 -75 -168zM3144 627v-2q115 26 209 127q56 59 84 125q39 88 32 141q-98 -14 -196 -158q-78 -113 -129 -233z" />
    <glyph glyph-name="k.alt2" unicode="&#xf015;" horiz-adv-x="3928" 
d="M3971 922l-16 8q13 4 20.5 -5t5 -20.5t-15.5 -15.5q-111 -32 -230 -43t-241.5 -0.5t-230 29.5t-234.5 51q-70 17 -208 54t-223 58t-204.5 43t-222.5 29q-280 20 -514 -41q-245 -64 -424 -225q-225 -202 -379 -570v-6q-75 -173 -154 -268q-32 -39 -75 -63t-92.5 -21.5
t-86.5 41.5q-34 36 -61 119q-24 75 -51 166q-66 237 -107 329q-46 -124 -75 -270v-18q3 -34 -8.5 -63.5t-41.5 -37.5q-26 -8 -47.5 3t-25.5 36q-88 306 -78 658q4 168 21 295t67 239q24 53 59.5 101.5t85 89.5t104.5 52t118 -11q106 -44 102 -195q-3 -122 -62 -268
q-52 -125 -133 -238q-86 -123 -180 -180q-2 -43 -2 -129q0 -89 6 -178q1 -7 3 -21.5t3 -21.5q37 140 88 252q90 200 195 305q27 27 61.5 48.5t74 35t79.5 6t68 -38.5t33.5 -78t-5.5 -89.5t-32 -80.5q-38 -70 -102.5 -128.5t-141.5 -98.5q23 -31 35 -96q4 -24 8 -50.5
t8.5 -59t7.5 -50.5q10 -70 18.5 -115.5t28 -105t47.5 -105.5q1 1 4.5 3t4.5 3q44 27 100 113q64 97 131 256h2q163 366 399 559q194 158 453.5 214t538.5 28q148 -15 338.5 -61.5t352 -90.5t335.5 -80t354 -35.5t344 48.5zM242 1481l-2 -4q-25 -40 -37 -76q7 20 22 49
q3 8 17 31zM207 1298l4 2q-68 -201 -82 -483q90 60 168 182q84 129 127 250q49 142 39 248q-3 40 -25 68h-6q-84 5 -149 -99q-43 -73 -76 -168zM254 633v-2q115 26 209 127q56 59 84 125q40 90 33 141q-99 -14 -197 -158q-78 -113 -129 -233z" />
    <glyph glyph-name="l.alt1" unicode="&#xf016;" horiz-adv-x="3428" 
d="M3447 674l8 -2q4 13 15.5 15.5t20.5 -5t5 -20.5q-35 -120 -88 -252q-62 -159 -92 -220q-21 -43 -37.5 -71.5t-44.5 -68t-62 -61.5t-71 -24q-4 -2 -13 -2q-16 0 -24 2q-50 10 -81 47t-54 94q-27 68 -47 158q-41 161 -54 342q-150 226 -405 365q-246 131 -525 149
q-156 10 -317.5 -11.5t-355.5 -66.5q-50 -12 -158 -38t-166 -39.5t-159.5 -33.5t-168 -28.5t-160.5 -15.5t-168.5 -3t-160 17.5t-164.5 38.5q-12 4 -14 15.5t5.5 20.5t20.5 5q304 -97 754 -16q83 15 186 39t190 45.5t185.5 44.5t190.5 39t187 26.5t193 9t191 -15.5
q242 -36 456.5 -157t358.5 -310q-3 92 0 184q4 112 9.5 185t25 172.5t53.5 177.5q19 42 45.5 82t62 77.5t76.5 60t87.5 29.5t95.5 -14q108 -44 104 -192q-3 -132 -59 -270q-52 -125 -133 -238q-87 -123 -187 -182q-7 -174 0 -287q8 -120 31 -256q14 -77 29 -127
q15 -49 37 -78q24 3 47 21t34.5 33.5t30.5 44.5q46 68 90 176q101 241 144 389zM3066 1204l-2 2q-43 -167 -53 -395q86 60 165 182q93 140 132 254q49 142 36 248q-3 37 -22 66h-6q-58 4 -97 -35t-73 -105q-53 -106 -80 -217z" />
    <glyph glyph-name="l.alt2" unicode="&#xf017;" horiz-adv-x="3495" 
d="M3539 922l10 2q13 4 20.5 -5t5 -20.5t-15.5 -15.5q-140 -41 -301 -46t-298 14t-300 58q-77 19 -253 67t-308.5 77.5t-257.5 44.5q-304 33 -559 -33q-252 -65 -432 -227q-150 -132 -260 -351l-15 -30q-26 -59 -34 -80q-10 -23 -25 -58.5t-18 -42.5q-5 -13 -11.5 -27
t-14 -30.5t-11.5 -25.5q-21 -44 -37 -72t-44.5 -68t-62.5 -62t-71 -24q-4 -2 -13 -2q-16 0 -24 2q-50 10 -81 47t-54 95q-27 69 -47 157q-68 273 -58 604q4 112 9.5 185t25 172.5t53.5 177.5q19 42 45.5 82t62 77.5t76.5 60t87.5 29.5t95.5 -14q108 -44 104 -192
q-3 -132 -59 -270q-52 -125 -133 -238q-88 -124 -186 -182q-7 -174 0 -287q9 -131 30 -256q14 -77 29 -127q15 -49 37 -78q24 3 47 21t34.5 33.5t30.5 44.5q48 72 91 176l51 123q130 314 350 491q204 164 473 218t555 16q140 -19 325.5 -65.5t339.5 -88t323.5 -75t342 -31
t330.5 48.5zM213 1210l-2 2q-43 -167 -53 -395q88 61 166 182q91 137 131 254q50 144 37 248q-3 36 -23 66h-6q-58 4 -97 -35t-73 -105q-53 -106 -80 -217z" />
    <glyph glyph-name="m.alt1" unicode="&#xf018;" horiz-adv-x="4100" 
d="M4116 678l-4 -4q3 13 14.5 15.5t20.5 -5t6 -20.5q-30 -125 -90 -283q-63 -164 -125 -285q-34 -78 -65 -112q-32 -49 -85 -67.5t-108 3.5q-33 14 -55.5 38t-33 58.5t-16 65t-3 75t5 69t8.5 65.5q5 38 13 78.5t18.5 93t15.5 78.5q14 72 19 123q4 46 4 67q0 32 -11 45
l-24 -24q-45 -52 -96 -152q-89 -170 -113 -358q3 -11 -7.5 -20.5t-23.5 -2.5q-25 13 -41.5 40.5t-23 52t-13.5 59.5q-1 8 -2 12q-17 98 -20 211q-1 76 6 227.5t6 227.5q-35 -17 -67.5 -62t-51.5 -86q-49 -95 -100 -266q-39 -130 -61 -275v-12q0 -10 1 -46t0.5 -54.5
t-5.5 -46t-15 -47.5q-19 -38 -58.5 -49.5t-74.5 10.5q-22 0 -25 20q-16 221 -4 426q0 7 1 21.5t1 21.5q-151 230 -409 369q-246 131 -524 149q-156 10 -318 -11.5t-356 -66.5q-50 -12 -158 -38t-166 -39.5t-159.5 -33.5t-168 -28.5t-160.5 -15.5t-168.5 -3t-160 17.5
t-164.5 38.5q-12 4 -14 15.5t5.5 20.5t20.5 5q304 -97 754 -16q83 15 186 39t190 45.5t185.5 44.5t190.5 39t187 26.5t193 9t191 -15.5q247 -37 465.5 -164t362.5 -323q5 67 14 88q15 34 54 56t77 19q17 0 20 -16q5 -27 7.5 -60t2.5 -54t-0.5 -62.5t-0.5 -56.5v-13
q15 66 43 150q22 64 35.5 98.5t39 87t52.5 90.5q19 27 44 49.5t54.5 37.5t61.5 10.5t59 -31.5q41 -44 45 -127q2 -55 -2 -166q-4 -162 2 -242q28 72 57 121q127 230 262 223q37 -1 61 -24t29 -58q3 -21 -6 -86q-6 -39 -18.5 -116.5t-18.5 -116.5q-34 -230 -39 -287
q-8 -87 -2 -131q4 -41 23 -57q6 -6 20 0q13 4 23 14q14 15 28 37t20.5 35t21.5 44.5t18 37.5q138 290 190 516zM2869 152zM2902 760l-6 -6zM3406 432v6v6v-12zM3627 25l4 -2q7 -16 16 -29l-6 6q-4 6 -14 25z" />
    <glyph glyph-name="m.alt2" unicode="&#xf019;" horiz-adv-x="4227" 
d="M4270 922l-2 -2q13 4 20.5 -5t5 -20.5t-15.5 -15.5q-146 -43 -317 -45.5t-311.5 19.5t-315.5 65q-63 16 -207 55t-225 59t-202 42t-224 28q-274 19 -520 -62q-260 -87 -459 -274q-195 -183 -317 -457q-7 -18 -28.5 -66t-23.5 -50q-21 -47 -45 -93q-34 -78 -65 -112
q-32 -49 -85 -67.5t-108 3.5q-33 14 -55.5 38t-33 58.5t-16 65t-3 75t5 69t8.5 65.5q5 38 13 78.5t18.5 93t15.5 78.5q14 72 19 123q4 46 4 67q0 33 -10 45q-4 -4 -12.5 -12t-12.5 -12q-45 -52 -96 -152q-89 -170 -113 -358q3 -11 -7.5 -20.5t-23.5 -2.5q-25 13 -41.5 40.5
t-23 52t-13.5 59.5q-1 8 -2 12q-17 98 -20 211q-1 76 6 227.5t6 227.5q-35 -17 -67.5 -62t-51.5 -86q-49 -95 -100 -266q-39 -131 -61 -274v-13q0 -10 1 -46t0.5 -54.5t-5.5 -46t-15 -47.5q-19 -38 -58.5 -49.5t-74.5 10.5q-21 0 -24 20q-16 228 -5 426q3 53 9 105
q5 67 14 88q15 35 54 57t77 19q6 0 13 -5t8 -12q5 -27 7 -59.5t2 -55t-0.5 -61.5t-0.5 -57v-13q15 66 43 150q22 64 35.5 98.5t39 87t52.5 90.5q19 27 44 49.5t54.5 37.5t61.5 10.5t59 -31.5q41 -44 45 -127q2 -56 -2 -166q-4 -162 2 -242q28 72 57 121q127 230 262 223
q37 -2 62 -24t29 -57q2 -6 1 -21.5t-1.5 -21.5t-3 -21.5t-3.5 -21.5l-36 -234q-34 -230 -39 -287q-8 -87 -2 -131q4 -42 22 -57q6 -6 21 0q12 4 22 14q14 15 28 37t20.5 35t21.5 44.5t18 37.5q32 68 35 74q161 386 403 596q207 179 471 256.5t545 50.5q130 -12 289 -46.5
t291 -72.5t288 -74.5t291.5 -57.5t289.5 -15t294 47zM18 156zM51 764l-6 -6zM555 436v6v7v-13zM776 29l4 -2q5 -14 17 -29l-6 6q-7 10 -15 25z" />
    <glyph glyph-name="n.alt1" unicode="&#xf01a;" horiz-adv-x="3704" 
d="M3721 678h-4q3 13 14.5 15.5t20.5 -5t6 -20.5q-30 -125 -90 -283q-63 -164 -125 -285q-34 -78 -65 -112q-32 -49 -85 -67.5t-108 3.5q-33 14 -55.5 38t-33 58.5t-16 65t-3 75t5 69t8.5 65.5q5 38 13 78.5t18.5 93t15.5 78.5q12 61 18 123q4 46 4 67q0 33 -10 45l-24 -24
q-47 -55 -97 -152q-86 -167 -110 -356q0 -55 -19 -92q-19 -38 -58.5 -49.5t-74.5 10.5q-21 0 -24 20q-16 221 -4 426v31q-151 237 -416 379q-246 131 -525 149q-156 10 -317.5 -11.5t-355.5 -66.5q-50 -12 -158 -38t-166 -39.5t-159.5 -33.5t-168 -28.5t-160.5 -15.5
t-168.5 -3t-160 17.5t-164.5 38.5q-12 4 -14 15.5t5.5 20.5t20.5 5q304 -97 754 -16q83 15 186 39t190 45.5t185.5 44.5t190.5 39t187 26.5t193 9t191 -15.5q251 -37 471.5 -165.5t362.5 -327.5v6q5 67 14 88q15 34 54 56t77 19q18 0 21 -16q5 -27 7 -59.5t2 -55t-0.5 -61.5
t-0.5 -57v-148q36 115 92 213q127 230 262 223q37 -1 61 -24t29 -58q3 -21 -6 -86q-6 -39 -18.5 -116.5t-18.5 -116.5q-34 -230 -39 -287q-8 -87 -2 -131q4 -41 23 -57q6 -6 20 0q13 4 23 14q14 15 28 37t20.5 35t21.5 44.5t18 37.5q138 290 190 516zM2970 270v-6v12v-6z
M3342 -4v6v-6z" />
    <glyph glyph-name="n.alt2" unicode="&#xf01b;" horiz-adv-x="3782" 
d="M3826 922l-11 2q13 4 21 -5t5.5 -20.5t-15.5 -15.5q-114 -33 -237.5 -43.5t-249.5 1.5t-236.5 32.5t-241.5 54.5q-52 13 -146.5 38.5t-153 40.5t-149 36.5t-155.5 32.5t-150 22.5t-156 11.5t-149.5 -4.5t-155 -21.5t-149.5 -44q-436 -160 -704 -680l-2 -6
q-4 -9 -12.5 -27.5t-12.5 -27.5v-6l-96 -211q-32 -62 -58 -92q-32 -49 -84.5 -67.5t-107.5 3.5q-33 14 -55.5 38t-33 58.5t-16 65t-3 75t5 69t8.5 65.5q5 38 13 78.5t18.5 93t15.5 78.5q12 61 18 123q4 46 4 67q0 33 -10 45q-4 -4 -12.5 -12t-12.5 -12q-45 -52 -96 -152
q-86 -167 -110 -356q0 -55 -19 -92q-19 -38 -58.5 -49.5t-74.5 10.5q-22 0 -25 20q-16 221 -4 426q3 53 9 105q5 67 14 88q15 35 54 57t77 19q6 0 12.5 -5t7.5 -12q5 -27 7.5 -60t2.5 -54t-0.5 -62.5t-0.5 -56.5v-148q36 115 92 213q127 230 262 223q37 -1 61 -23.5
t29 -57.5q3 -21 -6 -86q-6 -39 -18.5 -117t-18.5 -117q-34 -230 -39 -287q-8 -87 -2 -131q4 -41 23 -57q6 -6 20 0q13 4 23 14q8 8 15 17t14.5 21t11.5 19t12 23l10 20t11.5 23.5t9.5 20.5q54 118 90.5 191.5t89 165.5t111 166t128.5 140q195 188 441 270q240 81 528 58
q133 -10 294 -44t295.5 -73t293 -76.5t296.5 -59.5t294.5 -16.5t298.5 46.5zM102 274v-6v13v-7zM475 0v6v-6z" />
    <glyph glyph-name="o.alt1" unicode="&#xf01c;" horiz-adv-x="3436" 
d="M3467 688l2 2q11 8 20.5 1.5t10.5 -18t-8 -20.5q-108 -77 -248 -114q-16 -147 -92 -267q-15 -23 -31.5 -43t-39.5 -41t-45.5 -30.5t-50.5 -12.5t-54 13q-47 24 -74 100q-28 79 -25 160q2 61 31 141q-154 263 -440 416q-246 131 -525 149q-268 17 -673 -77
q-51 -12 -158 -37.5t-166 -39.5t-159.5 -34.5t-167.5 -29t-161 -15.5t-168.5 -3t-160 17.5t-164.5 38.5q-12 4 -14 15.5t5.5 20.5t20.5 5q304 -97 754 -16q83 15 186 39t190 45.5t185.5 44.5t190.5 39t187 26.5t193 9t191 -15.5q269 -39 502 -182.5t371 -366.5l6 6
q-31 49 -25.5 104.5t41.5 102.5q58 74 145 74q58 1 99 -28.5t61 -78.5t28.5 -100.5t6.5 -107.5q118 33 223 108zM3160 381v2q32 76 41 149h-6q-96 -14 -174 5q-1 -3 -3 -9.5t-3 -9.5q-53 -176 -6 -325q45 13 92 81q34 48 59 107zM3203 573h2v43q-5 149 -59 203
q-50 50 -127 33q-39 -9 -69 -39t-42 -70q-11 -41 4 -79q4 8 12.5 24.5t12.5 24.5q4 6 12 10q21 14 58.5 2.5t48.5 -31.5q19 -30 -4 -78q-3 -7 -9.5 -21.5t-9.5 -21.5q76 -17 170 0z" />
    <glyph glyph-name="o.alt2" unicode="&#xf01d;" horiz-adv-x="3282" 
d="M3320 922l6 -2q13 4 20.5 -5t5 -20.5t-15.5 -15.5q-307 -89 -735 -7q-126 24 -321 75.5t-334 88t-321 58t-339 4.5q-276 -30 -520.5 -175.5t-386.5 -375.5v-2v-10q-16 -147 -92 -267q-15 -23 -31.5 -43t-39.5 -41t-45.5 -30.5t-50.5 -12.5t-54 13q-47 24 -74 100
q-28 79 -25 160q5 95 53 198q-31 49 -25.5 104.5t42.5 102.5q58 74 145 74q52 1 90.5 -22.5t60 -64.5t32 -86.5t12.5 -96.5q154 222 405 360q250 136 527 160q265 22 659 -72q75 -18 217.5 -56t230 -60t220 -47t233 -31t221.5 3.5t230 41.5zM295 377v2q32 76 41 149h-6
q-99 -14 -174 4l-6 -18q-54 -178 -7 -326q45 13 93 82q34 48 59 107zM338 569h2v43q-4 148 -59 203q-50 50 -127 33q-39 -9 -69 -39t-42 -70q-11 -41 4 -80l25 50q4 6 12 10q21 14 58 2.5t48 -31.5q19 -30 -4 -78q-3 -7 -9 -21.5t-9 -21.5q76 -17 170 0z" />
    <glyph glyph-name="p.alt1" unicode="&#xf01e;" horiz-adv-x="3780" 
d="M3820 690h-3q13 2 21 -7.5t5.5 -20.5t-15.5 -13q-154 -24 -318 -137v-25q-10 -156 -53 -284q-53 -151 -133 -228q-40 -40 -92 -61q-37 -15 -69.5 7t-41.5 63q-15 64 41 186q40 88 100 166q28 35 52 59q29 263 -54 424q-100 -36 -168 -180q-32 -68 -49 -133
q-18 -144 -24 -289q-8 -250 14 -532q0 -7 2 -28t2 -31t-3.5 -26t-12.5 -28q-20 -29 -54.5 -33t-60.5 21q-18 18 -31 78q-34 167 -34 499q0 223 20 422v2q-154 263 -440 416q-246 131 -525 149q-268 17 -673 -77q-51 -12 -158 -37.5t-166 -39.5t-159.5 -34.5t-167.5 -29
t-161 -15.5t-168.5 -3t-160 17.5t-164.5 38.5q-12 4 -14 15.5t5.5 20.5t20.5 5q304 -97 754 -16q83 15 186 39t190 45.5t185.5 44.5t190.5 39t187 26.5t193 9t191 -15.5q264 -39 493 -178t369 -354q12 91 27 180q3 10 14 14h2q40 20 84.5 20.5t81.5 -26.5q23 -20 10 -76
q-4 -13 -8 -43q1 2 3 6.5t3 6.5q43 71 106.5 117t135.5 42q188 -12 188 -307q158 105 304 129zM3187 -49l4 -2q48 75 72 163.5t40 206.5l-24 -30q-53 -74 -88 -158q-33 -83 -33 -118q0 -37 23 -56z" />
    <glyph glyph-name="p.alt2" unicode="&#xf01f;" horiz-adv-x="3540" 
d="M3584 922l-2 6q13 4 20.5 -5t5 -20.5t-15.5 -15.5q-304 -89 -731 -10q-127 24 -320.5 75t-332 87.5t-319.5 59t-337 7.5q-278 -27 -522.5 -169t-386.5 -372q-1 -1 -3 -2t-3 -2v-45v-24q-10 -157 -53 -285q-53 -149 -133 -227q-41 -41 -93 -62q-37 -15 -69 7t-41 63
q-15 64 41 186q40 88 100 166q32 40 51 59q30 265 -53 424q-100 -36 -168 -180q-32 -68 -49 -133q-19 -156 -25 -289q-8 -241 15 -532q0 -5 2 -28t2 -31.5t-4 -25t-13 -28.5q-20 -29 -54 -33t-60 21q-18 18 -31 78q-35 172 -35 499q0 370 53 668q2 10 15 14h2
q40 20 84.5 20.5t81.5 -26.5q23 -20 10 -76q-4 -13 -8 -43q1 2 3 6.5t3 6.5q43 71 106.5 117t135.5 42q166 -10 186 -241q157 227 418 366q246 131 524 152q266 22 662 -76q73 -18 215.5 -56t228.5 -60t218 -46.5t231.5 -30.5t219.5 3t228 41zM315 -43l4 -2q79 125 113 371
q-4 -5 -12 -15.5t-12 -15.5q-55 -77 -89 -158q-33 -83 -33 -118q0 -37 23 -56z" />
    <glyph glyph-name="q.alt1" unicode="&#xf020;" horiz-adv-x="3645" 
d="M3705 664l10 -7q-179 -308 -383 -473q56 -33 88 -116q47 -112 53 -232q4 -121 -24 -176q-19 -37 -54.5 -54t-74.5 -7q-78 21 -117 127q-33 85 -47 217q-21 210 2 473v30q-18 -51 -49 -114q-17 -36 -37 -65.5t-49 -57.5t-63.5 -27t-67.5 37q-34 36 -49 109q-18 80 -15 164
q0 42 11 102q-151 237 -416 379q-246 131 -525 149q-156 10 -317.5 -11.5t-355.5 -66.5q-50 -12 -158 -38t-166 -39.5t-159.5 -33.5t-168 -28.5t-160.5 -15.5t-168.5 -3t-160 17.5t-164.5 38.5q-12 4 -14 15.5t5.5 20.5t20.5 5q304 -97 754 -16q83 15 186 39t190 45.5
t185.5 44.5t190.5 39t187 26.5t193 9t191 -15.5q253 -37 476.5 -168.5t365.5 -335.5q39 127 117 203q69 69 153 39q53 -20 86 -74q2 9 6 27.5t6 27.5q3 11 15 15q21 17 45.5 30t52.5 12.5t41 -24.5q3 -7 5 -14.5t2.5 -13t-1 -15t-2 -13.5t-3.5 -15t-3 -13q-21 -101 -23 -116
q-41 -240 -47 -478q190 152 367 455q8 10 19 10t18 -9.5t0 -20.5zM3191 668l-2 2q2 13 6 36.5t6 36.5q-10 38 -33.5 68.5t-56.5 40.5q-7 -7 -13.5 -15.5t-13 -20t-10.5 -19t-10 -22t-8 -20l-8 -22t-7 -18.5q-26 -75 -39 -158q-25 -145 -8 -326q25 13 60 70q31 54 63 133
q27 71 74 234zM3387 43v-2q-32 83 -77 109q0 -54 4 -160q7 -133 22 -228q11 -76 27 -120q40 10 55 57q20 59 12 170q-10 94 -43 174z" />
    <glyph glyph-name="q.alt2" unicode="&#xf021;" horiz-adv-x="3338" 
d="M3381 922l10 -7q13 4 21 -5t5.5 -20.5t-15.5 -15.5q-304 -89 -731 -10q-127 24 -320.5 75t-332 88t-319.5 59.5t-337 7.5q-268 -25 -506 -158t-383 -350q-26 -199 -29 -363q0 -9 5 -18t11 -14l5 -5q56 -33 88 -116q47 -112 53 -232q4 -121 -24 -176q-19 -37 -54.5 -54
t-74.5 -7q-78 21 -117 127q-33 85 -47 217q-21 210 2 473v31q-20 -54 -49 -115q-17 -36 -37 -65.5t-49 -57.5t-63.5 -27t-67.5 37q-35 38 -50 109q-17 76 -14 164q7 229 141 360q32 32 72 42.5t82 -3.5q53 -20 86 -74q2 9 6 27.5t6 27.5q3 11 15 15q21 17 45.5 30t52.5 12.5
t41 -24.5q3 -7 5 -14.5t2.5 -13t-1 -15t-2 -13.5t-3.5 -15t-3 -13q-21 -100 -23 -116q-1 -4 -2 -12.5t-2 -12.5q148 191 375 313q246 131 524 152q266 22 662 -76q73 -18 215.5 -56t228.5 -60t218 -46.5t231.5 -30.5t219.5 3t228 41zM324 668l-2 2q2 13 6 37l6 36
q-10 38 -33.5 68.5t-56.5 40.5q-7 -7 -13.5 -15.5t-13 -20t-10.5 -19t-10 -22t-8 -20l-8 -22t-7 -18.5q-26 -75 -39 -158q-25 -145 -8 -326q24 12 59 70q35 60 64 133q27 71 74 234zM520 43v-2q-32 82 -78 109q0 -54 4 -160q6 -123 23 -228q11 -76 27 -120q40 10 55 57
q20 59 12 170q-10 94 -43 174z" />
    <glyph glyph-name="r.alt1" unicode="&#xf022;" horiz-adv-x="3420" 
d="M3437 670l-3 8q7 18 27 14q19 -4 15 -21q0 -1 -1 -3q-98 -258 -155 -385q-50 -114 -94 -193q-52 -98 -107 -135q-33 -22 -69 -27t-72 11q-56 26 -60 122q-4 76 8 219.5t13 165.5q0 4 2 30t1.5 36.5t-2.5 30t-9 33t-19 24.5q-24 22 -63 35h-6q-3 1 -9.5 3t-9.5 3l-18 6
q-54 20 -72 43q-29 36 -39 88v6q-151 166 -346 250q-220 96 -508 103q-152 4 -308 -20t-353 -70q-36 -9 -122 -30t-128 -31t-123.5 -28t-129.5 -26t-125 -19t-130 -14t-124.5 -4t-130 5t-124.5 18.5t-127 31.5q-12 4 -14 15.5t5.5 20.5t20.5 5q302 -96 736 -20
q124 22 319 68t331 77.5t315.5 50t334.5 2.5q274 -26 481 -137q133 -71 248 -186q3 95 53 162q28 39 66.5 59.5t75.5 -0.5q66 -38 53 -152q-11 -84 -68 -163q19 -6 58 -15q9 -2 39.5 -8t50.5 -12.5t37 -16.5q49 -28 59 -63q3 -9 4.5 -18.5t2 -20t1 -19t0 -21t-1 -19
t-2.5 -21t-2.5 -19t-3 -20t-2.5 -18.5q-5 -34 -14 -82t-15.5 -84t-13.5 -82t-10 -84t-2.5 -82t6.5 -84l12 6q21 9 40.5 28t30.5 35t27 42q49 88 100 199.5t81 187t82 209.5zM2832 772l2 -2q68 89 68 174q0 37 -17 69.5t-51 20.5q-32 -12 -61 -59l-6 -6q-17 -109 18 -160
q18 -24 47 -37z" />
    <glyph glyph-name="r.alt2" unicode="&#xf023;" horiz-adv-x="3598" 
d="M3641 922l4 10q13 4 21 -5t5.5 -20.5t-15.5 -15.5q-138 -40 -294.5 -46t-291 12t-293.5 56q-37 9 -331.5 86.5t-452.5 100.5q-307 46 -588 -17q-256 -59 -442 -209q-201 -164 -320 -428q-54 -129 -70 -163q-50 -114 -94 -193q-52 -99 -106 -135q-33 -22 -69.5 -27
t-72.5 11q-33 16 -45 46.5t-14 75.5q-4 76 8 219.5t13 165.5q0 4 2 30t1.5 36.5t-2.5 30t-9 33t-19 24.5q-24 21 -64 35h-6l-18 6q-3 1 -9.5 3t-9.5 3q-53 19 -71 43q-29 36 -39 88q-13 59 -1.5 122.5t46.5 113.5q28 39 66 59.5t75 -0.5q35 -20 46.5 -62t6.5 -89
q-12 -87 -67 -164q21 -7 57 -15q10 -2 39.5 -7.5t50 -12t37.5 -16.5q50 -28 60 -64q3 -11 5 -23.5t2 -26.5v-24t-2 -27.5t-3 -24.5t-3.5 -26.5t-3.5 -23.5q-5 -34 -14 -82t-15.5 -84t-13.5 -82t-10 -84t-2.5 -82t6.5 -84q2 1 6.5 3t6.5 3q21 9 40.5 28t30.5 35t27 42
q61 109 127 258q2 4 4 10q2 4 6 12.5t6 12.5q12 29 64 141q132 257 338 412q109 80 241 132t270.5 72t275 18.5t276.5 -22.5q134 -21 315 -67.5t329 -85.5t313.5 -70.5t332.5 -28.5t321 48zM86 776l2 -2q68 89 68 174q0 37 -17 69.5t-51 20.5q-32 -12 -61 -59q-1 -1 -3.5 -3
t-3.5 -3q-17 -108 19 -160q18 -24 47 -37z" />
    <glyph glyph-name="s.alt1" unicode="&#xf024;" horiz-adv-x="3477" 
d="M3512 682l4 2q12 6 22 -1.5t10 -18t-11 -17.5q-256 -137 -363 -217q28 -44 43 -80q75 -177 27 -342q-23 -77 -71 -141t-115 -98q-82 -42 -146 -15q-66 28 -96 99q-23 51 -14 112q19 143 137 293q37 49 80 92q-14 21 -30.5 43.5t-37 49.5t-31.5 42q-45 58 -53 70l-6 6
q-154 263 -440 416q-246 131 -525 149q-268 17 -673 -77q-51 -12 -158 -37.5t-166 -39.5t-159.5 -34.5t-167.5 -29t-161 -15.5t-168.5 -3t-160 17.5t-164.5 38.5q-12 4 -14 15.5t5.5 20.5t20.5 5q304 -97 754 -16q83 15 186 39t190 45.5t185.5 44.5t190.5 39t187 26.5t193 9
t191 -15.5q239 -36 452 -155.5t357 -305.5q-3 84 31 148q41 78 131 104q87 24 155 -12q46 -24 65 -78.5t-9 -99.5q-8 -10 -19 -10t-18 9.5t0 20.5q16 27 7.5 61t-34.5 52q-31 22 -73 25q-43 3 -91 -17q0 -2 -4 -6q-62 -64 9 -199q17 -36 79 -110q83 -98 101 -121
q117 86 366 217zM3097 41l-5 -4q31 134 -53 278q-75 -75 -125 -159q-43 -70 -65 -152q-21 -85 4 -133v0q9 -19 31 -31q36 -22 74.5 -1t70.5 61q49 61 68 141z" />
    <glyph glyph-name="s.alt2" unicode="&#xf025;" horiz-adv-x="3356" 
d="M3400 922l4 -2q13 4 20.5 -5t5 -20.5t-15.5 -15.5q-130 -38 -280 -44.5t-279.5 9t-280.5 49.5q-89 20 -222.5 55.5t-231 62t-226.5 53t-234.5 36.5t-228 2.5t-233.5 -37.5q-278 -76 -499.5 -266t-329.5 -451q74 -175 26 -338q-23 -77 -71 -141t-115 -98q-82 -42 -146 -15
q-66 28 -96 99q-23 51 -14 112q19 143 137 293q38 49 80 92q-9 14 -98 135q-61 81 -78 127q-22 54 -19 118.5t29 115.5q41 78 131 104q88 24 156 -12q46 -24 64.5 -78.5t-9.5 -99.5q-8 -10 -19 -10t-18 9.5t0 20.5q17 27 8 61t-34 52q-31 22 -74 25q-42 3 -90 -17
q0 -2 -4 -6q-62 -65 8 -199q16 -33 80 -110q74 -87 100 -121l25 -35q9 -15 18 -33q130 292 387 486q216 165 484 231q272 66 638 -2q109 -20 253 -56.5t258 -68.5t255 -62t261 -44t257 -5.5t261 44.5zM248 37l-4 -4q31 133 -54 278q-73 -73 -124 -159q-45 -73 -66 -152
q-21 -85 4 -133v0q9 -19 31 -31q36 -22 74.5 -1t70.5 61q49 61 68 141z" />
    <glyph glyph-name="t.alt1" unicode="&#xf026;" horiz-adv-x="3450" 
d="M4026 1360l11 -4q9 8 20.5 3.5t13.5 -14t-6 -18.5q-142 -111 -344 -143q-155 -23 -368 -2q-51 -122 -134 -238q-88 -124 -186 -182q-7 -174 0 -287q8 -120 31 -256q16 -86 28 -127q15 -49 37 -78q24 3 47 21t35.5 34t30.5 44q46 68 90 176q97 233 143 389q4 13 15.5 15.5
t20.5 -5t5 -20.5q-35 -120 -88 -252q-60 -153 -92 -219q-21 -44 -37 -72t-44.5 -68t-62.5 -62t-71 -24q-4 -2 -12 -2q-17 0 -25 2q-50 10 -81 47t-54 95q-27 69 -47 157q-37 146 -49 305q-153 250 -430 400q-246 131 -525 149q-268 17 -673 -77q-51 -12 -158 -37.5
t-166 -39.5t-159.5 -34.5t-167.5 -29t-161 -15.5t-168.5 -3t-160 17.5t-164.5 38.5q-12 4 -14 15.5t5.5 20.5t20.5 5q304 -97 754 -16q83 15 186 39t190 45.5t185.5 44.5t190.5 39t187 26.5t193 9t191 -15.5q252 -37 473.5 -167t364.5 -331q-5 96 -2 215q8 237 34 361
q-58 4 -117.5 2.5t-112.5 -9t-112 -36t-116 -78.5q-9 -8 -20.5 -4t-14.5 13.5t4 19.5q25 24 53 43.5t53.5 33t57.5 24t55 17.5t56.5 11t52.5 6t51 2t44 -0.5t41 -2t32 -1.5q19 70 45 133q19 42 45 82t62 77.5t76.5 60t87 30t95.5 -13.5q109 -45 105 -193q-3 -114 -45 -229
q82 -10 174 -8t175.5 13.5t167.5 45t152 86.5zM3201 989l-2 2q64 95 106 197q-36 4 -107.5 13t-107.5 13q0 -2 -1 -6t-1 -6q-43 -167 -53 -395q88 61 166 182zM3328 1247q50 144 37 248q-3 36 -23 66h-6q-58 4 -97 -35t-73 -105q-41 -80 -65 -166q37 -4 110.5 -13t110.5 -13
z" />
    <glyph glyph-name="t.alt2" unicode="&#xf027;" horiz-adv-x="3452" 
d="M3496 922l6 -7q13 4 20.5 -5t5 -20.5t-15.5 -15.5q-340 -99 -846 17q-90 20 -227 56.5t-236 63.5t-231 53t-239.5 35t-232 -1t-236.5 -45q-138 -43 -260 -123.5t-218.5 -187t-171 -228.5t-127.5 -260q0 -1 -1 -3t-1 -3q-20 -50 -26 -62q-21 -43 -37.5 -71.5t-44.5 -68
t-62 -61.5t-71 -24q-4 -2 -13 -2q-16 0 -24 2q-50 10 -81 47t-54 94q-27 68 -47 158q-68 273 -58 604q8 231 35 361q-379 15 -582 -162q-9 -9 -20.5 -4.5t-13.5 14t6 19.5q130 114 334 155q135 25 288 19q19 70 45 133q19 42 45.5 82t62 77.5t76.5 60t87.5 29.5t95.5 -14
q108 -44 104 -192q-3 -115 -45 -230q444 -39 670 138q9 8 20.5 3.5t14 -14t-5.5 -18.5q-142 -111 -344 -143q-156 -23 -369 -2q-52 -125 -133 -238q-88 -124 -186 -182q-7 -174 0 -287q9 -131 30 -256q14 -77 29 -127q15 -49 37 -78q24 3 46.5 20.5t35 33.5t30.5 44
q47 70 91 177q3 8 9 24.5t9 24.5q135 319 348 516q206 191 463 260q272 75 651 10q126 -22 304.5 -69t321 -83.5t304.5 -66t324 -25.5t311 48zM287 1417q-43 -85 -66 -166q37 -4 110.5 -13t110.5 -13q1 3 3.5 9t3.5 9q49 142 36 248q-3 36 -22 65h-6q-58 4 -97 -34.5
t-73 -104.5zM207 1202l-2 2q-43 -167 -53 -395q86 60 165 182q66 98 107 197q-36 4 -107.5 13t-107.5 13q0 -2 -1 -6t-1 -6z" />
    <glyph glyph-name="u.alt1" unicode="&#xf028;" horiz-adv-x="3694" 
d="M3711 670v-8q4 12 15.5 14t20.5 -5.5t5 -19.5q-96 -284 -197 -475q-21 -40 -29.5 -56t-29.5 -48.5t-43.5 -52t-48.5 -31.5q-62 -28 -115 8.5t-72 103.5q-14 49 -18 154q-3 74 4 166q4 56 8 86q-5 -13 -15 -37.5t-15 -36.5q-38 -97 -68 -149q-14 -28 -22.5 -43t-26.5 -36
t-37 -30q-45 -22 -87 3.5t-56 72.5q-19 63 -19 168q0 43 4 129l-6 6q-154 263 -440 416q-246 131 -525 149q-156 10 -317.5 -11.5t-355.5 -66.5q-50 -12 -158 -38t-166 -39.5t-159.5 -33.5t-168 -28.5t-160.5 -15.5t-168.5 -3t-160 17.5t-164.5 38.5q-12 4 -14 15.5
t5.5 20.5t20.5 5q304 -97 754 -16q83 15 186 39t190 45.5t185.5 44.5t190.5 39t187 26.5t193 9t191 -15.5q263 -39 492.5 -179.5t369.5 -357.5q9 82 15 109q11 45 41 61q22 13 54 16t54 -9q20 -13 21.5 -46.5t-4.5 -54.5q-3 -33 -11.5 -98t-11.5 -98q-9 -133 0 -265
q14 14 33 47q46 81 102 240q58 162 84 260q2 9 6 27.5t6 27.5q8 41 19 58q14 22 42.5 33.5t57.5 11.5q31 1 40 -20.5t7 -57.5q-2 -24 -6 -52t-9.5 -62t-8.5 -52q-62 -384 -13 -657q42 21 82 86q43 68 97 186q72 161 143 365zM3248 137h2q4 -26 8 -37q-8 23 -10 37z" />
    <glyph glyph-name="u.alt2" unicode="&#xf029;" horiz-adv-x="3766" 
d="M3809 922l-2 -13q13 4 20.5 -5t5 -20.5t-15.5 -15.5q-115 -34 -239 -44.5t-252 2t-238 33t-243 54.5q-55 14 -171.5 46t-185.5 49.5t-168 39.5t-189 33.5t-177 14.5q-259 7 -469 -62q-136 -44 -257.5 -124.5t-218.5 -188.5t-173.5 -223t-145.5 -252q-4 -8 -12 -24.5
t-12 -24.5q-3 -7 -9.5 -21.5t-9.5 -21.5q-3 -6 -6 -9q-22 -41 -37 -66t-43.5 -55.5t-60.5 -43.5q-62 -28 -115 8.5t-72 103.5q-14 49 -18 154q-3 74 4 166q4 56 8 86q-5 -13 -15.5 -37.5t-15.5 -36.5q-41 -105 -67 -150q-45 -88 -86 -108q-45 -22 -87 3.5t-56 72.5
q-19 63 -19 168q0 86 10 188q9 92 15 119q11 45 41 61q22 13 54 16t54 -10q20 -13 21.5 -46t-4.5 -54q-3 -33 -11.5 -98.5t-11.5 -98.5q-9 -132 0 -264q14 14 33 47q46 81 102 240q58 162 84 260q2 9 6 27.5t6 27.5q8 41 19 58q14 22 42.5 33.5t57.5 11.5q31 1 40 -20.5
t7 -57.5q-2 -24 -6 -52t-9.5 -62t-8.5 -52q-62 -384 -13 -657q42 21 82 86q29 44 60 108q4 8 12 24.5t12 24.5q1 2 3.5 6.5t3.5 6.5q183 365 413 571q192 174 434 244q235 67 516 47q134 -10 296 -43.5t297.5 -73t295 -77t298.5 -60t296.5 -17t300.5 47.5zM348 133h2
q4 -26 8 -37q-8 23 -10 37z" />
    <glyph glyph-name="v.alt1" unicode="&#xf02a;" horiz-adv-x="3659" 
d="M3690 684v-10q8 9 18.5 5.5t13.5 -13.5t-3 -21q-34 -43 -84 -67q-121 -62 -223 -46q-3 0 -18 5q-5 -21 -15.5 -62t-15.5 -61q-39 -162 -115 -299q-20 -35 -35 -58t-41 -52.5t-56.5 -40.5t-63.5 -3q-92 21 -142 172q-42 120 -53 316q-4 78 -4 116q-154 254 -432 406
q-246 131 -525 149q-156 10 -317.5 -11.5t-355.5 -66.5q-50 -12 -158 -38t-166 -39.5t-159.5 -33.5t-168 -28.5t-160.5 -15.5t-168.5 -3t-160 17.5t-164.5 38.5q-12 4 -14 15.5t5.5 20.5t20.5 5q304 -97 754 -16q83 15 186 39t190 45.5t185.5 44.5t190.5 39t187 26.5t193 9
t191 -15.5q255 -37 479.5 -169.5t366.5 -338.5q0 65 2 98q3 27 28.5 42.5t55 15.5t53.5 -6q47 -19 47 -78q0 -50 -4 -148q-2 -100 -2.5 -189t14.5 -188t48 -182q27 7 55 43q35 40 80 123q73 148 125 381q-67 30 -107 98q-82 139 -37 338q20 89 68 127q41 29 82 13.5
t61 -60.5q17 -37 24 -78t3 -97.5t-6.5 -80.5t-12.5 -90q-8 -47 -28 -141q44 -11 96 -2q130 22 192 100zM3383 698l2 7q9 51 12.5 76.5t8 71t3 83t-8.5 72.5q-14 79 -58 86q-25 5 -49 -23q-34 -39 -47 -133q-27 -197 64 -301q25 -28 55 -43q3 17 9 52t9 52z" />
    <glyph glyph-name="v.alt2" unicode="&#xf02b;" horiz-adv-x="3401" 
d="M3445 922h2q13 4 20.5 -5t5 -20.5t-15.5 -15.5q-306 -90 -731 -11q-127 24 -320.5 75t-332 88t-319.5 59.5t-337 7.5q-277 -27 -520 -168t-385 -369l-4 -16q-5 -20 -15.5 -61t-15.5 -62q-39 -162 -115 -299q-20 -35 -35 -58t-41 -52.5t-56.5 -40.5t-63.5 -3
q-91 21 -141 172q-43 123 -54 316q-8 135 -2 289q3 27 28.5 42.5t55 15t53.5 -6.5q48 -19 48 -78q0 -50 -4 -148q-2 -100 -3 -189t14 -188t48 -182q27 7 55 43q35 40 80 123q73 148 125 381q-67 30 -107 98q-81 138 -36 338q20 90 67 127q41 29 82.5 13.5t61.5 -60.5
q17 -37 24 -78t3 -97.5t-6.5 -80.5t-12.5 -90q-2 -10 -6.5 -30.5t-6.5 -30.5q151 200 386 325q246 131 524 152q266 21 661 -76q73 -18 215.5 -56t228.5 -60t218.5 -46.5t231.5 -30.5t219.5 3t228.5 41zM424 645l2 6q25 -28 55 -43q3 18 9.5 53t9.5 52q8 48 12 76.5t8 72
t2.5 81.5t-8.5 73q-14 79 -57 86q-25 5 -49 -23q-36 -40 -48 -133q-27 -197 64 -301z" />
    <glyph glyph-name="w.alt1" unicode="&#xf02c;" horiz-adv-x="4014" 
d="M4045 684l2 -6q8 9 18.5 5.5t13.5 -13.5t-3 -21q-34 -43 -84 -67q-119 -62 -224 -45q-6 0 -18 4q-5 -21 -15.5 -62t-15.5 -61q-39 -162 -115 -299q-20 -35 -35 -58t-41 -52.5t-56.5 -40.5t-63.5 -3q-91 21 -141 172q-43 123 -54 316q-4 90 -4 135q-12 -36 -59 -160
q-38 -97 -68 -149q-14 -28 -22.5 -43t-26.5 -36t-37 -30q-45 -22 -87 3.5t-56 72.5q-19 63 -19 168q0 70 11 178q-151 237 -416 379q-246 131 -524 149q-156 10 -318 -11.5t-356 -66.5q-50 -12 -158 -38t-166 -39.5t-159.5 -33.5t-168 -28.5t-160.5 -15.5t-168.5 -3
t-160 17.5t-164.5 38.5q-19 6 -13 26.5t26 14.5q303 -97 753 -16q83 15 186 39t190 45.5t185.5 44.5t190.5 39t187 26.5t193 9t191 -15.5q250 -37 471 -166t363 -328q4 44 8 62q11 45 41 61q22 13 54 16t54 -10q20 -13 21.5 -46t-4.5 -54q-3 -33 -11.5 -98t-11.5 -98
q-9 -133 0 -265q14 14 33 47q46 81 102 240q60 160 74 219v4v6q3 27 28.5 42.5t55 15.5t53.5 -6q48 -19 48 -78q0 -25 -5 -148q-2 -100 -2.5 -189t14.5 -188t48 -182q27 7 55 43q35 40 80 123q73 148 125 381q-67 30 -107 98q-81 138 -36 338q20 90 67 127q41 29 82.5 13.5
t61.5 -60.5q17 -37 24 -78t3 -97.5t-6.5 -80.5t-12.5 -90q-4 -24 -29 -141q44 -11 96 -2q131 22 193 100zM2953 201v4h6v0q-4 -4 -6 -4zM3406 12zM3740 707l2 6q8 48 12 76.5t8 72t2.5 81.5t-8.5 73q-14 79 -57 86q-25 5 -49 -23q-36 -40 -48 -133q-27 -197 64 -301
q25 -28 55 -43q3 18 9.5 53t9.5 52z" />
    <glyph glyph-name="w.alt2" unicode="&#xf02d;" horiz-adv-x="3776" 
d="M3820 922l4 -2q13 4 20.5 -5t5 -20.5t-15.5 -15.5q-306 -90 -731 -11q-127 24 -320.5 75t-332 88t-319.5 59.5t-337 7.5q-277 -27 -520 -168t-385 -369q-4 -12 -6 -16q-5 -21 -15.5 -61.5t-15.5 -61.5q-39 -162 -115 -299q-20 -35 -35 -58t-41 -52.5t-56.5 -40.5
t-63.5 -3q-92 21 -142 172q-42 120 -53 316q-4 90 -4 135q-12 -37 -59 -160q-38 -97 -68 -149q-14 -28 -22.5 -43t-26.5 -36t-37 -30q-45 -22 -87 3.5t-56 72.5q-19 63 -19 168q0 86 10 188q9 92 15 119q11 45 41 61q22 13 54 16t54 -9q20 -13 21.5 -46.5t-4.5 -54.5
q-3 -33 -11.5 -98t-11.5 -98q-9 -132 0 -265q13 13 33 48q47 82 102 239q60 160 74 219v4v7q3 27 28.5 42.5t55 15t53.5 -6.5q47 -19 47 -78q0 -50 -4 -148q-2 -100 -2.5 -189t14.5 -188t48 -182q27 7 55 43q35 40 80 123q73 148 125 381q-67 30 -107 98q-82 139 -37 338
q20 89 68 127q41 29 82 13.5t61 -60.5q22 -48 26 -117t-0.5 -108.5t-16.5 -120.5q-2 -10 -6.5 -30.5t-6.5 -30.5q151 200 385 325q246 131 525 152q266 21 661 -76q73 -18 215.5 -56t228.5 -60t218.5 -46.5t231.5 -30.5t219.5 3t228.5 41zM88 205v4h6v0q-4 -4 -6 -4zM541 16
zM801 647l2 6q25 -28 55 -43q3 18 9.5 53t9.5 52q8 48 12 76.5t8 72t2.5 81.5t-8.5 73q-14 79 -57 86q-26 5 -50 -23q-34 -39 -47 -133q-27 -197 64 -301z" />
    <glyph glyph-name="x.alt1" unicode="&#xf02e;" horiz-adv-x="3489" 
d="M3506 678l6 18q4 12 15.5 14.5t20.5 -5t5 -19.5q-80 -241 -155 -399q-81 -174 -205 -217q-74 -25 -140 0t-106 90q-25 40 -63 139q-122 -213 -164 -289q-7 -10 -17.5 -10t-18 10t-1.5 21q-15 472 -166 741q-115 205 -313 295q-190 88 -482 74q-135 -7 -298.5 -37.5
t-300.5 -67t-297.5 -70.5t-300.5 -53.5t-299 -10.5t-302 54q-19 6 -13 26.5t26 14.5q120 -38 250 -50t268.5 2.5t248.5 34.5t259 56q330 81 424 99q283 55 501 43q231 -13 393 -109q402 -235 443 -975l141 246q-40 108 -47 129q-47 143 -59 184q-2 5 -6 21.5t-7.5 27t-11 22
t-16.5 15.5q-12 5 -25 -6.5t-19 -23.5t-12 -27q0 -4 -2 -6q-10 -13 -24 -2q-16 8 -13 22q15 67 57 129t99 82q41 14 67 -5t46 -62q30 -68 71 -219q3 -13 9.5 -37t9.5 -37q37 65 111.5 194t111.5 193q8 10 19 10t18 -9.5t0 -20.5q-41 -70 -123 -211.5t-123 -212.5
q9 -33 47 -154q55 -163 113 -252q75 20 122.5 79t88.5 150q71 156 139 361z" />
    </font>
</defs>
</svg>
